<?xml version="1.0" encoding="utf-8" standalone="yes"?>
<!DOCTYPE svg PUBLIC "-//W3C//DTD SVG 1.1//EN" "http://www.w3.org/Graphics/SVG/1.1/DTD/svg11.dtd">
<svg width="732" height="384" viewBox="0 0 732 384" style="fill:none;stroke:none;fill-rule:evenodd;clip-rule:evenodd;stroke-linecap:round;stroke-linejoin:round;stroke-miterlimit:1.5;" version="1.1" xmlns="http://www.w3.org/2000/svg" xmlns:xlink="http://www.w3.org/1999/xlink"><style id="fontImports">@import url("https://fonts.googleapis.com/css2?family=Roboto:wght@400;700&amp;display=block");</style><g id="items" style="isolation: isolate"><g id="blend" style="mix-blend-mode:normal"><g id="g-root-0.cu_sy_4hb6o0fv5iq5-fill" data-item-order="999921164" data-item-id="0.cu_sy_4hb6o0fv5iq5" data-item-class="Part Indexed_0 Fill Stroke" data-item-index="0" data-renderer-id="0" transform="translate(266.47369384765625, 83.52630615234375)"><g id="0.cu_sy_4hb6o0fv5iq5-fill" stroke="none" fill="#413f4c"><g><path d="M 82 154C 121.765 154 154 121.765 154 82C 154 42.2355 121.765 10 82 10C 42.2355 10 10 42.2355 10 82C 10 96.1129 14.0605 109.2775 21.0769 120.389C 25.088 118.846 29.4452 118 34 118C 53.5486 118 69.4579 133.581 69.9864 153.002C 73.8932 153.658 77.9067 154 82 154Z"></path></g></g></g><g id="g-root-2.cu_sy_1hojkfv5jif-fill" data-item-order="999921166" data-item-id="2.cu_sy_1hojkfv5jif" data-item-class="Part Indexed Fill Stroke" data-item-index="2" data-renderer-id="0" transform="translate(254.47369384765625, 191.52630615234375)"><g id="2.cu_sy_1hojkfv5jif-fill" stroke="none" fill="#392c6c"><g><path d="M 82 46C 82 65.8823 65.8823 82 46 82C 26.1177 82 10 65.8823 10 46C 10 26.1177 26.1177 10 46 10C 65.8823 10 82 26.1177 82 46Z"></path></g></g></g><g id="g-root-3.cu_sy_1unephcfv5gxs-fill" data-item-order="999921168" data-item-id="3.cu_sy_1unephcfv5gxs" data-item-class="Part Indexed Fill Stroke" data-item-index="3" data-renderer-id="0" transform="translate(512.4737548828125, 125.52630615234375)"><g id="3.cu_sy_1unephcfv5gxs-fill" stroke="none" fill="#392c6c"><g><path d="M 70 40C 70 56.5685 56.5685 70 40 70C 23.4315 70 10 56.5685 10 40C 10 23.4315 23.4315 10 40 10C 56.5685 10 70 23.4315 70 40Z"></path></g></g></g><g id="g-root-1.cu_sy_1hojkfv5jie-fill" data-item-order="999921170" data-item-id="1.cu_sy_1hojkfv5jie" data-item-class="Part Indexed Indexed_1 Fill Stroke" data-item-index="1" data-renderer-id="0" transform="translate(134.47369384765625, 95.52630615234375)"><g id="1.cu_sy_1hojkfv5jie-fill" stroke="none" fill="#392c6c"><g><path d="M 58 34C 58 47.2548 47.2548 58 34 58C 20.7452 58 10 47.2548 10 34C 10 20.7452 20.7452 10 34 10C 47.2548 10 58 20.7452 58 34Z"></path></g></g></g><g id="g-root--1.cu_sy_hsrp1cfv5h58-fill" data-item-order="999921173" data-item-id="-1.cu_sy_hsrp1cfv5h58" data-item-class="Curve Stroke Part" data-item-index="-1" data-renderer-id="0" transform="translate(134.47369384765625, 83.78656005859375)"></g><g id="g-root-tx_taskform_13z8qkgfv5hxd-fill" data-item-order="1000000000" data-item-id="tx_taskform_13z8qkgfv5hxd" data-item-class="Label Stroke" data-item-index="none" data-renderer-id="0" transform="translate(32, 2)"><g id="tx_taskform_13z8qkgfv5hxd-fill" stroke="none" fill="#886AFF"><g><text style="font: bold 20px Roboto, sans-serif; white-space: pre;" font-weight="bold" font-size="20" font-family="Roboto, sans-serif"><tspan x="16.96" y="34" dominant-baseline="ideographic">Task Form</tspan></text></g></g></g><g id="g-root-tx_atoolfor_1q5ps3kfv5hxr-fill" data-item-order="1000000000" data-item-id="tx_atoolfor_1q5ps3kfv5hxr" data-item-class="Label Stroke" data-item-index="none" data-renderer-id="0" transform="translate(2, 33.47369384765625)"><g id="tx_atoolfor_1q5ps3kfv5hxr-fill" stroke="none" fill="#A3A3A3"><g><text style="font: 20px Roboto, sans-serif; white-space: pre;" font-weight="20px" font-size="Roboto," font-family="sans-serif"><tspan x="12.95" y="34" dominant-baseline="ideographic">A tool for creating </tspan><tspan x="29.15" y="58" dominant-baseline="ideographic">and managing </tspan><tspan x="68.46" y="82" dominant-baseline="ideographic">tasks</tspan></text></g></g></g><g id="g-root-tx_tasklist_qns874fv5jib-fill" data-item-order="1000000000" data-item-id="tx_tasklist_qns874fv5jib" data-item-class="Label Stroke" data-item-index="none" data-renderer-id="0" transform="translate(578, 34.36846923828125)"><g id="tx_tasklist_qns874fv5jib-fill" stroke="none" fill="#886AFF"><g><text style="font: bold 20px Roboto, sans-serif; white-space: pre;" font-weight="bold" font-size="20" font-family="Roboto, sans-serif"><tspan x="17.71" y="34" dominant-baseline="ideographic">Task List</tspan></text></g></g></g><g id="g-root-tx_acompreh_8qdcfv5hc6-fill" data-item-order="1000000000" data-item-id="tx_acompreh_8qdcfv5hc6" data-item-class="Label Stroke" data-item-index="none" data-renderer-id="0" transform="translate(542, 62)"><g id="tx_acompreh_8qdcfv5hc6-fill" stroke="none" fill="#A3A3A3"><g><text style="font: 20px Roboto, sans-serif; white-space: pre;" font-weight="20px" font-size="Roboto," font-family="sans-serif"><tspan x="14.64" y="34" dominant-baseline="ideographic">A comprehensive </tspan><tspan x="27.83" y="58" dominant-baseline="ideographic">overview of all </tspan><tspan x="67.43" y="82" dominant-baseline="ideographic">tasks</tspan></text></g></g></g><g id="g-root-chec_1qclcowfuvnrh-fill" data-item-order="1000000000" data-item-id="chec_1qclcowfuvnrh" data-item-class="Icon Stroke Indexed Indexed_1 InsideFill InsideColorFill" data-item-index="1" data-renderer-id="0" transform="translate(143.47369384765625, 104.52630615234375)"></g><g id="g-root-dash_92r4w0fv2o7b-fill" data-item-order="1000000000" data-item-id="dash_92r4w0fv2o7b" data-item-class="Icon Stroke Indexed Indexed_0 InsideFill InsideColorFill" data-item-index="0" data-renderer-id="0" transform="translate(302.47369384765625, 119.52630615234375)"></g><g id="g-root-task_1448vwgfuuakv-fill" data-item-order="1000000000" data-item-id="task_1448vwgfuuakv" data-item-class="Icon Stroke Indexed InsideFill InsideColorFill" data-item-index="3" data-renderer-id="0" transform="translate(524.4737548828125, 137.52630615234375)"></g><g id="g-root-bloc_de7beofuvp4y-fill" data-item-order="1000000000" data-item-id="bloc_de7beofuvp4y" data-item-class="Icon Stroke Indexed InsideFill InsideColorFill" data-item-index="2" data-renderer-id="0" transform="translate(269.47369384765625, 206.52630615234375)"></g><g id="g-root-tx_avisualr_18f28owfv5h54-fill" data-item-order="1000000000" data-item-id="tx_avisualr_18f28owfv5h54" data-item-class="Label Stroke" data-item-index="none" data-renderer-id="0" transform="translate(309.26312255859375, 254)"><g id="tx_avisualr_18f28owfv5h54-fill" stroke="none" fill="#A3A3A3"><g><text style="font: 20px Roboto, sans-serif; white-space: pre;" font-weight="20px" font-size="Roboto," font-family="sans-serif"><tspan x="16.27" y="64" dominant-baseline="ideographic">A visual representation of </tspan><tspan x="14.42" y="88" dominant-baseline="ideographic">task completion over time</tspan></text></g></g></g><g id="g-root-tx_streakca_v3lqbkfv5iq2-fill" data-item-order="1000000000" data-item-id="tx_streakca_v3lqbkfv5iq2" data-item-class="Label Stroke" data-item-index="none" data-renderer-id="0" transform="translate(344, 250)"><g id="tx_streakca_v3lqbkfv5iq2-fill" stroke="none" fill="#886AFF"><g><text style="font: bold 20px Roboto, sans-serif; white-space: pre;" font-weight="bold" font-size="20" font-family="Roboto, sans-serif"><tspan x="16.11" y="34" dominant-baseline="ideographic">Streak Calendar</tspan></text></g></g></g><g id="g-root-0.cu_sy_4hb6o0fv5iq5-stroke" data-item-order="999921164" data-item-id="0.cu_sy_4hb6o0fv5iq5" data-item-class="Part Indexed_0 Fill Stroke" data-item-index="0" data-renderer-id="0" transform="translate(266.47369384765625, 83.52630615234375)"><g id="0.cu_sy_4hb6o0fv5iq5-stroke" fill="none" stroke-linecap="round" stroke-linejoin="round" stroke-miterlimit="4" stroke="#9793ba" stroke-width="2"><g><path d="M 82 154C 121.7645 154 154 121.7645 154 82C 154 42.2355 121.7645 10 82 10C 42.2355 10 10 42.2355 10 82C 10 96.1129 14.0605 109.2775 21.0769 120.3891C 25.088 118.8459 29.4452 118 34 118C 53.5486 118 69.4579 133.5813 69.9864 153.0022C 73.8932 153.6584 77.9067 154 82 154Z"></path></g></g></g><g id="g-root-2.cu_sy_1hojkfv5jif-stroke" data-item-order="999921166" data-item-id="2.cu_sy_1hojkfv5jif" data-item-class="Part Indexed Fill Stroke" data-item-index="2" data-renderer-id="0" transform="translate(254.47369384765625, 191.52630615234375)"><g id="2.cu_sy_1hojkfv5jif-stroke" fill="none" stroke-linecap="round" stroke-linejoin="round" stroke-miterlimit="4" stroke="#886AFF" stroke-width="2"><g><path d="M 82 46C 82 65.8823 65.8823 82 46 82C 26.1177 82 10 65.8823 10 46C 10 26.1177 26.1177 10 46 10C 65.8823 10 82 26.1177 82 46Z"></path></g></g></g><g id="g-root-3.cu_sy_1unephcfv5gxs-stroke" data-item-order="999921168" data-item-id="3.cu_sy_1unephcfv5gxs" data-item-class="Part Indexed Fill Stroke" data-item-index="3" data-renderer-id="0" transform="translate(512.4737548828125, 125.52630615234375)"><g id="3.cu_sy_1unephcfv5gxs-stroke" fill="none" stroke-linecap="round" stroke-linejoin="round" stroke-miterlimit="4" stroke="#886AFF" stroke-width="2"><g><path d="M 70 40C 70 56.5685 56.5685 70 40 70C 23.4315 70 10 56.5685 10 40C 10 23.4315 23.4315 10 40 10C 56.5685 10 70 23.4315 70 40Z"></path></g></g></g><g id="g-root-1.cu_sy_1hojkfv5jie-stroke" data-item-order="999921170" data-item-id="1.cu_sy_1hojkfv5jie" data-item-class="Part Indexed Indexed_1 Fill Stroke" data-item-index="1" data-renderer-id="0" transform="translate(134.47369384765625, 95.52630615234375)"><g id="1.cu_sy_1hojkfv5jie-stroke" fill="none" stroke-linecap="round" stroke-linejoin="round" stroke-miterlimit="4" stroke="#886AFF" stroke-width="2"><g><path d="M 58 34C 58 47.2548 47.2548 58 34 58C 20.7452 58 10 47.2548 10 34C 10 20.7452 20.7452 10 34 10C 47.2548 10 58 20.7452 58 34Z"></path></g></g></g><g id="g-root--1.cu_sy_hsrp1cfv5h58-stroke" data-item-order="999921173" data-item-id="-1.cu_sy_hsrp1cfv5h58" data-item-class="Curve Stroke Part" data-item-index="-1" data-renderer-id="0" transform="translate(134.47369384765625, 83.78656005859375)"><g id="-1.cu_sy_hsrp1cfv5h58-stroke" fill="none" stroke-linecap="round" stroke-linejoin="round" stroke-miterlimit="4" stroke="#FFFFFF" stroke-width="2" stroke-dasharray="5.0, 7.0"><g><path d="M 144.3938 122.5313C 106.9361 114.0615 82 98.9595 82 81.7395C 82 63.1262 111.1351 46.9874 153.7264 39.0244M 128.7609 147.1723C 58.6613 135.7781 10 110.7645 10 81.7395C 10 75.7665 12.0608 69.9633 15.9452 64.4137M 194.39 129.2135C 200.7883 129.56 207.3365 129.7395 214 129.7395C 286.9016 129.7395 346 108.2492 346 81.7395C 346 63.0996 316.7815 46.9412 274.0908 38.9903M 204.1285 153.6567C 207.3994 153.7117 210.6905 153.7395 214 153.7395C 298.7492 153.7395 371.4281 135.4998 402.2421 109.5359M 57.841 35.4084C 91.7475 21.1874 140.9628 11.6636 196.5255 10M 232.4007 10.0285C 309.1626 12.4506 373.6831 29.8794 402.2421 53.9432"></path></g></g></g><g id="g-root-tx_taskform_13z8qkgfv5hxd-stroke" data-item-order="1000000000" data-item-id="tx_taskform_13z8qkgfv5hxd" data-item-class="Label Stroke" data-item-index="none" data-renderer-id="0" transform="translate(32, 2)"></g><g id="g-root-tx_atoolfor_1q5ps3kfv5hxr-stroke" data-item-order="1000000000" data-item-id="tx_atoolfor_1q5ps3kfv5hxr" data-item-class="Label Stroke" data-item-index="none" data-renderer-id="0" transform="translate(2, 33.47369384765625)"></g><g id="g-root-tx_tasklist_qns874fv5jib-stroke" data-item-order="1000000000" data-item-id="tx_tasklist_qns874fv5jib" data-item-class="Label Stroke" data-item-index="none" data-renderer-id="0" transform="translate(578, 34.36846923828125)"></g><g id="g-root-tx_acompreh_8qdcfv5hc6-stroke" data-item-order="1000000000" data-item-id="tx_acompreh_8qdcfv5hc6" data-item-class="Label Stroke" data-item-index="none" data-renderer-id="0" transform="translate(542, 62)"></g><g id="g-root-chec_1qclcowfuvnrh-stroke" data-item-order="1000000000" data-item-id="chec_1qclcowfuvnrh" data-item-class="Icon Stroke Indexed Indexed_1 InsideFill InsideColorFill" data-item-index="1" data-renderer-id="0" transform="translate(143.47369384765625, 104.52630615234375)"><g id="chec_1qclcowfuvnrh-stroke" fill="none" stroke-linecap="round" stroke-linejoin="round" stroke-miterlimit="4" stroke="#886AFF" stroke-width="2"><g><path d="M 22.5 39.375L 11.875 39.375C 11.184644 39.375 10.625 38.815353 10.625 38.125L 10.625 14.375C 10.625 13.684644 11.184644 13.125 11.875 13.125L 14.375 13.125M 29.375 13.125L 31.875 13.125C 32.565353 13.125 33.125 13.684644 33.125 14.375L 33.125 21.875M 24.375 13.125C 24.375 11.744288 23.255713 10.625 21.875 10.625C 20.494287 10.625 19.375 11.744288 19.375 13.125L 16.875 13.125L 16.875 16.875L 26.875 16.875L 26.875 13.125ZM 30.625 21.875L 30.625 16.25C 30.625 15.904821 30.345177 15.625 30 15.625L 26.875 15.625M 16.875 15.625L 13.75 15.625C 13.404822 15.625 13.125 15.904821 13.125 16.25L 13.125 36.25C 13.125 36.595177 13.404822 36.875 13.75 36.875L 22.5 36.875M 16.875 20.623749L 26.875 20.623749M 16.875 24.373749L 24.375 24.373749M 16.875 28.123749L 21.875 28.123749M 24.375 31.873751C 24.375002 36.015888 27.732864 39.373749 31.875 39.373749C 36.017136 39.373749 39.375 36.015888 39.375 31.873751C 39.375 27.731615 36.017136 24.373751 31.875 24.373751C 27.732864 24.373751 24.375002 27.731615 24.375002 31.873751ZM 31.875 28.123749L 31.875 35.623749M 35.625 31.873751L 28.125 31.873751"></path></g></g></g><g id="g-root-dash_92r4w0fv2o7b-stroke" data-item-order="1000000000" data-item-id="dash_92r4w0fv2o7b" data-item-class="Icon Stroke Indexed Indexed_0 InsideFill InsideColorFill" data-item-index="0" data-renderer-id="0" transform="translate(302.47369384765625, 119.52630615234375)"><g id="dash_92r4w0fv2o7b-stroke" fill="none" stroke-linecap="round" stroke-linejoin="round" stroke-miterlimit="4" stroke="#9793ba" stroke-width="2"><g><path d="M 14.5 59.5L 38.5 59.5C 38.5 59.5 41.5 59.5 41.5 62.5L 41.5 77.5C 41.5 77.5 41.5 80.5 38.5 80.5L 14.5 80.5C 14.5 80.5 11.5 80.5 11.5 77.5L 11.5 62.5C 11.5 62.5 11.5 59.5 14.5 59.5M 77.5 80.5L 53.5 80.5C 53.5 80.5 50.5 80.5 50.5 77.5L 50.5 44.5C 50.5 44.5 50.5 41.5 53.5 41.5L 77.5 41.5C 77.5 41.5 80.5 41.5 80.5 44.5L 80.5 77.5C 80.5 77.5 80.5 80.5 77.5 80.5M 77.5 32.5L 53.5 32.5C 53.5 32.5 50.5 32.5 50.5 29.5L 50.5 14.5C 50.5 14.5 50.5 11.5 53.5 11.5L 77.5 11.5C 77.5 11.5 80.5 11.5 80.5 14.5L 80.5 29.5C 80.5 29.5 80.5 32.5 77.5 32.5M 14.5 11.5L 38.5 11.5C 38.5 11.5 41.5 11.5 41.5 14.5L 41.5 47.5C 41.5 47.5 41.5 50.5 38.5 50.5L 14.5 50.5C 14.5 50.5 11.5 50.5 11.5 47.5L 11.5 14.5C 11.5 14.5 11.5 11.5 14.5 11.5"></path></g></g></g><g id="g-root-task_1448vwgfuuakv-stroke" data-item-order="1000000000" data-item-id="task_1448vwgfuuakv" data-item-class="Icon Stroke Indexed InsideFill InsideColorFill" data-item-index="3" data-renderer-id="0" transform="translate(524.4737548828125, 137.52630615234375)"><g id="task_1448vwgfuuakv-stroke" fill="none" stroke-linecap="round" stroke-linejoin="round" stroke-miterlimit="4" stroke="#886AFF" stroke-width="2"><g><path d="M 18.25 35.5L 15.25 35.5C 14.421573 35.5 13.75 34.828426 13.75 34L 13.75 13C 13.75 12.171573 14.421573 11.5 15.25 11.5L 31.75 11.5C 32.578426 11.5 33.25 12.171573 33.25 13L 33.25 16M 22.75 40L 19.75 40C 18.921574 40 18.25 39.328426 18.25 38.5L 18.25 17.5C 18.25 16.671574 18.921574 16 19.75 16L 36.25 16C 37.078426 16 37.75 16.671574 37.75 17.5L 37.75 20.5M 24.25 20.5L 40.75 20.5C 40.75 20.5 42.25 20.5 42.25 22L 42.25 43C 42.25 43 42.25 44.5 40.75 44.5L 24.25 44.5C 24.25 44.5 22.75 44.5 22.75 43L 22.75 22C 22.75 22 22.75 20.5 24.25 20.5M 25.75 26.5L 26.299 27.598C 26.403198 27.807259 26.601786 27.953541 26.832529 27.991009C 27.063274 28.028475 27.297943 27.952539 27.462999 27.786999L 30.25 25M 33.25 26.5L 39.25 26.5M 25.75 34L 26.299 35.098C 26.403198 35.307259 26.601786 35.453541 26.832529 35.491009C 27.063274 35.528473 27.297943 35.452538 27.462999 35.286999L 30.25 32.5M 33.25 34L 39.25 34M 33.25 38.5L 36.25 38.5"></path></g></g></g><g id="g-root-bloc_de7beofuvp4y-stroke" data-item-order="1000000000" data-item-id="bloc_de7beofuvp4y" data-item-class="Icon Stroke Indexed InsideFill InsideColorFill" data-item-index="2" data-renderer-id="0" transform="translate(269.47369384765625, 206.52630615234375)"><g id="bloc_de7beofuvp4y-stroke" fill="none" stroke-linecap="round" stroke-linejoin="round" stroke-miterlimit="4" stroke="#886AFF" stroke-width="2"><g><path d="M 49.200001 51.114498L 38.55825 40.472752L 36.307751 34.510498L 42.27 36.761002L 51.125 45.609001M 35.375 44.133747L 12.625 44.133747C 11.658502 44.133747 10.875 43.35025 10.875 42.383747L 10.875 16.133751C 10.875 15.167252 11.658502 14.38375 12.625 14.38375L 44.125 14.38375C 45.091499 14.38375 45.875 15.167252 45.875 16.133751L 45.875 33.633751M 19.626749 10.8855L 19.626749 17.0105M 37.126751 10.8855L 37.126751 17.0105M 10.87675 21.3855L 45.876747 21.3855M 19.626749 26.6355L 16.126749 30.1355M 19.626749 30.1355L 16.126749 26.6355M 30.126751 26.6355L 26.626751 30.1355M 30.126751 30.1355L 26.626751 26.6355M 40.626747 26.6355L 37.126751 30.1355M 40.626747 30.1355L 37.126751 26.6355M 19.626749 35.385498L 16.126749 38.885502M 19.626749 38.885502L 16.126749 35.385498"></path></g></g></g><g id="g-root-tx_avisualr_18f28owfv5h54-stroke" data-item-order="1000000000" data-item-id="tx_avisualr_18f28owfv5h54" data-item-class="Label Stroke" data-item-index="none" data-renderer-id="0" transform="translate(309.26312255859375, 254)"></g><g id="g-root-tx_streakca_v3lqbkfv5iq2-stroke" data-item-order="1000000000" data-item-id="tx_streakca_v3lqbkfv5iq2" data-item-class="Label Stroke" data-item-index="none" data-renderer-id="0" transform="translate(344, 250)"></g></g></g></svg>