<?xml version="1.0" encoding="utf-8" standalone="yes"?>
<!DOCTYPE svg PUBLIC "-//W3C//DTD SVG 1.1//EN" "http://www.w3.org/Graphics/SVG/1.1/DTD/svg11.dtd">
<svg width="576" height="360" viewBox="0 0 576 360" style="fill:none;stroke:none;fill-rule:evenodd;clip-rule:evenodd;stroke-linecap:round;stroke-linejoin:round;stroke-miterlimit:1.5;" version="1.1" xmlns="http://www.w3.org/2000/svg" xmlns:xlink="http://www.w3.org/1999/xlink"><style id="fontImports">@import url("https://fonts.googleapis.com/css2?family=Roboto:wght@400;700&amp;display=block");</style><g id="items" style="isolation: isolate"><g id="blend" style="mix-blend-mode:normal"><g id="g-root--1.cu_sy_hxrr8nviz9h-fill" data-item-order="999883291" data-item-id="-1.cu_sy_hxrr8nviz9h" data-item-class="Part Stroke" data-item-index="-1" data-renderer-id="0" transform="translate(132.42523193359375, 33.001953125)"></g><g id="g-root-0.cu_sy_924qzrvj026-fill" data-item-order="999883292" data-item-id="0.cu_sy_924qzrvj026" data-item-class="Part Indexed_0 Fill Stroke" data-item-index="0" data-renderer-id="0" transform="translate(223.523193359375, 115.523193359375)"><g id="0.cu_sy_924qzrvj026-fill" stroke="none" fill="#392c6c"><g><path d="M 108.811407 46.112807C 118.953807 70.598107 107.326107 98.669307 82.840807 108.811407C 58.355507 118.953807 30.284307 107.326107 20.142207 82.840807C 10.000007 58.355507 21.627507 30.284307 46.112807 20.142207C 70.598107 10.000007 98.669307 21.627507 108.811407 46.112807Z"></path></g></g></g><g id="g-root-6.cu_sy_18lb92fvj1fo-fill" data-item-order="999883294" data-item-id="6.cu_sy_18lb92fvj1fo" data-item-class="Part Indexed Fill Stroke" data-item-index="6" data-renderer-id="0" transform="translate(172.7615966796875, 10.7615966796875)"><g id="6.cu_sy_18lb92fvj1fo-fill" stroke="none" fill="#392c6c"><g><path d="M 59.405703 28.056403C 64.476803 40.299103 58.663103 54.334603 46.420403 59.405703C 34.177703 64.476803 20.142203 58.663103 15.071103 46.420403C 10.000003 34.177703 15.813703 20.142203 28.056403 15.071103C 40.299103 10.000003 54.334603 15.813703 59.405703 28.056403Z"></path></g></g></g><g id="g-root-5.cu_sy_1d14r6vvj0nf-fill" data-item-order="999883296" data-item-id="5.cu_sy_1d14r6vvj0nf" data-item-class="Part Indexed Fill Stroke" data-item-index="5" data-renderer-id="0" transform="translate(94.7615966796875, 142.7615966796875)"><g id="5.cu_sy_1d14r6vvj0nf-fill" stroke="none" fill="#392c6c"><g><path d="M 28.056403 59.405703C 15.813703 54.334603 10.000003 40.299103 15.071103 28.056403C 20.142203 15.813703 34.177703 10.000003 46.420403 15.071103C 58.663103 20.142203 64.476803 34.177703 59.405703 46.420403C 54.334603 58.663103 40.299103 64.476803 28.056403 59.405703Z"></path></g></g></g><g id="g-root-4.cu_sy_1lwrrfrvizuq-fill" data-item-order="999883298" data-item-id="4.cu_sy_1lwrrfrvizuq" data-item-class="Part Indexed Fill Stroke" data-item-index="4" data-renderer-id="0" transform="translate(172.7615966796875, 274.7615966796875)"><g id="4.cu_sy_1lwrrfrvizuq-fill" stroke="none" fill="#392c6c"><g><path d="M 46.420403 59.405703C 34.177703 64.476803 20.142203 58.663103 15.071103 46.420403C 10.000003 34.177703 15.813703 20.142203 28.056403 15.071103C 40.299103 10.000003 54.334603 15.813703 59.405703 28.056403C 64.476803 40.299103 58.663103 54.334603 46.420403 59.405703Z"></path></g></g></g><g id="g-root-3.cu_sy_1lwrrfrvizup-fill" data-item-order="999883300" data-item-id="3.cu_sy_1lwrrfrvizup" data-item-class="Part Indexed Fill Stroke" data-item-index="3" data-renderer-id="0" transform="translate(328.7615966796875, 274.7615966796875)"><g id="3.cu_sy_1lwrrfrvizup-fill" stroke="none" fill="#392c6c"><g><path d="M 59.405703 46.420403C 54.334603 58.663103 40.299103 64.476803 28.056403 59.405703C 15.813703 54.334603 10.000003 40.299103 15.071103 28.056403C 20.142203 15.813703 34.177703 10.000003 46.420403 15.071103C 58.663103 20.142203 64.476803 34.177703 59.405703 46.420403Z"></path></g></g></g><g id="g-root-2.cu_sy_1qcl9k7viz2g-fill" data-item-order="999883302" data-item-id="2.cu_sy_1qcl9k7viz2g" data-item-class="Part Indexed Fill Stroke" data-item-index="2" data-renderer-id="0" transform="translate(406.7615966796875, 142.7615966796875)"><g id="2.cu_sy_1qcl9k7viz2g-fill" stroke="none" fill="#392c6c"><g><path d="M 59.405703 28.056403C 64.476803 40.299103 58.663103 54.334603 46.420403 59.405703C 34.177703 64.476803 20.142203 58.663103 15.071103 46.420403C 10.000003 34.177703 15.813703 20.142203 28.056403 15.071103C 40.299103 10.000003 54.334603 15.813703 59.405703 28.056403Z"></path></g></g></g><g id="g-root-1.cu_sy_4mb8vbvj0uf-fill" data-item-order="999883304" data-item-id="1.cu_sy_4mb8vbvj0uf" data-item-class="Part Indexed Indexed_1 Fill Stroke" data-item-index="1" data-renderer-id="0" transform="translate(328.7615966796875, 10.7615966796875)"><g id="1.cu_sy_4mb8vbvj0uf-fill" stroke="none" fill="#392c6c"><g><path d="M 28.056403 59.405703C 15.813703 54.334603 10.000003 40.299103 15.071103 28.056403C 20.142203 15.813703 34.177703 10.000003 46.420403 15.071103C 58.663103 20.142203 64.476803 34.177703 59.405703 46.420403C 54.334603 58.663103 40.299103 64.476803 28.056403 59.405703Z"></path></g></g></g><g id="g-root-tx_chatboar_909bqfvj11q-fill" data-item-order="1000000000" data-item-id="tx_chatboar_909bqfvj11q" data-item-class="Label Stroke Indexed" data-item-index="6" data-renderer-id="0" transform="translate(104, 2)"><g id="tx_chatboar_909bqfvj11q-fill" stroke="none" fill="#A3A3A3"><g><text style="font: 20px Roboto, sans-serif; white-space: pre;" font-weight="20px" font-size="Roboto," font-family="sans-serif"><tspan x="21.59" y="34" dominant-baseline="ideographic">Chat </tspan><tspan x="15.4" y="58" dominant-baseline="ideographic">Board</tspan></text></g></g></g><g id="g-root-tx_taskorga_zofanbvj023-fill" data-item-order="1000000000" data-item-id="tx_taskorga_zofanbvj023" data-item-class="Label Stroke Indexed Indexed_1" data-item-index="1" data-renderer-id="0" transform="translate(392, 2)"><g id="tx_taskorga_zofanbvj023-fill" stroke="none" fill="#A3A3A3"><g><text style="font: 20px Roboto, sans-serif; white-space: pre;" font-weight="20px" font-size="Roboto," font-family="sans-serif"><tspan x="12" y="34" dominant-baseline="ideographic">Task</tspan><tspan x="12" y="58" dominant-baseline="ideographic">Flow</tspan></text></g></g></g><g id="g-root-forw_1cvikknvoo3l-fill" data-item-order="1000000000" data-item-id="forw_1cvikknvoo3l" data-item-class="Icon Stroke Indexed InsideFill InsideColorFill" data-item-index="6" data-renderer-id="0" transform="translate(188, 26)"></g><g id="g-root-2_9m7c7vpzwq-fill" data-item-order="1000000000" data-item-id="2_9m7c7vpzwq" data-item-class="Icon Stroke Indexed Indexed_1 InsideFill InsideColorFill" data-item-index="1" data-renderer-id="0" transform="translate(344, 26)"></g><g id="g-root-tx_graphica_1uqjcfbviz9r-fill" data-item-order="1000000000" data-item-id="tx_graphica_1uqjcfbviz9r" data-item-class="Label Stroke Indexed" data-item-index="5" data-renderer-id="0" transform="translate(2, 146)"><g id="tx_graphica_1uqjcfbviz9r-fill" stroke="none" fill="#A3A3A3"><g><text style="font: 20px Roboto, sans-serif; white-space: pre;" font-weight="20px" font-size="Roboto," font-family="sans-serif"><tspan x="32.4" y="34" dominant-baseline="ideographic">Visual </tspan><tspan x="21.27" y="58" dominant-baseline="ideographic">Insights</tspan></text></g></g></g><g id="g-root-char_m980x3vrfnw-fill" data-item-order="1000000000" data-item-id="char_m980x3vrfnw" data-item-class="Icon Stroke Indexed InsideFill InsideColorFill" data-item-index="5" data-renderer-id="0" transform="translate(110, 158)"></g><g id="g-root-1_1uqjfl3vj0n4-fill" data-item-order="1000000000" data-item-id="1_1uqjfl3vj0n4" data-item-class="Icon Stroke Indexed Indexed_0 InsideFill InsideColorFill" data-item-index="0" data-renderer-id="0" transform="translate(254, 146)"></g><g id="g-root-mous_1lz9qxzvq1aj-fill" data-item-order="1000000000" data-item-id="mous_1lz9qxzvq1aj" data-item-class="Icon Stroke Indexed InsideFill InsideColorFill" data-item-index="2" data-renderer-id="0" transform="translate(422, 158)"></g><g id="g-root-tx_streakca_18k2aw7viz9e-fill" data-item-order="1000000000" data-item-id="tx_streakca_18k2aw7viz9e" data-item-class="Label Stroke Indexed" data-item-index="2" data-renderer-id="0" transform="translate(470, 146)"><g id="tx_streakca_18k2aw7viz9e-fill" stroke="none" fill="#A3A3A3"><g><text style="font: 20px Roboto, sans-serif; white-space: pre;" font-weight="20px" font-size="Roboto," font-family="sans-serif"><tspan x="12" y="34" dominant-baseline="ideographic">Streak </tspan><tspan x="12" y="58" dominant-baseline="ideographic">Calendar</tspan></text></g></g></g><g id="g-root-tx_leaderbo_1luwc6fvj0u8-fill" data-item-order="1000000000" data-item-id="tx_leaderbo_1luwc6fvj0u8" data-item-class="Label Stroke Indexed" data-item-index="4" data-renderer-id="0" transform="translate(92, 290)"><g id="tx_leaderbo_1luwc6fvj0u8-fill" stroke="none" fill="#A3A3A3"><g><text style="font: 20px Roboto, sans-serif; white-space: pre;" font-weight="20px" font-size="Roboto," font-family="sans-serif"><tspan x="19.11" y="34" dominant-baseline="ideographic">Leader</tspan><tspan x="27.4" y="58" dominant-baseline="ideographic">Board</tspan></text></g></g></g><g id="g-root-winn_hteisnvrgg5-fill" data-item-order="1000000000" data-item-id="winn_hteisnvrgg5" data-item-class="Icon Stroke Indexed InsideFill InsideColorFill" data-item-index="4" data-renderer-id="0" transform="translate(188, 290)"></g><g id="g-root-dot_24lgnv7ta9-fill" data-item-order="1000000000" data-item-id="dot_24lgnv7ta9" data-item-class="Icon Stroke Indexed InsideFill InsideColorFill" data-item-index="3" data-renderer-id="0" transform="translate(344, 290)"></g><g id="g-root-tx_postfeed_1cz9bxjvj1mx-fill" data-item-order="1000000000" data-item-id="tx_postfeed_1cz9bxjvj1mx" data-item-class="Label Stroke Indexed" data-item-index="3" data-renderer-id="0" transform="translate(392, 290)"><g id="tx_postfeed_1cz9bxjvj1mx-fill" stroke="none" fill="#A3A3A3"><g><text style="font: 20px Roboto, sans-serif; white-space: pre;" font-weight="20px" font-size="Roboto," font-family="sans-serif"><tspan x="12" y="34" dominant-baseline="ideographic">Post</tspan><tspan x="12" y="58" dominant-baseline="ideographic">Feed</tspan></text></g></g></g><g id="g-root--1.cu_sy_hxrr8nviz9h-stroke" data-item-order="999883291" data-item-id="-1.cu_sy_hxrr8nviz9h" data-item-class="Part Stroke" data-item-index="-1" data-renderer-id="0" transform="translate(132.42523193359375, 33.001953125)"><g id="-1.cu_sy_hxrr8nviz9h-stroke" fill="none" stroke-linecap="round" stroke-linejoin="round" stroke-miterlimit="4" stroke="#FFFFFF" stroke-width="2" stroke-dasharray="5.0, 7.0"><g><path d="M 301.1492 125.386947C 278.596 102.928547 221.9224 86.998047 155.5748 86.998047C 89.2272 86.998047 32.5535 102.928547 10.0003 125.386947M 301.1496 168.608847C 278.5966 191.067447 221.9227 206.998047 155.5748 206.998047C 89.2268 206.998047 32.553 191.067447 10 168.608847M 210.102997 10C 179.338597 18.0158 136.951797 59.254 103.613297 116.9979C 71.372697 172.8403 56.731597 228.2929 63.435897 259.6058M 247.713197 34.3878C 254.418697 65.7003 239.777697 121.1542 207.536297 176.9979C 174.196997 234.7433 131.808897 275.9821 101.044297 283.9964M 210.105197 283.9965C 179.340597 275.982 136.952497 234.7433 103.613197 176.998C 71.371897 121.1543 56.730997 65.7005 63.436397 34.388M 101.046397 10C 131.810797 18.0157 174.197797 59.2539 207.536297 116.998C 239.776997 172.8404 254.417897 228.293 247.713597 259.6059"></path></g></g></g><g id="g-root-0.cu_sy_924qzrvj026-stroke" data-item-order="999883292" data-item-id="0.cu_sy_924qzrvj026" data-item-class="Part Indexed_0 Fill Stroke" data-item-index="0" data-renderer-id="0" transform="translate(223.523193359375, 115.523193359375)"><g id="0.cu_sy_924qzrvj026-stroke" fill="none" stroke-linecap="round" stroke-linejoin="round" stroke-miterlimit="4" stroke="#886AFF" stroke-width="2"><g><path d="M 108.811407 46.112807C 118.953607 70.598107 107.326107 98.669307 82.840807 108.811407C 58.355507 118.953607 30.284307 107.326107 20.142207 82.840807C 10.000007 58.355507 21.627507 30.284307 46.112807 20.142207C 70.598107 10.000007 98.669307 21.627507 108.811407 46.112807Z"></path></g></g></g><g id="g-root-6.cu_sy_18lb92fvj1fo-stroke" data-item-order="999883294" data-item-id="6.cu_sy_18lb92fvj1fo" data-item-class="Part Indexed Fill Stroke" data-item-index="6" data-renderer-id="0" transform="translate(172.7615966796875, 10.7615966796875)"><g id="6.cu_sy_18lb92fvj1fo-stroke" fill="none" stroke-linecap="round" stroke-linejoin="round" stroke-miterlimit="4" stroke="#886AFF" stroke-width="2"><g><path d="M 59.405703 28.056403C 64.476803 40.299103 58.663103 54.334603 46.420403 59.405703C 34.177703 64.476803 20.142203 58.663103 15.071103 46.420403C 10.000003 34.177703 15.813703 20.142203 28.056403 15.071103C 40.299103 10.000003 54.334603 15.813703 59.405703 28.056403Z"></path></g></g></g><g id="g-root-5.cu_sy_1d14r6vvj0nf-stroke" data-item-order="999883296" data-item-id="5.cu_sy_1d14r6vvj0nf" data-item-class="Part Indexed Fill Stroke" data-item-index="5" data-renderer-id="0" transform="translate(94.7615966796875, 142.7615966796875)"><g id="5.cu_sy_1d14r6vvj0nf-stroke" fill="none" stroke-linecap="round" stroke-linejoin="round" stroke-miterlimit="4" stroke="#886AFF" stroke-width="2"><g><path d="M 28.056403 59.405703C 15.813703 54.334603 10.000003 40.299103 15.071103 28.056403C 20.142203 15.813703 34.177703 10.000003 46.420403 15.071103C 58.663103 20.142203 64.476803 34.177703 59.405703 46.420403C 54.334603 58.663103 40.299103 64.476803 28.056403 59.405703Z"></path></g></g></g><g id="g-root-4.cu_sy_1lwrrfrvizuq-stroke" data-item-order="999883298" data-item-id="4.cu_sy_1lwrrfrvizuq" data-item-class="Part Indexed Fill Stroke" data-item-index="4" data-renderer-id="0" transform="translate(172.7615966796875, 274.7615966796875)"><g id="4.cu_sy_1lwrrfrvizuq-stroke" fill="none" stroke-linecap="round" stroke-linejoin="round" stroke-miterlimit="4" stroke="#886AFF" stroke-width="2"><g><path d="M 46.420403 59.405703C 34.177703 64.476803 20.142203 58.663103 15.071103 46.420403C 10.000003 34.177703 15.813703 20.142203 28.056403 15.071103C 40.299103 10.000003 54.334603 15.813703 59.405703 28.056403C 64.476803 40.299103 58.663103 54.334603 46.420403 59.405703Z"></path></g></g></g><g id="g-root-3.cu_sy_1lwrrfrvizup-stroke" data-item-order="999883300" data-item-id="3.cu_sy_1lwrrfrvizup" data-item-class="Part Indexed Fill Stroke" data-item-index="3" data-renderer-id="0" transform="translate(328.7615966796875, 274.7615966796875)"><g id="3.cu_sy_1lwrrfrvizup-stroke" fill="none" stroke-linecap="round" stroke-linejoin="round" stroke-miterlimit="4" stroke="#886AFF" stroke-width="2"><g><path d="M 59.405703 46.420403C 54.334603 58.663103 40.299103 64.476803 28.056403 59.405703C 15.813703 54.334603 10.000003 40.299103 15.071103 28.056403C 20.142203 15.813703 34.177703 10.000003 46.420403 15.071103C 58.663103 20.142203 64.476803 34.177703 59.405703 46.420403Z"></path></g></g></g><g id="g-root-2.cu_sy_1qcl9k7viz2g-stroke" data-item-order="999883302" data-item-id="2.cu_sy_1qcl9k7viz2g" data-item-class="Part Indexed Fill Stroke" data-item-index="2" data-renderer-id="0" transform="translate(406.7615966796875, 142.7615966796875)"><g id="2.cu_sy_1qcl9k7viz2g-stroke" fill="none" stroke-linecap="round" stroke-linejoin="round" stroke-miterlimit="4" stroke="#886AFF" stroke-width="2"><g><path d="M 59.405703 28.056403C 64.476803 40.299103 58.663103 54.334603 46.420403 59.405703C 34.177703 64.476803 20.142203 58.663103 15.071103 46.420403C 10.000003 34.177703 15.813703 20.142203 28.056403 15.071103C 40.299103 10.000003 54.334603 15.813703 59.405703 28.056403Z"></path></g></g></g><g id="g-root-1.cu_sy_4mb8vbvj0uf-stroke" data-item-order="999883304" data-item-id="1.cu_sy_4mb8vbvj0uf" data-item-class="Part Indexed Indexed_1 Fill Stroke" data-item-index="1" data-renderer-id="0" transform="translate(328.7615966796875, 10.7615966796875)"><g id="1.cu_sy_4mb8vbvj0uf-stroke" fill="none" stroke-linecap="round" stroke-linejoin="round" stroke-miterlimit="4" stroke="#886AFF" stroke-width="2"><g><path d="M 28.056403 59.405703C 15.813703 54.334603 10.000003 40.299103 15.071103 28.056403C 20.142203 15.813703 34.177703 10.000003 46.420403 15.071103C 58.663103 20.142203 64.476803 34.177703 59.405703 46.420403C 54.334603 58.663103 40.299103 64.476803 28.056403 59.405703Z"></path></g></g></g><g id="g-root-tx_chatboar_909bqfvj11q-stroke" data-item-order="1000000000" data-item-id="tx_chatboar_909bqfvj11q" data-item-class="Label Stroke Indexed" data-item-index="6" data-renderer-id="0" transform="translate(104, 2)"></g><g id="g-root-tx_taskorga_zofanbvj023-stroke" data-item-order="1000000000" data-item-id="tx_taskorga_zofanbvj023" data-item-class="Label Stroke Indexed Indexed_1" data-item-index="1" data-renderer-id="0" transform="translate(392, 2)"></g><g id="g-root-forw_1cvikknvoo3l-stroke" data-item-order="1000000000" data-item-id="forw_1cvikknvoo3l" data-item-class="Icon Stroke Indexed InsideFill InsideColorFill" data-item-index="6" data-renderer-id="0" transform="translate(188, 26)"><g id="forw_1cvikknvoo3l-stroke" fill="none" stroke-linecap="round" stroke-linejoin="round" stroke-miterlimit="4" stroke="#886AFF" stroke-width="2"><g><path d="M 28.75 21.999L 33.25 25.499L 28.75 28.999M 33.25 25.5L 29.75 25.5C 26.436292 25.5 23.75 28.186292 23.75 31.500001L 23.75 33.5M 31.661 20.017C 31.715963 19.680691 31.745713 19.340744 31.750001 19C 31.75 14.305 27.05 10.5 21.25 10.5C 15.45 10.5 10.75 14.306 10.75 19C 10.803285 21.340751 11.91274 23.531724 13.768 24.959999L 11.75 29.5L 17.387 26.9C 18.635734 27.299232 19.939001 27.501655 21.25 27.500001C 21.804941 27.496725 22.359092 27.457643 22.909 27.382999"></path></g></g></g><g id="g-root-2_9m7c7vpzwq-stroke" data-item-order="1000000000" data-item-id="2_9m7c7vpzwq" data-item-class="Icon Stroke Indexed Indexed_1 InsideFill InsideColorFill" data-item-index="1" data-renderer-id="0" transform="translate(344, 26)"><g id="2_9m7c7vpzwq-stroke" fill="none" stroke-linecap="round" stroke-linejoin="round" stroke-miterlimit="4" stroke="#886AFF" stroke-width="2"><g><path d="M 24.5 16L 11.5 16C 11.2 16 11 15.8 11 15.5L 11 13C 11 12.7 11.2 12.5 11.5 12.5L 24.5 12.5C 24.8 12.5 25 12.7 25 13L 25 15.5C 25 15.7 24.8 16 24.5 16ZM 28.5 23.25L 15.5 23.25C 15.2 23.25 15 23.05 15 22.75L 15 20.25C 15 19.95 15.2 19.75 15.5 19.75L 28.5 19.75C 28.8 19.75 29 19.95 29 20.25L 29 22.75C 29 22.95 28.8 23.25 28.5 23.25ZM 32.5 27L 19.5 27C 19.2 27 19 27.2 19 27.5L 19 30C 19 30.3 19.2 30.5 19.5 30.5L 32.5 30.5C 32.8 30.5 33 30.3 33 30L 33 27.5C 33 27.3 32.8 27 32.5 27ZM 22 10.75L 22 33.25"></path></g></g></g><g id="g-root-tx_graphica_1uqjcfbviz9r-stroke" data-item-order="1000000000" data-item-id="tx_graphica_1uqjcfbviz9r" data-item-class="Label Stroke Indexed" data-item-index="5" data-renderer-id="0" transform="translate(2, 146)"></g><g id="g-root-char_m980x3vrfnw-stroke" data-item-order="1000000000" data-item-id="char_m980x3vrfnw" data-item-class="Icon Stroke Indexed InsideFill InsideColorFill" data-item-index="5" data-renderer-id="0" transform="translate(110, 158)"><g id="char_m980x3vrfnw-stroke" fill="none" stroke-linecap="round" stroke-linejoin="round" stroke-miterlimit="4" stroke="#886AFF" stroke-width="2"><g><path d="M 31.428572 33.142857L 12.571428 33.142857C 12.571428 33.142857 10.857142 33.142857 10.857142 31.428572L 10.857142 12.571428C 10.857142 12.571428 10.857142 10.857142 12.571428 10.857142L 31.428572 10.857142C 31.428572 10.857142 33.142857 10.857142 33.142857 12.571428L 33.142857 31.428572C 33.142857 31.428572 33.142857 33.142857 31.428572 33.142857M 15.142858 15.142858L 18.571428 15.142858M 15.142858 19.428572L 22.857143 19.428572M 29.714287 19.428572L 24.571428 28L 18.571428 24.571428L 15.142858 29.714287"></path></g></g></g><g id="g-root-1_1uqjfl3vj0n4-stroke" data-item-order="1000000000" data-item-id="1_1uqjfl3vj0n4" data-item-class="Icon Stroke Indexed Indexed_0 InsideFill InsideColorFill" data-item-index="0" data-renderer-id="0" transform="translate(254, 146)"><g id="1_1uqjfl3vj0n4-stroke" fill="none" stroke-linecap="round" stroke-linejoin="round" stroke-miterlimit="4" stroke="#886AFF" stroke-width="2"><g><path d="M 40.857143 32.285713L 54.57143 32.285713C 54.57143 32.285713 56.285713 32.285713 56.285713 34L 56.285713 54.57143C 56.285713 54.57143 56.285713 56.285713 54.57143 56.285713L 40.857143 56.285713C 40.857143 56.285713 39.142857 56.285713 39.142857 54.57143L 39.142857 34C 39.142857 34 39.142857 32.285713 40.857143 32.285713M 40.857143 11.714286L 54.57143 11.714286C 54.57143 11.714286 56.285713 11.714286 56.285713 13.428572L 56.285713 20.32C 56.285713 20.32 56.285713 22.034286 54.57143 22.034286L 40.857143 22.034286C 40.857143 22.034286 39.142857 22.034286 39.142857 20.32L 39.142857 13.428572C 39.142857 13.428572 39.142857 11.714286 40.857143 11.714286M 13.428572 11.714286L 27.142857 11.714286C 27.142857 11.714286 28.857143 11.714286 28.857143 13.428572L 28.857143 34C 28.857143 34 28.857143 35.714287 27.142857 35.714287L 13.428572 35.714287C 13.428572 35.714287 11.714286 35.714287 11.714286 34L 11.714286 13.428572C 11.714286 13.428572 11.714286 11.714286 13.428572 11.714286M 13.428572 45.965714L 27.142857 45.965714C 27.142857 45.965714 28.857143 45.965714 28.857143 47.68L 28.857143 54.57143C 28.857143 54.57143 28.857143 56.285713 27.142857 56.285713L 13.428572 56.285713C 13.428572 56.285713 11.714286 56.285713 11.714286 54.57143L 11.714286 47.68C 11.714286 47.68 11.714286 45.965714 13.428572 45.965714"></path></g></g></g><g id="g-root-mous_1lz9qxzvq1aj-stroke" data-item-order="1000000000" data-item-id="mous_1lz9qxzvq1aj" data-item-class="Icon Stroke Indexed InsideFill InsideColorFill" data-item-index="2" data-renderer-id="0" transform="translate(422, 158)"><g id="mous_1lz9qxzvq1aj-stroke" fill="none" stroke-linecap="round" stroke-linejoin="round" stroke-miterlimit="4" stroke="#886AFF" stroke-width="2"><g><path d="M 25.918 26.676C 25.917853 27.513368 26.596632 28.192267 27.434 28.192267C 28.271368 28.192267 28.950148 27.513368 28.95 26.676C 28.950148 25.838632 28.271368 25.159733 27.434 25.159733C 26.596632 25.159733 25.917853 25.838632 25.918 26.676M 28.722 20.809L 29.169 22.278C 29.32016 22.785392 29.840593 23.087041 30.356 22.966L 31.844 22.621C 32.423123 22.490568 33.019674 22.752574 33.315456 23.267267C 33.611238 23.781961 33.537268 24.4293 33.133 24.864L 32.091 25.987C 31.731079 26.375443 31.731079 26.975557 32.091 27.364L 33.133 28.488C 33.5379 28.922407 33.612209 29.570061 33.316221 30.084884C 33.020232 30.599707 32.423138 30.86135 31.844001 30.730001L 30.356 30.385C 29.840299 30.264045 29.319741 30.566206 29.169 31.074L 28.722 32.542C 28.551023 33.110453 28.027609 33.499599 27.434001 33.499599C 26.840393 33.499599 26.316979 33.110453 26.146001 32.542001L 25.7 31.074C 25.549259 30.566206 25.028701 30.264045 24.513 30.385L 23.025 30.73C 22.446043 30.860725 21.849483 30.598855 21.553822 30.084204C 21.258162 29.569553 21.33244 28.922296 21.737001 28.488001L 22.778 27.364C 23.137921 26.975557 23.137921 26.375443 22.778 25.987L 21.737 24.864C 21.331513 24.429827 21.256678 23.781936 21.55251 23.266756C 21.848343 22.751576 22.445629 22.489638 23.025001 22.621001L 24.513 22.966C 25.028407 23.087041 25.54884 22.785392 25.7 22.278L 26.147 20.809C 26.318526 20.241383 26.841534 19.853062 27.434501 19.853062C 28.027468 19.853062 28.550477 20.241383 28.722001 20.809001ZM 18.537 30.507C 13.643106 29.481025 10.234138 25.031895 10.516777 20.039607C 10.799416 15.047319 14.688768 11.011384 19.66719 10.544331C 24.645612 10.077278 29.217758 13.319392 30.424001 18.172M 20.213 15.049L 20.213 20.52L 16.566 23.255"></path></g></g></g><g id="g-root-tx_streakca_18k2aw7viz9e-stroke" data-item-order="1000000000" data-item-id="tx_streakca_18k2aw7viz9e" data-item-class="Label Stroke Indexed" data-item-index="2" data-renderer-id="0" transform="translate(470, 146)"></g><g id="g-root-tx_leaderbo_1luwc6fvj0u8-stroke" data-item-order="1000000000" data-item-id="tx_leaderbo_1luwc6fvj0u8" data-item-class="Label Stroke Indexed" data-item-index="4" data-renderer-id="0" transform="translate(92, 290)"></g><g id="g-root-winn_hteisnvrgg5-stroke" data-item-order="1000000000" data-item-id="winn_hteisnvrgg5" data-item-class="Icon Stroke Indexed InsideFill InsideColorFill" data-item-index="4" data-renderer-id="0" transform="translate(188, 290)"><g id="winn_hteisnvrgg5-stroke" fill="none" stroke-linecap="round" stroke-linejoin="round" stroke-miterlimit="4" stroke="#886AFF" stroke-width="2"><g><path d="M 26.5 24L 26.5 14C 26.5 13.447715 26.052285 13 25.5 13L 18.5 13C 17.947715 13 17.5 13.447715 17.5 14L 17.5 20L 11.5 20C 10.947715 20 10.5 20.447715 10.5 21L 10.5 30C 10.5 30.552285 10.947715 31 11.5 31L 32.5 31C 33.052285 31 33.5 30.552285 33.5 30L 33.5 25C 33.5 24.447715 33.052285 24 32.5 24ZM 21 16L 21.5 16C 21.776142 16 22 16.223858 22 16.5L 22 20M 21 20L 23 20M 17.5 20L 17.5 31M 26.5 24L 26.5 31"></path></g></g></g><g id="g-root-dot_24lgnv7ta9-stroke" data-item-order="1000000000" data-item-id="dot_24lgnv7ta9" data-item-class="Icon Stroke Indexed InsideFill InsideColorFill" data-item-index="3" data-renderer-id="0" transform="translate(344, 290)"><g id="dot_24lgnv7ta9-stroke" fill="none" stroke-linecap="round" stroke-linejoin="round" stroke-miterlimit="4" stroke="#886AFF" stroke-width="2"><g><path d="M 16.75 23L 16.75 18.211C 16.873821 16.88052 18.042833 15.895878 19.375 16L 19.375 16C 20.707166 15.895878 21.876178 16.88052 22 18.211L 22 21.5M 22 21.5L 22 18.211C 22.123821 16.88052 23.292833 15.895878 24.625 16L 24.625 16C 25.957166 15.895878 27.126178 16.88052 27.249999 18.211L 27.25 23M 11.344 22.347C 11.29 21.484333 11.259667 20.620333 11.253 19.755C 11.151379 18.030307 11.354485 16.301199 11.853 14.647C 12.594287 12.72147 14.291487 11.326054 16.324 10.971C 18.772639 10.555208 21.26011 10.414667 23.74 10.552C 25.58889 10.551084 27.426392 10.841305 29.185 11.412C 30.703075 12.090211 31.839624 13.410074 32.284999 15.012C 33.044 17.354 32.709 20.342 32.451 22.737C 31.851 28.283 23.651 27.713 19.497 27.286C 18.71 27.205 17.931 27.042 17.145 26.916C 17.068 28.576 17.825 30.308 19.413 30.549C 20.872651 30.702349 22.341467 30.75014 23.807999 30.691999C 24.136784 30.681484 24.463869 30.640305 24.785 30.569001C 25.035805 30.515041 25.297717 30.570678 25.504928 30.721933C 25.71214 30.873188 25.844954 31.105682 25.87 31.361L 25.87 31.419C 25.909 31.803 25.709 32.686 25.352 32.834C 22.986 33.81 19.195 33.605 16.606 32.96C 15.075093 32.599406 13.754204 31.636859 12.942 30.29C 12.218771 28.798532 11.770914 27.188684 11.62 25.537999C 11.5 24.561 11.4 23.33 11.344 22.347Z"></path></g></g></g><g id="g-root-tx_postfeed_1cz9bxjvj1mx-stroke" data-item-order="1000000000" data-item-id="tx_postfeed_1cz9bxjvj1mx" data-item-class="Label Stroke Indexed" data-item-index="3" data-renderer-id="0" transform="translate(392, 290)"></g></g></g></svg>