<?xml version="1.0" encoding="utf-8" standalone="yes"?>
<!DOCTYPE svg PUBLIC "-//W3C//DTD SVG 1.1//EN" "http://www.w3.org/Graphics/SVG/1.1/DTD/svg11.dtd">
<svg width="708" height="456" viewBox="0 0 708 456" style="fill:none;stroke:none;fill-rule:evenodd;clip-rule:evenodd;stroke-linecap:round;stroke-linejoin:round;stroke-miterlimit:1.5;" version="1.1" xmlns="http://www.w3.org/2000/svg" xmlns:xlink="http://www.w3.org/1999/xlink"><style id="fontImports">@import url("https://fonts.googleapis.com/css2?family=Roboto:wght@400;700&amp;display=block");</style><g id="items" style="isolation: isolate"><g id="blend" style="mix-blend-mode:normal"><g id="g-root-4.cu_sy_909boi475o9a-fill" data-item-order="999859844" data-item-id="4.cu_sy_909boi475o9a" data-item-class="Part Indexed Fill Stroke" data-item-index="4" data-renderer-id="0" transform="translate(230, 254.009033203125)"><g id="4.cu_sy_909boi475o9a-fill" stroke="none" fill="#7f6fbf"><g><path d="M 249.12 24.385997C 234.654 30.568997 218.727 33.990997 202 33.990997C 174.985 33.990997 150.056 25.063997 130 9.999997C 109.944 25.063997 85.015 33.990997 58 33.990997C 41.273 33.990997 25.346 30.568997 10.88 24.385997C 10.299 29.172997 10 34.046997 10 38.990997C 10 105.264997 63.726 158.990997 130 158.990997C 196.274 158.990997 250 105.264997 250 38.990997C 250 34.046997 249.701 29.172997 249.12 24.385997Z"></path></g></g></g><g id="g-root-3.cu_sy_hv9uua475qmd-fill" data-item-order="999859846" data-item-id="3.cu_sy_hv9uua475qmd" data-item-class="Part Indexed Fill Stroke" data-item-index="3" data-renderer-id="0" transform="translate(350, 38)"><g id="3.cu_sy_hv9uua475qmd-fill" stroke="none" fill="#6e5eab"><g><path d="M 57.12 144.605C 57.701 139.818 58 134.944 58 130C 58 90.74 39.147 55.884 10 33.991C 30.056 18.927 54.985 10 82 10C 148.274 10 202 63.726 202 130C 202 179.547 171.971 222.081 129.12 240.395C 123.88 197.206 95.696 161.091 57.12 144.605Z"></path></g></g></g><g id="g-root-1.cu_sy_mb3cyq475pu3-fill" data-item-order="999859848" data-item-id="1.cu_sy_mb3cyq475pu3" data-item-class="Part Indexed Indexed_1 Fill Stroke" data-item-index="1" data-renderer-id="0" transform="translate(158, 38)"><g id="1.cu_sy_mb3cyq475pu3-fill" stroke="none" fill="#4b3d81"><g><path d="M 154.88 144.605C 154.299 139.818 154 134.944 154 130C 154 90.74 172.853 55.884 202 33.991C 181.944 18.927 157.015 10 130 10C 63.726 10 10 63.726 10 130C 10 179.547 40.029 222.081 82.88 240.395C 88.12 197.206 116.304 161.091 154.88 144.605Z"></path></g></g></g><g id="g-root-7.cu_sy_4kftk2475p1l-fill" data-item-order="999859850" data-item-id="7.cu_sy_4kftk2475p1l" data-item-class="Part Indexed Fill Stroke" data-item-index="7" data-renderer-id="0" transform="translate(230.8800048828125, 172.60498046875)"><g id="7.cu_sy_4kftk2475p1l-fill" stroke="none" fill="#b4a1fe"><g><path d="M 81.999995 9.999989C 43.423995 26.485989 15.239995 62.600989 9.999995 105.789989C 24.465995 111.972989 40.392995 115.394989 57.119995 115.394989C 84.134995 115.394989 109.063995 106.467989 129.119995 91.403989C 103.643995 72.267989 86.030995 43.227989 81.999995 9.999989Z"></path></g></g></g><g id="g-root-6.cu_sy_4kftk2475p1k-fill" data-item-order="999859852" data-item-id="6.cu_sy_4kftk2475p1k" data-item-class="Part Indexed Fill Stroke" data-item-index="6" data-renderer-id="0" transform="translate(350, 172.60498046875)"><g id="6.cu_sy_4kftk2475p1k-fill" stroke="none" fill="#a290e9"><g><path d="M 57.12 9.999989C 53.089 43.227989 35.476 72.267989 10 91.403989C 30.056 106.467989 54.985 115.394989 82 115.394989C 98.727 115.394989 114.654 111.972989 129.12 105.789989C 123.88 62.600989 95.696 26.485989 57.12 9.999989Z"></path></g></g></g><g id="g-root-2.cu_sy_hv9uua475qmc-fill" data-item-order="999859854" data-item-id="2.cu_sy_hv9uua475qmc" data-item-class="Part Indexed Fill Stroke" data-item-index="2" data-renderer-id="0" transform="translate(302, 61.990997314453125)"><g id="2.cu_sy_hv9uua475qmc-fill" stroke="none" fill="#5c4d96"><g><path d="M 105.12 120.614003C 105.701 115.827003 106 110.953003 106 106.009003C 106 66.749003 87.147 31.893003 58 10.000003C 28.853 31.893003 10 66.749003 10 106.009003C 10 110.953003 10.299 115.827003 10.88 120.614003C 25.346 114.431003 41.273 111.009003 58 111.009003C 74.727 111.009003 90.654 114.431003 105.12 120.614003Z"></path></g></g></g><g id="g-root-5.cu_sy_909boi475o9b-fill" data-item-order="999859856" data-item-id="5.cu_sy_909boi475o9b" data-item-class="Part Indexed Fill Stroke" data-item-index="5" data-renderer-id="0" transform="translate(302.8800048828125, 163)"><g id="5.cu_sy_909boi475o9b-fill" stroke="none" fill="#9180d4"><g><path d="M 104.239995 19.605C 100.207995 52.833 82.595995 81.873 57.119995 101.009C 31.643995 81.873 14.030995 52.833 9.999995 19.605C 24.465995 13.422 40.392995 10 57.119995 10C 73.846995 10 89.773995 13.422 104.239995 19.605Z"></path></g></g></g><g id="g-root-tx_contents_18hkehu475qm8-fill" data-item-order="1000000000" data-item-id="tx_contents_18hkehu475qm8" data-item-class="Label Stroke Indexed ColorStrokeGray" data-item-index="2" data-renderer-id="0" transform="translate(272, 2)"><g id="tx_contents_18hkehu475qm8-fill" stroke="none" fill="#8e8e8e"><g><text style="font: 20px Roboto, sans-serif; white-space: pre;" font-weight="20px" font-size="Roboto," font-family="sans-serif"><tspan x="16.63" y="34" dominant-baseline="ideographic">Content Sharing</tspan></text></g></g></g><g id="g-root-1_meuan6475o94-fill" data-item-order="1000000000" data-item-id="1_meuan6475o94" data-item-class="Icon Stroke Indexed InsideFill InsideColorFill" data-item-index="2" data-renderer-id="0" transform="translate(326, 98)"></g><g id="g-root-tx_creating_zmjvc2475o95-fill" data-item-order="1000000000" data-item-id="tx_creating_zmjvc2475o95" data-item-class="Label Stroke Indexed Indexed_1 ColorStrokeGray" data-item-index="1" data-renderer-id="0" transform="translate(2, 122)"><g id="tx_creating_zmjvc2475o95-fill" stroke="none" fill="#8e8e8e"><g><text style="font: 20px Roboto, sans-serif; white-space: pre;" font-weight="20px" font-size="Roboto," font-family="sans-serif"><tspan x="21.27" y="34" dominant-baseline="ideographic">Creating Posts</tspan></text></g></g></g><g id="g-root-shar_1cvikiq479wy4-fill" data-item-order="1000000000" data-item-id="shar_1cvikiq479wy4" data-item-class="Icon Stroke Indexed Indexed_1 InsideFill InsideColorFill" data-item-index="1" data-renderer-id="0" transform="translate(218, 110)"></g><g id="g-root-page_mg38te475qf5-fill" data-item-order="1000000000" data-item-id="page_mg38te475qf5" data-item-class="Icon Stroke Indexed InsideFill InsideColorFill" data-item-index="3" data-renderer-id="0" transform="translate(434, 110)"></g><g id="g-root-tx_viewingf_1cxdwma475ptz-fill" data-item-order="1000000000" data-item-id="tx_viewingf_1cxdwma475ptz" data-item-class="Label Stroke Indexed ColorStrokeGray" data-item-index="3" data-renderer-id="0" transform="translate(554, 122)"><g id="tx_viewingf_1cxdwma475ptz-fill" stroke="none" fill="#8e8e8e"><g><text style="font: 20px Roboto, sans-serif; white-space: pre;" font-weight="20px" font-size="Roboto," font-family="sans-serif"><tspan x="12" y="34" dominant-baseline="ideographic">Viewing Feed</tspan></text></g></g></g><g id="g-root-hear_1ut1bvm4775e2-fill" data-item-order="1000000000" data-item-id="hear_1ut1bvm4775e2" data-item-class="Icon Stroke Indexed InsideFill InsideColorFill" data-item-index="5" data-renderer-id="0" transform="translate(326, 176)"></g><g id="g-root-1_qu1boi475qmn-fill" data-item-order="1000000000" data-item-id="1_qu1boi475qmn" data-item-class="Icon Stroke Indexed InsideFill InsideColorFill" data-item-index="7" data-renderer-id="0" transform="translate(254, 218)"></g><g id="g-root-coup_v2zluq479x57-fill" data-item-order="1000000000" data-item-id="coup_v2zluq479x57" data-item-class="Icon Stroke Indexed InsideFill InsideColorFill" data-item-index="6" data-renderer-id="0" transform="translate(398, 218)"></g><g id="g-root-tx_activepa_1uo1g0y475qmk-fill" data-item-order="1000000000" data-item-id="tx_activepa_1uo1g0y475qmk" data-item-class="Label Stroke Indexed ColorStrokeGray" data-item-index="7" data-renderer-id="0" transform="translate(98, 266)"><g id="tx_activepa_1uo1g0y475qmk-fill" stroke="none" fill="#8e8e8e"><g><text style="font: 20px Roboto, sans-serif; white-space: pre;" font-weight="20px" font-size="Roboto," font-family="sans-serif"><tspan x="72.94" y="34" dominant-baseline="ideographic">Active </tspan><tspan x="14.72" y="58" dominant-baseline="ideographic">Participation</tspan></text></g></g></g><g id="g-root-tx_recognit_1q8uezm475o91-fill" data-item-order="1000000000" data-item-id="tx_recognit_1q8uezm475o91" data-item-class="Label Stroke Indexed ColorStrokeGray" data-item-index="6" data-renderer-id="0" transform="translate(482, 266)"><g id="tx_recognit_1q8uezm475o91-fill" stroke="none" fill="#8e8e8e"><g><text style="font: 20px Roboto, sans-serif; white-space: pre;" font-weight="20px" font-size="Roboto," font-family="sans-serif"><tspan x="12" y="34" dominant-baseline="ideographic">Recognition of </tspan><tspan x="12" y="58" dominant-baseline="ideographic">Engagement</tspan></text></g></g></g><g id="g-root-2_zpobxe475pty-fill" data-item-order="1000000000" data-item-id="2_zpobxe475pty" data-item-class="Icon Stroke Indexed InsideFill InsideColorFill" data-item-index="4" data-renderer-id="0" transform="translate(326, 302)"></g><g id="g-root-tx_tracking_1hd7eqq475p1q-fill" data-item-order="1000000000" data-item-id="tx_tracking_1hd7eqq475p1q" data-item-class="Label Stroke Indexed ColorStrokeGray" data-item-index="4" data-renderer-id="0" transform="translate(272, 410)"><g id="tx_tracking_1hd7eqq475p1q-fill" stroke="none" fill="#8e8e8e"><g><text style="font: 20px Roboto, sans-serif; white-space: pre;" font-weight="20px" font-size="Roboto," font-family="sans-serif"><tspan x="13.98" y="34" dominant-baseline="ideographic">Tracking Streaks</tspan></text></g></g></g><g id="g-root-4.cu_sy_909boi475o9a-stroke" data-item-order="999859844" data-item-id="4.cu_sy_909boi475o9a" data-item-class="Part Indexed Fill Stroke" data-item-index="4" data-renderer-id="0" transform="translate(230, 254.009033203125)"><g id="4.cu_sy_909boi475o9a-stroke" fill="none" stroke-linecap="round" stroke-linejoin="round" stroke-miterlimit="4" stroke="#FFFFFF" stroke-width="2"><g><path d="M 249.12 24.385997C 234.654 30.568997 218.727 33.990997 202 33.990997C 174.985 33.990997 150.056 25.063997 130 9.999997C 109.944 25.063997 85.015 33.990997 58 33.990997C 41.273 33.990997 25.346 30.568997 10.88 24.385997C 10.299 29.172997 10 34.046997 10 38.990997C 10 105.264997 63.726 158.990997 130 158.990997C 196.274 158.990997 250 105.264997 250 38.990997C 250 34.046997 249.701 29.172997 249.12 24.385997Z"></path></g></g></g><g id="g-root-3.cu_sy_hv9uua475qmd-stroke" data-item-order="999859846" data-item-id="3.cu_sy_hv9uua475qmd" data-item-class="Part Indexed Fill Stroke" data-item-index="3" data-renderer-id="0" transform="translate(350, 38)"><g id="3.cu_sy_hv9uua475qmd-stroke" fill="none" stroke-linecap="round" stroke-linejoin="round" stroke-miterlimit="4" stroke="#FFFFFF" stroke-width="2"><g><path d="M 57.12 144.605C 57.701 139.818 58 134.944 58 130C 58 90.74 39.147 55.884 10 33.991C 30.056 18.927 54.985 10 82 10C 148.274 10 202 63.726 202 130C 202 179.547 171.971 222.081 129.12 240.395C 123.88 197.206 95.696 161.091 57.12 144.605Z"></path></g></g></g><g id="g-root-1.cu_sy_mb3cyq475pu3-stroke" data-item-order="999859848" data-item-id="1.cu_sy_mb3cyq475pu3" data-item-class="Part Indexed Indexed_1 Fill Stroke" data-item-index="1" data-renderer-id="0" transform="translate(158, 38)"><g id="1.cu_sy_mb3cyq475pu3-stroke" fill="none" stroke-linecap="round" stroke-linejoin="round" stroke-miterlimit="4" stroke="#FFFFFF" stroke-width="2"><g><path d="M 154.88 144.605C 154.299 139.818 154 134.944 154 130C 154 90.74 172.853 55.884 202 33.991C 181.944 18.927 157.015 10 130 10C 63.726 10 10 63.726 10 130C 10 179.547 40.029 222.081 82.88 240.395C 88.12 197.206 116.304 161.091 154.88 144.605Z"></path></g></g></g><g id="g-root-7.cu_sy_4kftk2475p1l-stroke" data-item-order="999859850" data-item-id="7.cu_sy_4kftk2475p1l" data-item-class="Part Indexed Fill Stroke" data-item-index="7" data-renderer-id="0" transform="translate(230.8800048828125, 172.60498046875)"><g id="7.cu_sy_4kftk2475p1l-stroke" fill="none" stroke-linecap="round" stroke-linejoin="round" stroke-miterlimit="4" stroke="#FFFFFF" stroke-width="2"><g><path d="M 81.999995 9.999989C 43.423995 26.485989 15.239995 62.600989 9.999995 105.789989C 24.465995 111.972989 40.392995 115.394989 57.119995 115.394989C 84.134995 115.394989 109.063995 106.467989 129.119995 91.403989C 103.643995 72.267989 86.030995 43.227989 81.999995 9.999989Z"></path></g></g></g><g id="g-root-6.cu_sy_4kftk2475p1k-stroke" data-item-order="999859852" data-item-id="6.cu_sy_4kftk2475p1k" data-item-class="Part Indexed Fill Stroke" data-item-index="6" data-renderer-id="0" transform="translate(350, 172.60498046875)"><g id="6.cu_sy_4kftk2475p1k-stroke" fill="none" stroke-linecap="round" stroke-linejoin="round" stroke-miterlimit="4" stroke="#FFFFFF" stroke-width="2"><g><path d="M 57.12 9.999989C 53.089 43.227989 35.476 72.267989 10 91.403989C 30.056 106.467989 54.985 115.394989 82 115.394989C 98.727 115.394989 114.654 111.972989 129.12 105.789989C 123.88 62.600989 95.696 26.485989 57.12 9.999989Z"></path></g></g></g><g id="g-root-2.cu_sy_hv9uua475qmc-stroke" data-item-order="999859854" data-item-id="2.cu_sy_hv9uua475qmc" data-item-class="Part Indexed Fill Stroke" data-item-index="2" data-renderer-id="0" transform="translate(302, 61.990997314453125)"><g id="2.cu_sy_hv9uua475qmc-stroke" fill="none" stroke-linecap="round" stroke-linejoin="round" stroke-miterlimit="4" stroke="#FFFFFF" stroke-width="2"><g><path d="M 105.12 120.614003C 105.701 115.827003 106 110.953003 106 106.009003C 106 66.749003 87.147 31.893003 58 10.000003C 28.853 31.893003 10 66.749003 10 106.009003C 10 110.953003 10.299 115.827003 10.88 120.614003C 25.346 114.431003 41.273 111.009003 58 111.009003C 74.727 111.009003 90.654 114.431003 105.12 120.614003Z"></path></g></g></g><g id="g-root-5.cu_sy_909boi475o9b-stroke" data-item-order="999859856" data-item-id="5.cu_sy_909boi475o9b" data-item-class="Part Indexed Fill Stroke" data-item-index="5" data-renderer-id="0" transform="translate(302.8800048828125, 163)"><g id="5.cu_sy_909boi475o9b-stroke" fill="none" stroke-linecap="round" stroke-linejoin="round" stroke-miterlimit="4" stroke="#FFFFFF" stroke-width="2"><g><path d="M 104.239995 19.605C 100.207995 52.833 82.595995 81.873 57.119995 101.009C 31.643995 81.873 14.030995 52.833 9.999995 19.605C 24.465995 13.422 40.392995 10 57.119995 10C 73.846995 10 89.773995 13.422 104.239995 19.605Z"></path></g></g></g><g id="g-root-tx_contents_18hkehu475qm8-stroke" data-item-order="1000000000" data-item-id="tx_contents_18hkehu475qm8" data-item-class="Label Stroke Indexed ColorStrokeGray" data-item-index="2" data-renderer-id="0" transform="translate(272, 2)"></g><g id="g-root-1_meuan6475o94-stroke" data-item-order="1000000000" data-item-id="1_meuan6475o94" data-item-class="Icon Stroke Indexed InsideFill InsideColorFill" data-item-index="2" data-renderer-id="0" transform="translate(326, 98)"><g id="1_meuan6475o94-stroke" fill="none" stroke-linecap="round" stroke-linejoin="round" stroke-miterlimit="4" stroke="#FFFFFF" stroke-width="2"><g><path d="M 11 40.515999L 11 56.515999M 41 54.515999C 41 51.202293 38.313709 48.516003 35 48.516003L 27.5 48.515999C 27.5 45.202293 24.813709 42.516003 21.5 42.516003L 11 42.515999L 11 54.515999ZM 21.5 48.515999L 29 48.515999M 21 36.515999C 21.019445 34.65937 21.403379 32.824646 22.130001 31.115999C 22.93 29.516001 26.256001 28.416 30.436001 26.868C 31.566 26.450001 31.379999 23.5 30.879999 22.948C 29.268551 21.201832 28.479071 18.850853 28.709999 16.486C 28.565207 14.980259 29.052738 13.482075 30.055944 12.349911C 31.059151 11.217748 32.487778 10.553463 34 10.516C 35.512222 10.553463 36.940849 11.217748 37.944054 12.349911C 38.947262 13.482075 39.434792 14.980259 39.290001 16.486C 39.521515 18.851524 38.731995 21.20335 37.119999 22.950001C 36.620003 23.501999 36.433998 26.452 37.563999 26.870001C 41.743999 28.417999 45.071999 29.524 45.869999 31.118C 46.596622 32.826645 46.980556 34.661373 47 36.517998ZM 41.823997 11C 42.505257 10.681615 43.248013 10.516406 44 10.516C 45.512222 10.553463 46.940845 11.217748 47.944054 12.349911C 48.947262 13.482075 49.434792 14.980259 49.289997 16.486C 49.521515 18.851524 48.731991 21.20335 47.119999 22.950001C 46.619999 23.501999 46.433998 26.452 47.563999 26.870001C 51.743999 28.417999 55.071999 29.524 55.869999 31.118C 56.596622 32.826645 56.980556 34.661373 57 36.517998L 51 36.517998"></path></g></g></g><g id="g-root-tx_creating_zmjvc2475o95-stroke" data-item-order="1000000000" data-item-id="tx_creating_zmjvc2475o95" data-item-class="Label Stroke Indexed Indexed_1 ColorStrokeGray" data-item-index="1" data-renderer-id="0" transform="translate(2, 122)"></g><g id="g-root-shar_1cvikiq479wy4-stroke" data-item-order="1000000000" data-item-id="shar_1cvikiq479wy4" data-item-class="Icon Stroke Indexed Indexed_1 InsideFill InsideColorFill" data-item-index="1" data-renderer-id="0" transform="translate(218, 110)"><g id="shar_1cvikiq479wy4-stroke" fill="none" stroke-linecap="round" stroke-linejoin="round" stroke-miterlimit="4" stroke="#FFFFFF" stroke-width="2"><g><path d="M 27 51L 13 51C 11.895431 51 11 50.104568 11 49L 11 17C 11 15.895431 11.895431 15 13 15L 41 15C 42.104568 15 43 15.895431 43 17L 43 33M 19 19L 19 11M 27 19L 27 11M 35 19L 35 11M 33 46.5C 33 48.985283 35.014717 51 37.5 51C 39.985283 51 42 48.985283 42 46.5C 42 44.014717 39.985283 42 37.5 42C 35.014717 42 33 44.014717 33 46.5ZM 48 52.5C 48 54.985283 50.014717 57 52.5 57C 54.985283 57 57 54.985283 57 52.5C 57 50.014717 54.985283 48 52.5 48C 50.014717 48 48 50.014717 48 52.5ZM 48 37.5C 48 39.985283 50.014717 42 52.5 42C 54.985283 42 57 39.985283 57 37.5C 57 35.014717 54.985283 33 52.5 33C 50.014717 33 48 35.014717 48 37.5ZM 41.349998 44.189999L 48.650002 39.809998M 41.676003 48.169998L 48.324001 50.830002"></path></g></g></g><g id="g-root-page_mg38te475qf5-stroke" data-item-order="1000000000" data-item-id="page_mg38te475qf5" data-item-class="Icon Stroke Indexed InsideFill InsideColorFill" data-item-index="3" data-renderer-id="0" transform="translate(434, 110)"><g id="page_mg38te475qf5-stroke" fill="none" stroke-linecap="round" stroke-linejoin="round" stroke-miterlimit="4" stroke="#FFFFFF" stroke-width="2"><g><path d="M 18.869999 11.826L 36.742001 18.972C 37.501301 19.275349 37.999481 20.010345 38 20.827999L 38 54.523998C 37.998917 55.18692 37.669426 55.806229 37.120255 56.177551C 36.571087 56.54887 35.873611 56.623943 35.257999 56.377998L 19.257999 49.978001C 18.499374 49.674923 18.001335 48.940926 18 48.124001L 18 13.478C 18 12.37343 18.895432 11.478 20 11.478L 48 11.478C 49.104568 11.478 50 12.37343 50 13.478L 50 47.478001C 50 48.582569 49.104568 49.478001 48 49.478001L 44 49.478001M 19.104 11.690001L 42.375999 16.164C 43.318348 16.344378 43.999836 17.168543 44 18.128L 44 51.478001C 44 52.582569 43.104568 53.478001 42 53.478001L 38 53.478001"></path></g></g></g><g id="g-root-tx_viewingf_1cxdwma475ptz-stroke" data-item-order="1000000000" data-item-id="tx_viewingf_1cxdwma475ptz" data-item-class="Label Stroke Indexed ColorStrokeGray" data-item-index="3" data-renderer-id="0" transform="translate(554, 122)"></g><g id="g-root-hear_1ut1bvm4775e2-stroke" data-item-order="1000000000" data-item-id="hear_1ut1bvm4775e2" data-item-class="Icon Stroke Indexed InsideFill InsideColorFill" data-item-index="5" data-renderer-id="0" transform="translate(326, 176)"><g id="hear_1ut1bvm4775e2-stroke" fill="none" stroke-linecap="round" stroke-linejoin="round" stroke-miterlimit="4" stroke="#FFFFFF" stroke-width="2"><g><path d="M 27 34C 27 35.104568 27.89543 36 29 36L 33 36L 33 43L 40 36L 55 36C 56.104568 36 57 35.104568 57 34L 57 13C 57 11.895431 56.104568 11 55 11L 29 11C 27.89543 11 27 11.895431 27 13ZM 12.5 30.5C 12.5 32.985283 14.514719 35 17 35C 19.485281 35 21.5 32.985283 21.5 30.5C 21.5 28.014719 19.485281 26 17 26C 14.514719 26 12.5 28.014719 12.5 30.5M 17 37C 13.686292 37 11 39.686295 11 43L 11 47L 14 47L 15 57L 19 57L 20 47L 23 47L 23 43C 23 39.686295 20.313709 37 17 37ZM 42 31L 35 23C 33.819656 21.695572 33.587425 19.789696 34.419998 18.24L 34.419998 18.24C 34.986404 17.066593 36.088837 16.242596 37.374599 16.031618C 38.660362 15.820642 39.968307 16.24913 40.879997 17.18L 42 18.299999L 43.119999 17.18C 44.031689 16.24913 45.339638 15.820642 46.625401 16.031618C 47.911163 16.242596 49.013592 17.066593 49.580002 18.24L 49.580002 18.24C 50.412571 19.789696 50.18034 21.695572 48.999996 23Z"></path></g></g></g><g id="g-root-1_qu1boi475qmn-stroke" data-item-order="1000000000" data-item-id="1_qu1boi475qmn" data-item-class="Icon Stroke Indexed InsideFill InsideColorFill" data-item-index="7" data-renderer-id="0" transform="translate(254, 218)"><g id="1_qu1boi475qmn-stroke" fill="none" stroke-linecap="round" stroke-linejoin="round" stroke-miterlimit="4" stroke="#FFFFFF" stroke-width="2"><g><path d="M 40.728001 23.334L 42.098 19.972C 42.665504 18.579308 44.2547 17.910534 45.647251 18.47838C 47.039803 19.046227 47.708187 20.635588 47.139999 22.028L 45.77 25.388M 41.658001 35.472L 45.77 25.388C 46.33799 23.996071 47.926678 23.327969 49.318745 23.895618C 50.710815 24.463268 51.379307 26.051792 50.811996 27.443998L 48.756001 32.486M 45.672001 40.049999L 48.756001 32.486C 49.32375 31.093138 50.913139 30.424252 52.306 30.992001C 53.698864 31.55975 54.367748 33.149139 53.799999 34.542L 46.948002 51.341999C 45.056511 55.984032 39.759407 58.213024 35.118 56.32L 29.518 54.035999C 26.639194 52.864338 24.558151 50.303577 24 47.245998C 22.964001 41.507999 22.434 32.538002 22.434 32.538002C 22.195147 31.471094 22.784275 30.39245 23.811024 30.016785C 24.837772 29.641121 25.983913 30.084869 26.49 31.053999L 28.83 38.084L 35.681999 21.284C 36.249504 19.891308 37.838699 19.222534 39.231251 19.79038C 40.623802 20.358227 41.292191 21.947586 40.723999 23.34L 36.612 33.424M 18.964001 43.150002C 17.781378 42.468422 16.768127 41.528328 16 40.400002L 12.582 35.400002C 10.833441 32.836136 10.513709 29.557377 11.734 26.704C 14.032 21.346001 18.534 13.568 18.534 13.568C 18.925449 12.549569 20.010065 11.977929 21.071465 12.230643C 22.132866 12.483358 22.843498 13.482438 22.733999 14.568L 20.813999 21.722L 35.799999 11.476C 37.010464 10.672137 38.638897 10.960779 39.499329 12.131711C 40.359756 13.302644 40.148758 14.942945 39.019997 15.858M 48 11L 48 13M 56 11L 53 14M 55 19L 57 19"></path></g></g></g><g id="g-root-coup_v2zluq479x57-stroke" data-item-order="1000000000" data-item-id="coup_v2zluq479x57" data-item-class="Icon Stroke Indexed InsideFill InsideColorFill" data-item-index="6" data-renderer-id="0" transform="translate(398, 218)"><g id="coup_v2zluq479x57-stroke" fill="none" stroke-linecap="round" stroke-linejoin="round" stroke-miterlimit="4" stroke="#FFFFFF" stroke-width="2"><g><path d="M 38.181999 15.238L 37.599998 14.719999C 37.145935 14.315823 36.8862 13.736894 36.8862 13.129C 36.8862 12.521107 37.145935 11.942178 37.599998 11.538L 37.599998 11.538C 37.990334 11.191546 38.494091 11.000145 39.015999 11L 40.984001 11C 41.505909 11.000145 42.00967 11.191546 42.400002 11.538L 42.400002 11.538C 42.854065 11.942178 43.113804 12.521107 43.113804 13.129C 43.113804 13.736894 42.854065 14.315823 42.400002 14.72L 41.818001 15.238M 15 39C 15 42.313709 17.686291 45 21 45C 24.313709 45 27 42.313709 27 39C 27 35.686295 24.313709 33 21 33C 17.686291 33 15 35.686295 15 39ZM 15.83 35.954002C 18.710327 38.937653 23.136608 39.827209 26.945999 38.188M 54.284 45.287998C 53.485069 43.976749 53.086746 42.460609 53.137997 40.925999L 53.138 39.141998C 53.138 35.752075 50.389923 33.004002 47 33.004002C 43.610077 33.004002 40.862 35.752075 40.862 39.141998L 40.862 40.926003C 40.91325 42.460609 40.514923 43.976749 39.715996 45.287998M 40.862 40.155998C 43.219196 40.152176 45.458691 39.125465 47 37.342003C 48.541309 39.125465 50.780807 40.152176 53.138 40.156002M 41.612 40.120003C 41.889442 42.888142 44.218987 44.995876 47.000999 44.995876C 49.783012 44.995876 52.112556 42.888142 52.389999 40.120003M 21 47C 15.477152 47 11 51.477154 11 57L 31 57C 31 51.477154 26.522848 47 21 47ZM 47 47C 41.477154 47 37 51.477154 37 57L 57 57C 57 51.477154 52.52285 47 47 47ZM 38.599998 28.858C 41.500252 29.450012 44.45937 28.153774 45.990616 25.620554C 47.521862 23.087334 47.294193 19.864792 45.421997 17.57202C 43.549801 15.279248 40.437828 14.411924 37.64962 15.405817C 34.861416 16.39971 32.99976 19.039948 33 22M 31.4 15.142C 28.499752 14.54999 25.540634 15.846228 24.009388 18.379448C 22.478142 20.912666 22.705811 24.13521 24.578005 26.427982C 26.450201 28.720753 29.562174 29.588076 32.35038 28.594183C 35.138588 27.600292 37.000244 24.960054 37 22"></path></g></g></g><g id="g-root-tx_activepa_1uo1g0y475qmk-stroke" data-item-order="1000000000" data-item-id="tx_activepa_1uo1g0y475qmk" data-item-class="Label Stroke Indexed ColorStrokeGray" data-item-index="7" data-renderer-id="0" transform="translate(98, 266)"></g><g id="g-root-tx_recognit_1q8uezm475o91-stroke" data-item-order="1000000000" data-item-id="tx_recognit_1q8uezm475o91" data-item-class="Label Stroke Indexed ColorStrokeGray" data-item-index="6" data-renderer-id="0" transform="translate(482, 266)"></g><g id="g-root-2_zpobxe475pty-stroke" data-item-order="1000000000" data-item-id="2_zpobxe475pty" data-item-class="Icon Stroke Indexed InsideFill InsideColorFill" data-item-index="4" data-renderer-id="0" transform="translate(326, 302)"><g id="2_zpobxe475pty-stroke" fill="none" stroke-linecap="round" stroke-linejoin="round" stroke-miterlimit="4" stroke="#FFFFFF" stroke-width="2"><g><path d="M 57 47C 57 52.522846 52.522846 57 47 57C 41.477154 57 37 52.522846 37 47C 37 41.477154 41.477154 37 47 37M 43 46L 46.240002 48.43C 46.665913 48.749241 47.267254 48.678909 47.608002 48.27L 57 37M 11 37C 11.019445 35.143372 11.403379 33.308643 12.13 31.6C 12.93 30 16.256001 28.9 20.436001 27.351999C 21.566 26.934 21.380001 23.984001 20.880001 23.431999C 19.268551 21.685833 18.479071 19.334854 18.709999 16.969999C 18.565205 15.46426 19.052738 13.966075 20.055944 12.833911C 21.059151 11.701747 22.487778 11.037463 24 11C 25.512222 11.037463 26.940847 11.701747 27.944054 12.833911C 28.947262 13.966075 29.434793 15.46426 29.289999 16.969999C 29.521515 19.335524 28.731993 21.687351 27.119999 23.433998C 26.620001 23.986 26.434 26.936001 27.563999 27.354C 31.743999 28.902 35.071999 30.007999 35.870003 31.601999C 36.596619 33.310646 36.980553 35.14537 37 37.001999ZM 31.823999 11.474C 32.506039 11.159061 33.248764 10.997273 34 11C 35.512222 11.037463 36.940849 11.701747 37.944054 12.833911C 38.947262 13.966075 39.434792 15.46426 39.290001 16.969999C 39.521515 19.335524 38.731995 21.687351 37.119999 23.433998C 36.620003 23.986 36.433998 26.936001 37.563999 27.354C 41.743999 28.902 45.071999 30.007999 45.869999 31.601999C 45.939999 31.743999 46.006001 31.888 46.07 32.035999"></path></g></g></g><g id="g-root-tx_tracking_1hd7eqq475p1q-stroke" data-item-order="1000000000" data-item-id="tx_tracking_1hd7eqq475p1q" data-item-class="Label Stroke Indexed ColorStrokeGray" data-item-index="4" data-renderer-id="0" transform="translate(272, 410)"></g></g></g></svg>