<?xml version="1.0" encoding="utf-8" standalone="yes"?>
<!DOCTYPE svg PUBLIC "-//W3C//DTD SVG 1.1//EN" "http://www.w3.org/Graphics/SVG/1.1/DTD/svg11.dtd">
<svg width="594" height="229" viewBox="0 0 594 229" style="fill:none;stroke:none;fill-rule:evenodd;clip-rule:evenodd;stroke-linecap:round;stroke-linejoin:round;stroke-miterlimit:1.5;" version="1.1" xmlns="http://www.w3.org/2000/svg" xmlns:xlink="http://www.w3.org/1999/xlink"><style id="fontImports">@import url("https://fonts.googleapis.com/css2?family=Roboto:wght@400;700&amp;display=block");</style><g id="items" style="isolation: isolate"><g id="blend" style="mix-blend-mode:normal"><g id="g-root-2.cr-2_cr_1hiti905b9pfv-fill" data-item-order="999953349" data-item-id="2.cr-2_cr_1hiti905b9pfv" data-item-class="Shape Stroke Fill Part Indexed" data-item-index="2" data-renderer-id="0" transform="translate(398, 3)"></g><g id="g-root-1.cr-1_cr_1qegihw5b9on6-fill" data-item-order="999953351" data-item-id="1.cr-1_cr_1qegihw5b9on6" data-item-class="Shape Stroke Fill Part Indexed Indexed_1" data-item-index="1" data-renderer-id="0" transform="translate(74, 3)"></g><g id="g-root-1_8tk45bdwcj-fill" data-item-order="1000000000" data-item-id="1_8tk45bdwcj" data-item-class="Icon Stroke Indexed Indexed_1 InsideFill InsideColorFill" data-item-index="1" data-renderer-id="0" transform="translate(92, 21)"></g><g id="g-root-ligh_1cw4s6c5bdxj8-fill" data-item-order="1000000000" data-item-id="ligh_1cw4s6c5bdxj8" data-item-class="Icon Stroke Indexed Indexed_0" data-item-index="0" data-renderer-id="0" transform="translate(254, 21)"></g><g id="g-root-mult_zlaqw45bdvyd-fill" data-item-order="1000000000" data-item-id="mult_zlaqw45bdvyd" data-item-class="Icon Stroke Indexed InsideFill InsideColorFill" data-item-index="2" data-renderer-id="0" transform="translate(416, 21)"></g><g id="g-root-tx_userscor_93zzxg5b9pmw-fill" data-item-order="1000000000" data-item-id="tx_userscor_93zzxg5b9pmw" data-item-class="Label Stroke Indexed Indexed_1" data-item-index="1" data-renderer-id="0" transform="translate(68, 123)"><g id="tx_userscor_93zzxg5b9pmw-fill" stroke="none" fill="#8b5dff"><g><text style="font: bold 20px Roboto, sans-serif; white-space: pre;" font-weight="bold" font-size="20" font-family="Roboto, sans-serif"><tspan x="15.61" y="34" dominant-baseline="ideographic">User Scores</tspan></text></g></g></g><g id="g-root-tx_complete_1d1r1yc5b9o1y-fill" data-item-order="1000000000" data-item-id="tx_complete_1d1r1yc5b9o1y" data-item-class="Label Stroke Indexed" data-item-index="2" data-renderer-id="0" transform="translate(368, 123)"><g id="tx_complete_1d1r1yc5b9o1y-fill" stroke="none" fill="#9793ba"><g><text style="font: bold 20px Roboto, sans-serif; white-space: pre;" font-weight="bold" font-size="20" font-family="Roboto, sans-serif"><tspan x="16.49" y="34" dominant-baseline="ideographic">Completed Tasks</tspan></text></g></g></g><g id="g-root-tx_reflects_mfgias5b9o1z-fill" data-item-order="1000000000" data-item-id="tx_reflects_mfgias5b9o1z" data-item-class="Label Stroke Indexed Indexed_1" data-item-index="1" data-renderer-id="0" transform="translate(2, 159)"><g id="tx_reflects_mfgias5b9o1z-fill" stroke="none" fill="#FFFFFF"><g><text style="font: 20px Roboto, sans-serif; white-space: pre;" font-weight="20px" font-size="Roboto," font-family="sans-serif"><tspan x="15.95" y="34" dominant-baseline="ideographic">Reflects user performance </tspan><tspan x="58.82" y="58" dominant-baseline="ideographic">and engagement</tspan></text></g></g></g><g id="g-root-tx_indicate_hxrkx05b9ptx-fill" data-item-order="1000000000" data-item-id="tx_indicate_hxrkx05b9ptx" data-item-class="Label Stroke Indexed" data-item-index="2" data-renderer-id="0" transform="translate(332, 159)"><g id="tx_indicate_hxrkx05b9ptx-fill" stroke="none" fill="#FFFFFF"><g><text style="font: 20px Roboto, sans-serif; white-space: pre;" font-weight="20px" font-size="Roboto," font-family="sans-serif"><tspan x="13.32" y="34" dominant-baseline="ideographic">Indicates productivity and </tspan><tspan x="56.16" y="58" dominant-baseline="ideographic">task completion</tspan></text></g></g></g><g id="g-root-2.cr-2_cr_1hiti905b9pfv-stroke" data-item-order="999953349" data-item-id="2.cr-2_cr_1hiti905b9pfv" data-item-class="Shape Stroke Fill Part Indexed" data-item-index="2" data-renderer-id="0" transform="translate(398, 3)"><g id="2.cr-2_cr_1hiti905b9pfv-stroke" fill="none" stroke-linecap="round" stroke-linejoin="round" stroke-miterlimit="4" stroke="#9793ba" stroke-width="2"><g><path d="M 10 64C 10 93.823377 34.176624 118 64 118C 93.823377 118 118 93.823377 118 64C 118 34.176624 93.823377 10 64 10C 34.176624 10 10 34.176624 10 64"></path></g></g></g><g id="g-root-1.cr-1_cr_1qegihw5b9on6-stroke" data-item-order="999953351" data-item-id="1.cr-1_cr_1qegihw5b9on6" data-item-class="Shape Stroke Fill Part Indexed Indexed_1" data-item-index="1" data-renderer-id="0" transform="translate(74, 3)"><g id="1.cr-1_cr_1qegihw5b9on6-stroke" fill="none" stroke-linecap="round" stroke-linejoin="round" stroke-miterlimit="4" stroke="#8b5dff" stroke-width="2"><g><path d="M 10 64C 10 93.823377 34.176624 118 64 118C 93.823377 118 118 93.823377 118 64C 118 34.176624 93.823377 10 64 10C 34.176624 10 10 34.176624 10 64"></path></g></g></g><g id="g-root-1_8tk45bdwcj-stroke" data-item-order="1000000000" data-item-id="1_8tk45bdwcj" data-item-class="Icon Stroke Indexed Indexed_1 InsideFill InsideColorFill" data-item-index="1" data-renderer-id="0" transform="translate(92, 21)"><g id="1_8tk45bdwcj-stroke" fill="none" stroke-linecap="round" stroke-linejoin="round" stroke-miterlimit="4" stroke="#8b5dff" stroke-width="2"><g><path d="M 19.339001 37.759003C 14.626777 36.016956 11.498531 31.523918 11.5 26.5L 11.5 23.5C 11.5 21.843145 12.843145 20.5 14.5 20.5L 24.400002 20.5M 72.660995 37.759003C 77.373222 36.016956 80.501472 31.523918 80.5 26.5L 80.5 23.5C 80.5 21.843145 79.156853 20.5 77.5 20.5L 67.600006 20.5M 47.437 19.861L 50.521 26.5L 56.521 26.5C 57.14196 26.473017 57.712532 26.840282 57.94511 27.416676C 58.177692 27.993069 58.021797 28.653469 57.556 29.065001L 52.348 34.195L 55.234001 40.821999C 55.492992 41.444336 55.326385 42.162529 54.819847 42.607273C 54.313313 43.052021 53.579601 43.124321 52.995998 42.786999L 46.024002 38.865997L 39.052002 42.786999C 38.468395 43.124321 37.734688 43.052021 37.228149 42.607273C 36.721615 42.162529 36.555008 41.444336 36.813999 40.821999L 39.699997 34.195L 34.491997 29.070999C 34.021732 28.660833 33.862404 27.998062 34.094856 27.418962C 34.327305 26.839863 34.900658 26.471189 35.524002 26.5L 41.524002 26.5L 44.611 19.855C 44.884937 19.326826 45.43084 18.995794 46.025826 18.997057C 46.620811 18.99832 47.165302 19.331667 47.436996 19.861ZM 46 56.5L 46 70M 28 80.5C 28 74.700996 36.057999 70 46 70C 55.942001 70 64 74.700996 64 80.5ZM 65.800003 38.59C 64.452995 52.066002 48.285999 62.185001 35.026001 52.917999C 29.872015 49.178284 26.597462 43.383495 26.052999 37.038998L 23.653 13.15C 23.610472 12.726895 23.749523 12.305622 24.035568 11.990972C 24.321613 11.676322 24.727768 11.497868 25.153 11.5L 66.852997 11.5C 67.278236 11.497868 67.684387 11.676322 67.970428 11.990972C 68.256477 12.305622 68.395523 12.726895 68.352997 13.15Z"></path></g></g></g><g id="g-root-ligh_1cw4s6c5bdxj8-stroke" data-item-order="1000000000" data-item-id="ligh_1cw4s6c5bdxj8" data-item-class="Icon Stroke Indexed Indexed_0" data-item-index="0" data-renderer-id="0" transform="translate(254, 21)"><g id="ligh_1cw4s6c5bdxj8-stroke" fill="none" stroke-linecap="round" stroke-linejoin="round" stroke-miterlimit="4" stroke="#FFFFFF" stroke-width="2"><g><path d="M 43.7155 60.25L 41.78965 75.448456C 41.6017 76.932404 43.444153 77.732651 44.395 76.57795C 47.01955 73.3909 50.811699 68.769402 54.856899 63.833954M 69.831848 45.546398C 71.379852 43.654751 72.706451 42.033249 73.705299 40.812103C 74.506447 39.832748 73.809097 38.36335 72.543854 38.36335L 69.158348 38.36335M 25.079649 52.911999L 19.49548 52.911999C 18.223511 52.911999 17.52829 51.428951 18.342926 50.452148L 22.779266 45.132549M 35.112999 30.346449C 39.87685 24.636566 44.504349 19.091724 47.564949 15.428576C 48.525852 14.278646 50.384201 15.095304 50.190849 16.581249L 48.589302 28.888599M 40.897453 54.801849L 46.692249 35.308601C 46.978149 34.346951 46.257702 33.3811 45.254501 33.3811L 42.439301 33.3811C 41.771049 33.3811 41.18335 33.823151 40.9981 34.465149L 36.3946 50.412849C 36.289299 50.77795 35.77 50.772701 35.67205 50.405647L 31.4233 34.494099C 31.2481 33.8377 30.6535 33.3811 29.97415 33.3811L 26.994999 33.3811C 25.99645 33.3811 25.276749 34.338249 25.553949 35.297501L 31.17985 54.7687C 31.7362 56.694099 33.498852 58.019501 35.503002 58.019501L 36.584049 58.019501C 38.575451 58.019501 40.329998 56.710602 40.897453 54.801849ZM 55.995251 52.8979C 54.671501 52.8979 53.315948 52.649349 52.157799 52.296249C 51.212952 52.008099 50.137451 52.530552 49.935249 53.497299L 49.494553 55.60405C 49.356548 56.263451 49.675148 56.93755 50.312199 57.156551C 51.677353 57.6259 53.664398 58.020248 55.7164 58.020248C 62.197296 58.020248 65.500153 54.6562 65.500153 50.398453C 65.500153 47.324951 63.797348 44.9491 59.738503 43.285149C 56.776901 42.0355 55.727348 41.490551 55.727348 40.328049C 55.727348 39.259899 56.758598 38.467899 58.703651 38.467899C 59.83075 38.467899 60.802898 38.636799 61.608551 38.862099C 62.52655 39.118752 63.545498 38.638149 63.765404 37.710701L 64.243744 35.694248C 64.408752 34.998253 64.061646 34.273598 63.381096 34.053402C 62.162048 33.658901 60.618248 33.381851 58.743996 33.381851C 52.776852 33.381851 49.470402 36.687851 49.470402 40.843899C 49.470402 43.873749 51.5695 46.227848 55.602547 47.924351C 58.15675 48.945248 59.221001 49.66465 59.221001 50.874397C 59.221001 52.084152 58.112801 52.8979 55.995251 52.8979Z"></path></g></g></g><g id="g-root-mult_zlaqw45bdvyd-stroke" data-item-order="1000000000" data-item-id="mult_zlaqw45bdvyd" data-item-class="Icon Stroke Indexed InsideFill InsideColorFill" data-item-index="2" data-renderer-id="0" transform="translate(416, 21)"><g id="mult_zlaqw45bdvyd-stroke" fill="none" stroke-linecap="round" stroke-linejoin="round" stroke-miterlimit="4" stroke="#9793ba" stroke-width="2"><g><path d="M 26.5 61L 20.5 61C 18.843145 61 17.5 59.656853 17.5 58L 17.5 16C 17.5 14.343145 18.843145 13 20.5 13L 53.5 13C 55.156857 13 56.5 14.343145 56.5 16L 56.5 22M 35.5 70L 29.5 70C 27.843145 70 26.5 68.656853 26.5 67L 26.5 25C 26.5 23.343145 27.843145 22 29.5 22L 62.5 22C 64.156853 22 65.5 23.343145 65.5 25L 65.5 31M 38.5 31L 71.5 31C 71.5 31 74.5 31 74.5 34L 74.5 76C 74.5 76 74.5 79 71.5 79L 38.5 79C 38.5 79 35.5 79 35.5 76L 35.5 34C 35.5 34 35.5 31 38.5 31M 41.5 43L 42.598 45.195999C 42.806396 45.614517 43.203571 45.907082 43.665058 45.982018C 44.126549 46.05695 44.595886 45.905079 44.925999 45.573997L 50.5 40M 56.5 43L 68.5 43M 41.5 58L 42.598 60.195999C 42.806396 60.614517 43.203571 60.907082 43.665058 60.982018C 44.126549 61.056946 44.595886 60.905075 44.925999 60.573997L 50.5 55M 56.5 58L 68.5 58M 56.5 67L 62.5 67"></path></g></g></g><g id="g-root-tx_userscor_93zzxg5b9pmw-stroke" data-item-order="1000000000" data-item-id="tx_userscor_93zzxg5b9pmw" data-item-class="Label Stroke Indexed Indexed_1" data-item-index="1" data-renderer-id="0" transform="translate(68, 123)"></g><g id="g-root-tx_complete_1d1r1yc5b9o1y-stroke" data-item-order="1000000000" data-item-id="tx_complete_1d1r1yc5b9o1y" data-item-class="Label Stroke Indexed" data-item-index="2" data-renderer-id="0" transform="translate(368, 123)"></g><g id="g-root-tx_reflects_mfgias5b9o1z-stroke" data-item-order="1000000000" data-item-id="tx_reflects_mfgias5b9o1z" data-item-class="Label Stroke Indexed Indexed_1" data-item-index="1" data-renderer-id="0" transform="translate(2, 159)"></g><g id="g-root-tx_indicate_hxrkx05b9ptx-stroke" data-item-order="1000000000" data-item-id="tx_indicate_hxrkx05b9ptx" data-item-class="Label Stroke Indexed" data-item-index="2" data-renderer-id="0" transform="translate(332, 159)"></g></g></g></svg>