<?xml version="1.0" encoding="iso-8859-1"?>
<!-- Uploaded to: SVG Repo, www.svgrepo.com, Generator: SVG Repo Mixer Tools -->
<svg fill="#ffffff" height="800px" width="800px" version="1.1" id="Layer_1" xmlns="http://www.w3.org/2000/svg" xmlns:xlink="http://www.w3.org/1999/xlink" 
	 viewBox="0 0 472.615 472.615" xml:space="preserve">
<g>
	<g>
		<path d="M382.487,373.864h-50.366c-8.376,11.406-21.777,18.91-36.983,18.91H177.45c-15.204,0-28.604-7.504-36.979-18.91h-50.37
			c-10.443,0-18.909,8.465-18.909,18.91v63.422h330.206v-63.422C401.398,382.329,392.932,373.864,382.487,373.864z"/>
	</g>
</g>
<g>
	<g>
		<path d="M467.154,72.184c-7.991-16.241-19.339-25.946-33.729-28.844c-15.474-3.174-31.015,2.636-42.287,8.829
			c0.25-11.53,0.403-23.367,0.453-35.749h-0.733H81.878h-0.751c0.05,12.41,0.203,24.27,0.454,35.825
			C70.298,46.036,54.705,40.179,39.19,43.34C24.8,46.239,13.452,55.943,5.461,72.184c-7.853,15.965-7.225,34.699,1.81,54.19
			c17.333,37.363,64.203,73.604,113.828,88.862c14.113,16.368,33.045,28.82,58.931,36.8c15.179,4.679,26.952,18.023,27.198,33.904
			c0.17,10.916-4.762,23.176-21.523,33.775h-8.257c-14.951,0-27.073,12.124-27.073,27.075c0,14.95,12.122,27.074,27.073,27.074
			h117.69c14.952,0,27.074-12.124,27.074-27.074v-0.003c0-14.95-12.121-27.072-27.072-27.072h-8.129
			c-16.762-10.599-21.692-22.859-21.522-33.775c0.245-15.881,12.018-29.225,27.198-33.904c25.906-7.987,44.847-20.449,58.964-36.839
			c49.575-15.283,96.375-51.491,113.693-88.822C474.379,106.883,475.008,88.149,467.154,72.184z M24.426,118.416
			c-6.643-14.33-7.318-27.072-1.994-37.884C27.76,69.701,34.453,63.597,42.888,61.88c13.951-2.821,30.856,6.888,39.427,13.192
			c1.974,45.684,7.324,83.739,21.434,113.372C68.04,172.264,37.048,145.633,24.426,118.416z M448.189,118.416
			c-12.606,27.182-43.537,53.784-79.189,69.968c14.096-29.639,19.435-67.701,21.406-113.383c8.602-6.305,25.418-15.922,39.322-13.12
			c8.434,1.717,15.129,7.821,20.456,18.652C455.506,91.344,454.833,104.086,448.189,118.416z"/>
	</g>
</g>
</svg>