<?xml version="1.0" encoding="utf-8" standalone="yes"?>
<!DOCTYPE svg PUBLIC "-//W3C//DTD SVG 1.1//EN" "http://www.w3.org/Graphics/SVG/1.1/DTD/svg11.dtd">
<svg width="626" height="254" viewBox="0 0 626 254" style="fill:none;stroke:none;fill-rule:evenodd;clip-rule:evenodd;stroke-linecap:round;stroke-linejoin:round;stroke-miterlimit:1.5;" version="1.1" xmlns="http://www.w3.org/2000/svg" xmlns:xlink="http://www.w3.org/1999/xlink"><style id="fontImports">@import url("https://fonts.googleapis.com/css2?family=Roboto:wght@400;700&amp;display=block");</style><g id="items" style="isolation: isolate"><g id="blend" style="mix-blend-mode:normal"><g id="g-root-3.cu_sy_hte61g4h6o79-fill" data-item-order="999899204" data-item-id="3.cu_sy_hte61g4h6o79" data-item-class="Part Indexed Fill Stroke" data-item-index="3" data-renderer-id="0" transform="translate(399, 135)"><g id="3.cu_sy_hte61g4h6o79-fill" stroke="none" fill="#8546fe"><g><path d="M 208 10C 211.314 10 214 12.686 214 16C 214 19.314 211.314 22 208 22L 202 22L 202 106L 10 106L 10 10L 208 10Z"></path></g></g></g><g id="g-root-2.cu_sy_m8l72s4h6qks-fill" data-item-order="999899206" data-item-id="2.cu_sy_m8l72s4h6qks" data-item-class="Part Indexed Fill Stroke" data-item-index="2" data-renderer-id="0" transform="translate(3, 99)"><g id="2.cu_sy_m8l72s4h6qks-fill" stroke="none" fill="#6336ba"><g><path d="M 16 10C 12.6863 10 10 12.686 10 16C 10 19.314 12.6863 22 16 22L 22 22L 22 142L 214 142L 214 10L 16 10Z"></path></g></g></g><g id="g-root-1.cu_sy_m8l72s4h6qkr-fill" data-item-order="999899208" data-item-id="1.cu_sy_m8l72s4h6qkr" data-item-class="Part Indexed Indexed_1 Fill Stroke" data-item-index="1" data-renderer-id="0" transform="translate(195, 63)"><g id="1.cu_sy_m8l72s4h6qkr-fill" stroke="none" fill="#412576"><g><path d="M 226 16C 226 12.686 223.314 10 220 10L 16 10C 12.686 10 10 12.686 10 16C 10 19.314 12.686 22 16 22L 22 22L 22 178L 214 178L 214 22L 220 22C 223.314 22 226 19.314 226 16Z"></path></g></g></g><g id="g-root-meda_8cwes4hayo2-fill" data-item-order="1000000000" data-item-id="meda_8cwes4hayo2" data-item-class="Icon Stroke Indexed Indexed_1 ColorStrokeGray" data-item-index="1" data-renderer-id="0" transform="translate(279, 3)"></g><g id="g-root-1_1hi6xw44hdrlv-fill" data-item-order="1000000000" data-item-id="1_1hi6xw44hdrlv" data-item-class="Icon Stroke Indexed ColorStrokeGray" data-item-index="2" data-renderer-id="0" transform="translate(87, 39)"></g><g id="g-root-tx_goldmeda_zk1pg44h6ozt-fill" data-item-order="1000000000" data-item-id="tx_goldmeda_zk1pg44h6ozt" data-item-class="Label Stroke Indexed Indexed_1 InsideFill InsideColorFill" data-item-index="1" data-renderer-id="0" transform="translate(249, 75)"><g id="tx_goldmeda_zk1pg44h6ozt-fill" stroke="none" fill="#FFFFFF"><g><text style="font: 20px Roboto, sans-serif; white-space: pre;" font-weight="20px" font-size="Roboto," font-family="sans-serif"><tspan x="13.41" y="34" dominant-baseline="ideographic">Gold Medal</tspan></text></g></g></g><g id="g-root-meda_i0w4k44h9k3z-fill" data-item-order="1000000000" data-item-id="meda_i0w4k44h9k3z" data-item-class="Icon Stroke Indexed ColorStrokeGray" data-item-index="3" data-renderer-id="0" transform="translate(471, 75)"></g><g id="g-root-tx_silverme_1cuvqqc4h6qko-fill" data-item-order="1000000000" data-item-id="tx_silverme_1cuvqqc4h6qko" data-item-class="Label Stroke Indexed InsideFill InsideColorFill" data-item-index="2" data-renderer-id="0" transform="translate(51, 111)"><g id="tx_silverme_1cuvqqc4h6qko-fill" stroke="none" fill="#FFFFFF"><g><text style="font: 20px Roboto, sans-serif; white-space: pre;" font-weight="20px" font-size="Roboto," font-family="sans-serif"><tspan x="15.74" y="34" dominant-baseline="ideographic">Silver Medal</tspan></text></g></g></g><g id="g-root-tx_bronzeme_1q6c93o4h6ozr-fill" data-item-order="1000000000" data-item-id="tx_bronzeme_1q6c93o4h6ozr" data-item-class="Label Stroke Indexed InsideFill InsideColorFill" data-item-index="3" data-renderer-id="0" transform="translate(429, 147)"><g id="tx_bronzeme_1q6c93o4h6ozr-fill" stroke="none" fill="#FFFFFF"><g><text style="font: 20px Roboto, sans-serif; white-space: pre;" font-weight="20px" font-size="Roboto," font-family="sans-serif"><tspan x="15.08" y="34" dominant-baseline="ideographic">Bronze Medal</tspan></text></g></g></g><g id="g-root-3.cu_sy_hte61g4h6o79-stroke" data-item-order="999899204" data-item-id="3.cu_sy_hte61g4h6o79" data-item-class="Part Indexed Fill Stroke" data-item-index="3" data-renderer-id="0" transform="translate(399, 135)"><g id="3.cu_sy_hte61g4h6o79-stroke" fill="none" stroke-linecap="round" stroke-linejoin="round" stroke-miterlimit="4" stroke="#FFFFFF" stroke-width="2"><g><path d="M 208 10C 211.314 10 214 12.686 214 16C 214 19.314 211.314 22 208 22L 202 22L 202 106L 10 106L 10 10L 208 10Z"></path></g></g></g><g id="g-root-2.cu_sy_m8l72s4h6qks-stroke" data-item-order="999899206" data-item-id="2.cu_sy_m8l72s4h6qks" data-item-class="Part Indexed Fill Stroke" data-item-index="2" data-renderer-id="0" transform="translate(3, 99)"><g id="2.cu_sy_m8l72s4h6qks-stroke" fill="none" stroke-linecap="round" stroke-linejoin="round" stroke-miterlimit="4" stroke="#FFFFFF" stroke-width="2"><g><path d="M 16 10C 12.6863 10 10 12.686 10 16C 10 19.314 12.6863 22 16 22L 22 22L 22 142L 214 142L 214 10L 16 10Z"></path></g></g></g><g id="g-root-1.cu_sy_m8l72s4h6qkr-stroke" data-item-order="999899208" data-item-id="1.cu_sy_m8l72s4h6qkr" data-item-class="Part Indexed Indexed_1 Fill Stroke" data-item-index="1" data-renderer-id="0" transform="translate(195, 63)"><g id="1.cu_sy_m8l72s4h6qkr-stroke" fill="none" stroke-linecap="round" stroke-linejoin="round" stroke-miterlimit="4" stroke="#FFFFFF" stroke-width="2"><g><path d="M 226 16C 226 12.686 223.314 10 220 10L 16 10C 12.686 10 10 12.686 10 16C 10 19.314 12.686 22 16 22L 22 22L 22 178L 214 178L 214 22L 220 22C 223.314 22 226 19.314 226 16Z"></path></g></g></g><g id="g-root-meda_8cwes4hayo2-stroke" data-item-order="1000000000" data-item-id="meda_8cwes4hayo2" data-item-class="Icon Stroke Indexed Indexed_1 ColorStrokeGray" data-item-index="1" data-renderer-id="0" transform="translate(279, 3)"><g id="meda_8cwes4hayo2-stroke" fill="none" stroke-linecap="round" stroke-linejoin="round" stroke-miterlimit="4" stroke="#8e8e8e" stroke-width="2"><g><path d="M 20.200001 11L 47.799999 11M 43.417999 20.200001L 24.582001 20.200001M 31.304001 34.318001L 20.200001 11L 13.378 18.799999C 12.661887 19.61841 12.616834 20.826525 13.27 21.695999L 25.4 37.865997M 36.695999 34.318001L 47.799999 11L 54.622002 18.799999C 55.338108 19.61841 55.383163 20.826525 54.729996 21.695999L 42.599998 37.865997M 35.150002 50.099998L 35.150002 42.049999C 35.149998 41.61441 34.903896 41.216209 34.514294 41.021408C 34.124695 40.826607 33.65847 40.868645 33.309998 41.129997L 30.549999 43.200001M 32.849998 50.099998L 37.450001 50.099998M 22.5 45.5C 22.5 51.851276 27.648726 57 34 57C 40.351273 57 45.5 51.851276 45.5 45.5C 45.5 39.148727 40.351273 34 34 34C 27.648726 34 22.5 39.148727 22.5 45.5Z"></path></g></g></g><g id="g-root-1_1hi6xw44hdrlv-stroke" data-item-order="1000000000" data-item-id="1_1hi6xw44hdrlv" data-item-class="Icon Stroke Indexed ColorStrokeGray" data-item-index="2" data-renderer-id="0" transform="translate(87, 39)"><g id="1_1hi6xw44hdrlv-stroke" fill="none" stroke-linecap="round" stroke-linejoin="round" stroke-miterlimit="4" stroke="#8e8e8e" stroke-width="2"><g><path d="M 19 42C 19 50.284271 25.715729 57 34 57C 42.284271 57 49 50.284271 49 42C 49 33.715729 42.284271 27.000002 34 27.000002C 25.715729 27.000002 19 33.715729 19 42ZM 35 11L 25 11C 23.895432 11 23 11.895431 23 13L 23 15.666C 22.999741 15.886501 23.03624 16.105503 23.108 16.313999L 26.084 25M 35 11L 45.042 11C 46.146568 11 47.042 11.895431 47.042 13L 47.042 15.684C 47.042664 15.893267 47.009575 16.101271 46.943996 16.299999L 44.125999 25M 29 11L 29 23M 41 11L 41 23M 35 11L 35 23M 34.944 34.573997L 37 39L 41 39C 41.413235 38.983528 41.792332 39.228237 41.947472 39.611599C 42.102608 39.994961 42.000389 40.434448 41.692001 40.709999L 38.220001 44.130001L 40.143997 48.548C 40.316662 48.962891 40.205589 49.441685 39.867897 49.738182C 39.530205 50.034679 39.041069 50.082882 38.652 49.857998L 34 47.243999L 29.356001 49.858002C 28.96693 50.082882 28.477793 50.034679 28.1401 49.738182C 27.802408 49.441685 27.691338 48.962891 27.864 48.548L 29.788 44.130001L 26.316 40.714001C 26.003189 40.44101 25.896833 40.000263 26.050716 39.614655C 26.204601 39.229042 26.585182 38.98262 27 39L 31 39L 33.057999 34.57C 33.240257 34.216808 33.604774 33.995251 34.00222 33.996094C 34.399662 33.996937 34.763237 34.220039 34.944 34.573997Z"></path></g></g></g><g id="g-root-tx_goldmeda_zk1pg44h6ozt-stroke" data-item-order="1000000000" data-item-id="tx_goldmeda_zk1pg44h6ozt" data-item-class="Label Stroke Indexed Indexed_1 InsideFill InsideColorFill" data-item-index="1" data-renderer-id="0" transform="translate(249, 75)"></g><g id="g-root-meda_i0w4k44h9k3z-stroke" data-item-order="1000000000" data-item-id="meda_i0w4k44h9k3z" data-item-class="Icon Stroke Indexed ColorStrokeGray" data-item-index="3" data-renderer-id="0" transform="translate(471, 75)"><g id="meda_i0w4k44h9k3z-stroke" fill="none" stroke-linecap="round" stroke-linejoin="round" stroke-miterlimit="4" stroke="#8e8e8e" stroke-width="2"><g><path d="M 19 42C 19 50.284271 25.715729 57 34 57C 42.284271 57 49 50.284271 49 42C 49 33.715729 42.284271 27.000002 34 27.000002C 25.715729 27.000002 19 33.715729 19 42ZM 35 11L 25 11C 23.895432 11 23 11.895431 23 13L 23 15.666C 22.999741 15.886501 23.03624 16.105503 23.108 16.313999L 26.084 25M 35 11L 45.042 11C 46.146568 11 47.042 11.895431 47.042 13L 47.042 15.684C 47.042664 15.893267 47.009575 16.101271 46.943996 16.299999L 44.125999 25M 29 11L 29 23M 41 11L 41 23M 35 11L 35 23M 34.944 34.573997L 37 39L 41 39C 41.413235 38.983528 41.792332 39.228237 41.947472 39.611599C 42.102608 39.994961 42.000389 40.434448 41.692001 40.709999L 38.220001 44.130001L 40.143997 48.548C 40.316662 48.962891 40.205589 49.441685 39.867897 49.738182C 39.530205 50.034679 39.041069 50.082882 38.652 49.857998L 34 47.243999L 29.356001 49.858002C 28.96693 50.082882 28.477793 50.034679 28.1401 49.738182C 27.802408 49.441685 27.691338 48.962891 27.864 48.548L 29.788 44.130001L 26.316 40.714001C 26.003189 40.44101 25.896833 40.000263 26.050716 39.614655C 26.204601 39.229042 26.585182 38.98262 27 39L 31 39L 33.057999 34.57C 33.240257 34.216808 33.604774 33.995251 34.00222 33.996094C 34.399662 33.996937 34.763237 34.220039 34.944 34.573997Z"></path></g></g></g><g id="g-root-tx_silverme_1cuvqqc4h6qko-stroke" data-item-order="1000000000" data-item-id="tx_silverme_1cuvqqc4h6qko" data-item-class="Label Stroke Indexed InsideFill InsideColorFill" data-item-index="2" data-renderer-id="0" transform="translate(51, 111)"></g><g id="g-root-tx_bronzeme_1q6c93o4h6ozr-stroke" data-item-order="1000000000" data-item-id="tx_bronzeme_1q6c93o4h6ozr" data-item-class="Label Stroke Indexed InsideFill InsideColorFill" data-item-index="3" data-renderer-id="0" transform="translate(429, 147)"></g></g></g></svg>