<svg width="459" height="472" viewBox="0 0 459 472" fill="none" xmlns="http://www.w3.org/2000/svg">
<path d="M198.201 400.406C227.844 415.7 244.081 432.977 199.13 460.609C164.277 482.038 101.439 475.65 53.335 420.587C-25.3199 330.549 -12.7562 212.259 63.3539 199.281C130.394 187.845 161.225 255.632 149.583 296.489C135.864 344.622 158.894 380.118 198.201 400.406Z" fill="white"/>
<path d="M326.813 95.2054C328.458 94.4635 330.114 92.9492 330.823 91.2829C330.359 91.0883 329.894 90.8937 329.43 90.6991C329.063 92.8702 330.726 94.5912 332.719 95.1446C332.657 94.6824 332.596 94.2202 332.535 93.758C330.279 95.0048 329.913 96.7805 329.179 99.055C329.668 99.1888 330.163 99.3226 330.652 99.4564C331.147 96.7684 329.112 94.2324 326.318 94.2993C325.334 94.3236 325.334 95.844 326.318 95.8197C328.054 95.7771 329.503 97.2975 329.179 99.055C329.002 100.01 330.347 100.405 330.652 99.4564C331.258 97.5833 331.398 96.1237 333.312 95.0656C333.892 94.7432 333.752 93.8493 333.128 93.679C332.04 93.3749 330.683 92.4201 330.903 91.1004C331.031 90.3281 329.87 89.6591 329.509 90.5166C328.886 91.9823 327.492 93.2472 326.049 93.8979C325.15 94.2993 325.927 95.6129 326.813 95.2054Z" fill="#2D2D2F"/>
<path d="M189.233 92.0127C190.878 91.2708 192.535 89.7565 193.244 88.0901C192.779 87.8955 192.314 87.7009 191.85 87.5063C191.483 89.6774 193.146 91.3985 195.139 91.9519C195.078 91.4897 195.017 91.0275 194.955 90.5653C192.7 91.812 192.333 93.5878 191.599 95.8623C192.088 95.9961 192.583 96.1299 193.072 96.2637C193.568 93.5756 191.532 91.0397 188.738 91.1066C187.754 91.1309 187.754 92.6512 188.738 92.6269C190.474 92.5844 191.923 94.1047 191.599 95.8623C191.422 96.8171 192.767 97.2124 193.072 96.2637C193.678 94.3906 193.818 92.931 195.732 91.8728C196.313 91.5505 196.172 90.6565 195.548 90.4862C194.46 90.1822 193.103 89.2274 193.323 87.9077C193.452 87.1353 192.29 86.4664 191.929 87.3239C191.306 88.7895 189.912 90.0545 188.469 90.7052C187.571 91.1005 188.347 92.4141 189.233 92.0127Z" fill="#2D2D2F"/>
<path d="M366.134 28.0902C367.778 27.3483 369.435 25.834 370.144 24.1676C369.679 23.973 369.215 23.7784 368.75 23.5838C368.383 25.7549 370.046 27.476 372.039 28.0294C371.978 27.5672 371.917 27.105 371.856 26.6428C369.6 27.8895 369.233 29.6653 368.499 31.9398C368.988 32.0736 369.484 32.2074 369.973 32.3412C370.468 29.6531 368.432 27.1172 365.638 27.1841C364.654 27.2084 364.654 28.7288 365.638 28.7044C367.375 28.6619 368.823 30.1822 368.499 31.9398C368.322 32.8946 369.667 33.2899 369.973 32.3412C370.578 30.4681 370.719 29.0085 372.632 27.9503C373.213 27.628 373.072 26.734 372.449 26.5638C371.36 26.2597 370.003 25.3049 370.223 23.9852C370.352 23.2129 369.19 22.5439 368.83 23.4014C368.206 24.867 366.812 26.132 365.369 26.7827C364.471 27.178 365.247 28.4916 366.134 28.0902Z" fill="#2D2D2F"/>
<path d="M264.514 119.231C264.514 119.231 264.172 118.974 270.55 118.803C276.921 118.633 282.499 120.384 282.499 120.384L279.551 111.249L278.026 101.295C278.026 101.295 274.663 106.598 271.746 110.01C268.176 114.184 263.153 115.148 263.153 115.148L264.514 119.231Z" fill="white"/>
<path opacity="0.2" d="M264.514 119.231C264.514 119.231 264.172 118.974 270.55 118.803C276.921 118.633 282.499 120.384 282.499 120.384L279.551 111.249L278.026 101.295C278.026 101.295 274.663 106.598 271.746 110.01C268.176 114.184 263.153 115.148 263.153 115.148L264.514 119.231Z" fill="#E26832"/>
<path d="M238.212 275.954C251.888 280.702 265.32 286.096 278.911 291.064C279.833 291.399 280.236 289.929 279.314 289.593C265.723 284.626 252.285 279.225 238.615 274.483C237.687 274.16 237.284 275.631 238.212 275.954Z" fill="#2D2D2F"/>
<path d="M279.741 290.612C293.631 281.398 308.534 273.428 323.455 266.019C324.334 265.58 323.565 264.268 322.686 264.701C307.765 272.116 292.862 280.079 278.972 289.294C278.154 289.831 278.917 291.155 279.741 290.612Z" fill="#2D2D2F"/>
<path d="M236.679 262.834C245.467 266.434 254.371 269.73 263.336 272.86C267.401 274.276 271.539 275.545 275.579 277.034C281.163 279.091 282.811 284.98 278.935 289.654C278.313 290.405 279.387 291.491 280.015 290.734C282.31 287.964 283.348 284.174 282.042 280.714C280.406 276.394 275.811 275.551 271.911 274.209C260.206 270.193 248.549 266.056 237.088 261.363C236.179 260.991 235.782 262.468 236.679 262.834Z" fill="#2D2D2F"/>
<path d="M280.107 278.188C293.954 270.67 307.936 263.359 321.258 254.931C322.088 254.406 321.319 253.088 320.489 253.613C307.167 262.041 293.179 269.351 279.338 276.87C278.471 277.34 279.24 278.658 280.107 278.188Z" fill="#2D2D2F"/>
<path d="M236.856 262.016C239.059 260.692 241.256 259.349 243.459 258.025C244.302 257.519 243.533 256.201 242.691 256.707C240.487 258.031 238.29 259.374 236.087 260.698C235.245 261.205 236.014 262.523 236.856 262.016Z" fill="#2D2D2F"/>
<path d="M238.054 264.25C239.042 267.74 239.329 271.127 239.213 274.74C239.183 275.722 240.708 275.722 240.739 274.74C240.861 270.993 240.55 267.459 239.525 263.841C239.256 262.901 237.785 263.298 238.054 264.25Z" fill="#2D2D2F"/>
<path d="M238.67 256.255C252.45 260.661 266.09 265.476 279.778 270.144C280.157 270.273 280.633 269.998 280.718 269.614C281.603 265.665 281.243 261.455 279.919 257.647C279.595 256.725 278.124 257.122 278.448 258.049C279.687 261.601 280.077 265.519 279.247 269.205C279.559 269.028 279.876 268.851 280.187 268.674C266.499 264.005 252.859 259.191 239.079 254.785C238.139 254.479 237.742 255.956 238.67 256.255Z" fill="#2D2D2F"/>
<path d="M238.426 245.765C251.778 249.884 265.174 253.9 278.436 258.3C279.369 258.611 279.772 257.134 278.838 256.829C265.577 252.435 252.175 248.42 238.828 244.295C237.895 244.002 237.492 245.472 238.426 245.765Z" fill="#2D2D2F"/>
<path d="M280.357 270.047C293.856 262.504 307.923 256.072 321.667 248.994C322.54 248.542 321.771 247.224 320.898 247.675C307.161 254.754 293.088 261.186 279.588 268.729C278.728 269.211 279.497 270.529 280.357 270.047Z" fill="#2D2D2F"/>
<path d="M280.302 258.172C287.278 254.657 294.253 251.135 301.229 247.62C304.628 245.906 308.027 244.191 311.421 242.482C313.215 241.579 316.553 239.101 318.61 240.682C320.459 242.098 320.758 245.57 320.465 247.614C320.325 248.572 321.795 248.987 321.936 248.017C322.381 244.941 321.746 240.92 319.012 238.949C316.248 236.966 311.988 240.487 309.577 241.701C299.563 246.748 289.548 251.801 279.527 256.847C278.655 257.293 279.423 258.611 280.302 258.172Z" fill="#2D2D2F"/>
<path d="M317.737 238.32C304.567 234.903 291.574 230.375 278.71 225.963C277.776 225.645 277.379 227.116 278.307 227.433C291.172 231.846 304.165 236.374 317.334 239.791C318.286 240.035 318.689 238.564 317.737 238.32Z" fill="#2D2D2F"/>
<path d="M239.219 245.625C244.18 242.69 249.789 240.591 255.037 238.247C262.983 234.69 270.953 231.181 278.887 227.592C279.778 227.19 279.003 225.872 278.118 226.274C270.184 229.863 262.214 233.372 254.268 236.929C249.02 239.279 243.411 241.378 238.45 244.307C237.608 244.808 238.377 246.126 239.219 245.625Z" fill="#2D2D2F"/>
<path d="M321.887 254.937C322.564 254.638 324.004 259.264 324.108 259.752C324.297 260.643 324.73 264.61 322.802 264.451C322.869 264.951 322.936 265.452 323.003 265.952C323.095 265.922 323.186 265.891 323.272 265.861C324.187 265.525 323.791 264.048 322.869 264.39C322.778 264.427 322.692 264.457 322.601 264.482C321.765 264.756 321.948 265.91 322.802 265.983C325.457 266.196 326.043 262.132 325.756 260.338C325.469 258.538 323.998 252.356 321.112 253.625C320.22 254.01 320.996 255.328 321.887 254.937Z" fill="#2D2D2F"/>
<path d="M315.674 251.77C316.541 252.222 317.542 252.35 318.469 252.637C319.678 253.009 320.843 253.467 321.985 254.004C322.87 254.419 323.645 253.101 322.754 252.686C321.759 252.222 320.752 251.795 319.714 251.441C318.671 251.081 317.42 250.965 316.443 250.458C315.577 250 314.808 251.312 315.674 251.77Z" fill="#2D2D2F"/>
<path d="M239.871 246.241C239.889 249.463 240.109 252.686 240.262 255.908C240.311 256.884 241.837 256.89 241.788 255.908C241.635 252.692 241.416 249.463 241.397 246.241C241.391 245.265 239.865 245.259 239.871 246.241Z" fill="#2D2D2F"/>
<path d="M265.985 124.985C265.985 124.985 253.633 125.467 244.644 126.59C235.66 127.713 228.923 130.282 228.923 130.282L229.405 192.21L255.879 199.271C255.879 199.271 271.6 183.709 278.82 182.904C286.039 182.104 290.372 182.104 290.372 182.104C290.372 182.104 293.9 186.596 295.346 189.482C296.792 192.369 296.951 194.614 296.951 194.614L290.213 202.474C290.213 202.474 290.213 207.448 295.346 208.729C300.478 210.011 309.144 207.93 309.144 207.93C309.144 207.93 311.756 214.179 319.342 217.34C334.679 223.717 361.653 214.411 366.871 193.827C372.028 173.482 346.524 153.71 342.838 150.658C339.152 147.607 317.969 132.851 299.838 127.878C281.706 122.904 283.793 124.351 283.793 124.351C283.793 124.351 280.907 128.36 275.774 127.56C270.642 126.761 265.985 124.985 265.985 124.985Z" fill="#E26832"/>
<path d="M201.936 291.741L159.778 411.942C159.778 411.942 172.588 418.349 176.329 423.42C180.064 428.491 184.336 432.763 184.336 432.763L192.343 414.883L254.53 360.968L260.938 312.123L201.936 291.741Z" fill="white"/>
<path d="M280.565 344.345L303.176 326.312C303.176 326.312 283.427 318.299 283.427 319.44C283.427 320.588 280.565 344.345 280.565 344.345Z" fill="white"/>
<path opacity="0.2" d="M201.936 291.741L159.778 411.942C159.778 411.942 172.588 418.349 176.329 423.42C180.064 428.491 184.336 432.763 184.336 432.763L192.343 414.883L254.53 360.968L260.938 312.123L201.936 291.741Z" fill="#E26832"/>
<path opacity="0.2" d="M280.565 344.345L303.176 326.312C303.176 326.312 283.427 318.299 283.427 319.44C283.427 320.588 280.565 344.345 280.565 344.345Z" fill="#E26832"/>
<path d="M240.939 75.189C239.304 89.8532 248.519 105.25 259.486 114.403C263.629 117.864 269.238 114.007 272.381 110.815C276.879 106.257 279.918 100.148 281.639 94.0273C281.907 93.0814 280.43 92.6787 280.168 93.6246C278.661 99.0008 276.104 104.298 272.424 108.533C270.617 110.608 268.487 112.487 265.924 113.549C264.008 114.342 262.397 114.605 260.566 113.329C259.327 112.463 258.21 111.12 257.16 110.028C248.342 100.856 241 88.3398 242.465 75.189C242.575 74.2126 241.049 74.2187 240.939 75.189Z" fill="#2D2D2F"/>
<path d="M277.629 100.533C277.458 104.469 278.667 108.521 279.71 112.274C280.845 116.362 282.188 120.384 283.476 124.43C283.769 125.364 285.245 124.967 284.946 124.027C283.744 120.244 282.493 116.484 281.407 112.664C280.308 108.795 278.984 104.603 279.155 100.539C279.198 99.5501 277.672 99.5501 277.629 100.533Z" fill="#2D2D2F"/>
<path d="M262.018 80.3884C262.311 81.6577 262.671 83.3176 263.684 84.2269C264.41 84.8798 265.497 83.8058 264.764 83.1467C263.965 82.4266 263.721 80.9804 263.489 79.9796C263.269 79.0276 261.798 79.4303 262.018 80.3884Z" fill="#2D2D2F"/>
<path d="M248.629 83.2932C248.714 84.8493 249.398 86.2468 250.356 87.449C250.966 88.2179 252.04 87.1316 251.436 86.3688C250.747 85.5023 250.216 84.416 250.161 83.2932C250.106 82.3168 248.574 82.3107 248.629 83.2932Z" fill="#2D2D2F"/>
<path d="M259.919 103.95C262.513 104.457 265.113 103.334 266.467 101.045C266.968 100.197 265.65 99.4281 265.149 100.276C264.161 101.948 262.244 102.852 260.322 102.479C259.364 102.29 258.955 103.761 259.919 103.95Z" fill="#2D2D2F"/>
<path d="M254.024 61.123C254.591 66.8105 257.429 71.9183 261.902 75.4821C264.008 77.1603 266.431 78.4479 269.024 79.1985C271.893 80.0345 278.05 78.9605 279.857 81.5296C280.705 82.7379 280.382 84.9043 280.388 86.314C280.4 88.4315 280.186 90.5796 280.308 92.6972C280.455 95.3762 281.608 97.4754 283.256 99.5502C285.667 102.577 287.76 105.165 288.749 109.021C289.859 113.36 289.56 117.797 288.144 122.013C287.845 122.904 289.054 123.228 289.536 122.599C294.589 116.039 293.954 107.099 291.446 99.6479C291.135 98.7203 289.658 99.117 289.975 100.051C292.368 107.16 293.045 115.563 288.218 121.83C288.681 122.026 289.145 122.221 289.609 122.416C291.702 116.198 291.495 108.741 287.943 103.053C286.131 100.148 282.963 97.8782 282.078 94.4608C281.145 90.8725 282.274 86.8876 281.84 83.2139C281.102 76.8857 273.858 79.0215 269.427 77.7278C261.988 75.5614 256.318 68.8243 255.549 61.123C255.452 60.1588 253.926 60.1466 254.024 61.123Z" fill="#2D2D2F"/>
<path d="M291.507 99.6601C289.976 93.3745 295.669 86.3262 298.709 81.3038C301.986 75.8848 304.555 71.0212 304.397 64.5526C304.213 56.9794 301.937 49.2903 297.177 43.316C293.57 38.7879 286.668 34.6443 280.766 34.5772C279.784 34.565 279.784 36.0906 280.766 36.1028C287.687 36.1761 294.766 41.7354 298.153 47.4107C301.943 53.7634 304.354 63.1429 302.383 70.4719C300.808 76.3181 296.676 81.4381 293.729 86.6374C291.483 90.5979 288.889 95.37 290.03 100.063C290.269 101.021 291.739 100.612 291.507 99.6601Z" fill="#2D2D2F"/>
<path d="M246.688 96.6211C240.359 95.8094 240.829 89.3347 237.82 84.9898C236.221 82.683 233.878 81.1269 232.67 78.5272C231.315 75.6103 231.077 72.2539 231.29 69.0867C231.718 62.8317 234.091 56.4912 238.168 51.7008C241.799 47.4352 246.73 44.6707 251.619 42.1016C252.485 41.6439 251.716 40.3258 250.85 40.7835C245.296 43.7005 239.84 46.9165 235.983 51.9998C231.986 57.2723 229.765 64.1193 229.704 70.7283C229.673 73.6453 230.094 76.6477 231.357 79.3023C232.92 82.5854 236.105 84.5443 237.71 87.8152C238.894 90.2196 239.261 93.1488 240.878 95.3273C242.3 97.2496 244.405 97.8538 246.688 98.1467C247.658 98.2748 247.652 96.7492 246.688 96.6211Z" fill="#2D2D2F"/>
<path d="M251.638 40.6674C248.36 38.4217 244.796 36.0967 244.07 31.8799C243.423 28.1269 244.967 24.4044 247.317 21.5179C251.65 16.2026 258.583 13.0477 265.253 12.0225C271.472 11.0644 279.436 10.6738 283.073 16.8556C284.629 19.498 285.587 22.2685 285.349 25.3869C285.069 29.0789 282.744 31.8555 280.162 34.2965C279.448 34.9738 280.528 36.0479 281.242 35.3766C286.753 30.1651 288.614 23.6599 284.776 16.7641C280.846 9.70962 273.04 9.4228 265.766 10.4236C257.557 11.5465 248.556 15.7022 244.339 23.1961C242.605 26.2717 241.824 29.9393 242.837 33.3872C244.021 37.3965 247.597 39.746 250.869 41.9856C251.68 42.5409 252.443 41.2228 251.638 40.6674Z" fill="#2D2D2F"/>
<path d="M296.42 193.968C293.381 196.268 291.135 199.216 288.858 202.237C285.752 206.356 282.524 210.383 279.161 214.295C277.702 215.991 276.219 217.67 274.712 219.323C273.254 220.928 271.233 223.974 269.348 225.029C269.085 225.298 268.829 225.56 268.567 225.829C267.352 225.554 267.12 224.816 267.859 223.632C268.2 222.436 268.884 221.203 269.409 220.068C270.471 217.767 271.539 215.467 272.601 213.16C272.942 212.415 272.045 211.573 271.404 212.238C266.785 216.974 262.995 223.369 257.417 227.049C256.269 227.806 254.664 228.923 255.073 226.744C255.384 225.078 256.849 223.296 257.765 221.947C260.523 217.877 263.477 213.953 266.583 210.151C267.212 209.383 266.278 208.473 265.503 209.071C262.561 211.36 259.62 213.642 256.788 216.065C255.519 217.151 254.268 218.268 253.053 219.415C252.376 220.056 251.711 220.703 251.058 221.362C250.014 222.423 249.996 223.284 248.476 222.308C247.011 221.374 247.634 221.307 248.537 219.995C248.97 219.372 249.404 218.75 249.849 218.133C251.137 216.333 252.455 214.557 253.816 212.812C256.147 209.816 258.601 206.917 261.133 204.086C261.792 203.347 260.792 202.359 260.053 203.005C257.533 205.208 255.012 207.411 252.492 209.608C251.308 210.646 250.118 211.683 248.934 212.714C248.256 213.306 247.475 214.228 246.712 214.655C246.413 214.911 246.12 215.174 245.821 215.43C245.01 214.924 244.198 214.423 243.386 213.917C243.087 212.94 245.986 210.06 246.517 209.431C247.561 208.193 248.653 206.996 249.776 205.831C251.912 203.628 254.17 201.547 256.489 199.539C261.231 195.432 266.107 191.392 271.093 187.591C276.403 183.539 283.933 182.056 290.506 182.971C291.464 183.105 291.879 181.635 290.909 181.5C283.817 180.512 275.908 182.007 270.159 186.382C263.153 191.716 256.08 197.385 249.831 203.603C248 205.428 237.534 214.893 243.429 217.523C245.748 218.561 248.128 215.436 249.562 214.185C253.419 210.817 257.27 207.448 261.127 204.086C260.767 203.726 260.407 203.365 260.047 203.005C256.459 207.015 253.053 211.177 249.861 215.515C248.452 217.432 243.466 222.332 246.09 225.011C248.58 227.55 251.857 222.68 253.322 221.258C257.459 217.23 262.024 213.685 266.577 210.145C266.217 209.785 265.857 209.425 265.497 209.065C263.959 210.951 249.233 228.691 254.695 229.637C257.478 230.119 260.834 226.256 262.445 224.565C265.924 220.934 268.963 216.907 272.472 213.306C272.076 213.001 271.673 212.69 271.276 212.385C269.982 215.18 268.67 217.969 267.401 220.77C266.638 222.442 265.698 224.346 266.162 226.238C267.261 230.747 272.076 224.401 273.131 223.272C277.348 218.786 281.395 214.136 285.252 209.34C289.054 204.61 292.313 198.972 297.195 195.28C297.964 194.7 297.207 193.376 296.42 193.968Z" fill="#2D2D2F"/>
<path d="M284.215 125.162C309.773 129.983 333.788 140.864 351.681 160.111C355.44 164.151 358.889 168.471 362.044 172.999C365.534 178.01 366.596 183.203 366.224 189.305C365.821 195.951 363.612 200.888 359.346 205.934C355.831 210.09 351.681 213.599 346.561 215.582C334.361 220.306 318.03 220.721 310.444 208.278C309.932 207.442 308.614 208.205 309.126 209.047C316.065 220.434 328.497 221.209 340.403 218.878C345.676 217.847 350.625 215.906 354.848 212.537C359.242 209.028 363.905 203.994 365.913 198.666C367.963 193.229 368.336 186.834 367.341 181.14C366.346 175.453 362.666 171.022 359.188 166.58C351.413 156.639 342.039 148.01 331.371 141.254C317.164 132.253 301.083 126.798 284.617 123.692C283.659 123.508 283.25 124.979 284.215 125.162Z" fill="#2D2D2F"/>
<path d="M314.637 204.69C310.151 207.247 305.324 208.516 300.167 208.51C300.423 208.766 300.674 209.016 300.93 209.273C300.814 199.039 297.445 189.257 291.184 181.152C291.031 181.525 290.879 181.897 290.726 182.275C294.101 180.884 297.921 179.773 301.601 180.158C305.538 180.567 308.327 183.404 310.408 186.559C314.222 192.338 315.626 198.38 314.362 205.208C314.185 206.166 315.656 206.581 315.833 205.611C317.279 197.806 315.485 190.623 310.67 184.277C308.723 181.708 306.142 179.462 302.913 178.772C298.8 177.894 294.083 179.255 290.317 180.805C289.921 180.969 289.524 181.488 289.859 181.927C295.956 189.824 299.282 199.295 299.398 209.279C299.404 209.694 299.746 210.042 300.161 210.042C305.574 210.042 310.701 208.687 315.406 206.008C316.26 205.52 315.491 204.201 314.637 204.69Z" fill="#2D2D2F"/>
<path d="M306.459 178.547C316.602 169.991 330.767 167.465 343.271 171.858C344.199 172.182 344.596 170.711 343.674 170.388C330.638 165.805 315.925 168.569 305.379 177.467C304.628 178.101 305.715 179.175 306.459 178.547Z" fill="#2D2D2F"/>
<path d="M228.837 136.775C228.892 174.049 228.367 211.341 225.999 248.542C225.938 249.457 226.152 251.355 225.761 252.179C225.194 253.369 226.665 252.283 225.78 252.685C225.517 252.807 224.931 252.661 224.651 252.637C223.265 252.533 221.886 252.258 220.525 251.99C216.65 251.221 212.817 250.238 208.997 249.231C198.818 246.546 188.723 243.556 178.623 240.584C170.488 238.192 162.335 235.422 154.029 233.695C153.071 233.493 152.662 234.964 153.626 235.165C163.031 237.124 172.258 240.304 181.461 243.007C193.026 246.4 204.603 249.921 216.351 252.643C219.518 253.375 223.351 254.638 226.652 254.126C226.994 254.071 227.189 253.698 227.214 253.387C229.838 214.569 230.43 175.66 230.375 136.763C230.363 135.793 228.837 135.793 228.837 136.775Z" fill="#2D2D2F"/>
<path d="M79.2696 154.948C79.9897 143.25 80.6183 131.545 81.4361 119.853C81.8206 114.336 82.2417 108.826 82.7726 103.328C82.9923 101.027 83.2242 98.7264 83.5171 96.4319C83.7185 94.8147 84.042 93.6064 85.9583 93.283C86.0864 93.2647 86.2207 93.3318 86.3489 93.3257C88.9059 93.1609 92.1404 94.3875 94.6182 94.9062C99.7323 95.9681 104.828 97.097 109.924 98.2382C139.01 104.743 168.041 111.639 196.846 119.316C203.334 121.043 209.809 122.813 216.229 124.76C218.56 125.467 220.891 126.194 223.192 126.987C224.077 127.292 225.054 127.542 225.89 127.963C228.788 129.44 228.636 133.822 228.868 136.653C228.947 137.624 230.473 137.636 230.393 136.653C230.113 133.193 230.21 128.201 226.53 126.584C224.864 125.852 223.076 125.327 221.349 124.766C216.003 123.026 210.59 121.495 205.177 120C189.92 115.789 174.559 111.957 159.18 108.21C143.807 104.463 128.397 100.838 112.963 97.3594C104.352 95.4188 95.5946 92.9656 86.8188 91.8672C84.2129 91.5438 82.6628 92.1967 82.1806 94.9612C81.1554 100.862 80.8868 106.995 80.423 112.963C79.3367 126.95 78.6044 140.955 77.75 154.961C77.6829 155.931 79.2086 155.925 79.2696 154.948Z" fill="#2D2D2F"/>
<path d="M160.016 183.813C157.209 205.269 154.39 226.732 150.124 247.956C149.989 248.634 150.63 249.11 151.247 248.817C156.886 246.156 161.524 241.78 166.845 238.583C167.688 238.076 166.919 236.758 166.076 237.265C160.755 240.456 156.117 244.832 150.478 247.498C150.85 247.785 151.222 248.072 151.601 248.359C155.897 227 158.723 205.404 161.548 183.813C161.67 182.843 160.145 182.849 160.016 183.813Z" fill="#2D2D2F"/>
<path d="M161.078 182.623C151.106 180.384 141.232 177.741 131.364 175.099C130.967 174.995 130.534 175.233 130.424 175.63C125.621 193.351 120.818 211.079 116.015 228.8C115.46 230.845 113.678 234.287 115.313 236.221C116.094 237.149 117.394 237.417 118.487 237.802C120.72 238.589 122.966 239.339 125.206 240.102C133.664 242.983 142.141 245.826 150.588 248.743C151.515 249.067 151.918 247.59 150.99 247.273C143.636 244.74 136.27 242.256 128.91 239.754C127.067 239.132 125.23 238.503 123.387 237.875C122.014 237.405 118.822 236.929 117.742 235.94C115.539 233.927 116.992 230.991 117.638 228.624C118.163 226.677 118.694 224.73 119.219 222.777C123.442 207.198 127.665 191.612 131.889 176.032C131.577 176.209 131.26 176.386 130.949 176.563C140.817 179.206 150.691 181.842 160.663 184.088C161.628 184.307 162.036 182.837 161.078 182.623Z" fill="#2D2D2F"/>
<path d="M159.626 145.917C158.155 145.16 157.313 144.287 156.971 142.652C156.538 140.589 156.33 135.933 158.478 134.865C159.137 134.542 158.838 133.7 158.295 133.474C155.543 132.32 152.796 132.522 150.203 133.98C150.551 134.072 150.899 134.163 151.246 134.255C148.799 128.964 142.3 131.399 140.316 135.707C138.394 139.881 138.058 148.846 143.258 150.957C145.095 151.702 146.584 151.348 148.183 150.353C149.654 149.444 149.715 149.554 150.569 151.183C150.99 151.983 151.246 152.684 152.064 153.191C156.275 155.797 160.114 150.195 160.144 146.631C160.156 145.648 158.631 145.648 158.619 146.631C158.6 148.541 157.496 151.653 155.189 151.97C152.723 152.312 152.284 150.933 151.35 149.334C150.673 148.162 149.831 147.174 148.421 147.656C148.128 147.754 147.994 148.114 147.762 148.291C146.248 149.468 145.345 150.518 143.349 149.334C141.122 148.01 140.774 145.05 140.731 142.719C140.682 140.357 140.817 137.776 142.031 135.683C143.709 132.796 148.146 131.198 149.922 135.036C150.099 135.414 150.636 135.494 150.966 135.311C153.211 134.054 155.518 133.968 157.886 134.957C157.825 134.493 157.764 134.029 157.703 133.565C154.871 134.969 155.042 139.582 155.372 142.237C155.665 144.599 156.733 146.167 158.85 147.247C159.729 147.68 160.504 146.362 159.626 145.917Z" fill="#2D2D2F"/>
<path d="M152.424 130.618C152.454 127.713 155.439 125.473 158.093 127.005C158.044 126.608 157.99 126.206 157.941 125.809C157.471 126.236 157.074 126.682 156.793 127.249C156.537 127.768 156.464 128.384 156.146 128.872C155.194 130.337 153.48 130.587 151.984 130.008C151.069 129.654 150.672 131.13 151.582 131.478C153.29 132.137 154.67 131.966 156.159 130.892C156.775 130.447 157.3 130.02 157.636 129.324C158.081 128.396 158.203 127.621 159.021 126.883C159.387 126.554 159.277 125.919 158.868 125.687C155.207 123.576 150.941 126.541 150.904 130.618C150.886 131.6 152.412 131.6 152.424 130.618Z" fill="#2D2D2F"/>
<path d="M23.6315 219.958C57.2092 232.157 91.0859 243.52 124.987 254.766C162.135 267.087 199.368 279.152 236.644 291.082C263.667 299.736 290.709 308.316 317.781 316.829C323.316 318.568 328.851 320.606 334.466 322.058C335.589 322.351 335.87 322.241 336.877 321.558C340.19 319.331 343.455 317.018 346.745 314.754C377.204 293.798 407.724 272.903 438.635 252.606C442.15 250.299 445.671 248.005 449.205 245.723C448.857 245.631 448.509 245.54 448.161 245.448C448.576 246.418 448.271 249.024 448.308 250.281C448.363 252.313 447.936 255.004 448.454 256.969C448.656 257.744 448.027 257.952 448.827 257.153C448.759 257.22 448.65 257.287 448.57 257.342C448.033 257.69 447.521 258.098 447.002 258.471C441.57 262.382 436.133 266.288 430.689 270.187C410.617 284.559 390.49 298.857 370.228 312.966C359.146 320.685 348.033 328.356 336.779 335.826C337.163 336.045 337.542 336.265 337.926 336.485C337.31 331.413 336.687 326.348 336.071 321.277C335.955 320.313 334.429 320.301 334.545 321.277C335.162 326.348 335.784 331.413 336.401 336.485C336.468 337.009 337.017 337.498 337.548 337.144C359.182 322.785 380.402 307.785 401.591 292.779C417.086 281.807 432.538 270.767 447.942 259.667C449.181 258.776 449.931 258.544 449.98 256.969C450.059 254.559 449.888 252.106 449.821 249.695C449.779 248.2 450.09 246.089 449.486 244.673C449.327 244.307 448.753 244.197 448.442 244.398C416.701 264.872 385.547 286.267 354.404 307.638C349.589 310.94 344.78 314.247 339.977 317.561C338.701 318.44 337.328 319.257 336.114 320.228C335.449 320.759 334.808 320.746 335.668 320.82C334.521 320.722 333.191 320.045 332.098 319.703C329.193 318.794 326.294 317.884 323.389 316.975C298.185 309.066 273.005 301.084 247.843 293.047C211.385 281.404 174.963 269.638 138.621 257.653C103.829 246.18 69.073 234.573 34.5677 222.259C31.0525 221.008 27.5434 219.738 24.0343 218.469C23.1128 218.152 22.7161 219.622 23.6315 219.958Z" fill="#2D2D2F"/>
<path d="M265.985 124.375C260.352 124.412 254.701 124.93 249.104 125.528C242.837 126.2 236.667 127.945 230.491 129.159C229.527 129.349 229.936 130.819 230.894 130.63C237.112 129.41 243.325 127.652 249.629 126.999C255.055 126.438 260.529 125.937 265.985 125.901C266.967 125.895 266.967 124.369 265.985 124.375Z" fill="#2D2D2F"/>
<path d="M343.039 218.622C377.789 228.135 412.459 238.021 447.641 245.845C448.6 246.058 449.008 244.588 448.044 244.374C412.861 236.551 378.191 226.665 343.442 217.151C342.496 216.888 342.087 218.365 343.039 218.622Z" fill="#2D2D2F"/>
<path d="M200.923 291.656C189.883 332.854 171.526 371.641 159.491 412.521C159.21 413.467 160.687 413.87 160.962 412.924C172.996 372.038 191.354 333.256 202.394 292.059C202.65 291.113 201.179 290.71 200.923 291.656Z" fill="#2D2D2F"/>
<path d="M244.699 306.143C235.563 321.277 227.666 337.174 219.928 353.059C211.085 371.208 202.626 389.546 194.436 408C190.768 416.262 187.162 424.549 183.659 432.879C183.28 433.782 184.757 434.179 185.129 433.282C199.733 398.583 215.442 364.196 232.805 330.785C236.997 322.711 241.312 314.699 246.017 306.906C246.524 306.07 245.206 305.301 244.699 306.143Z" fill="#2D2D2F"/>
<path d="M159.845 413.479C168.431 418.099 178.892 423.89 183.273 433.038C183.694 433.923 185.013 433.148 184.592 432.269C180.1 422.895 169.402 416.891 160.614 412.167C159.747 411.697 158.978 413.016 159.845 413.479Z" fill="#2D2D2F"/>
<path d="M161.786 414.261C161.194 413.339 160.84 413.138 160.718 413.65C160.663 413.785 160.608 413.913 160.541 414.047C160.376 414.242 160.229 414.651 160.113 414.877C159.644 415.756 159.143 416.622 158.637 417.477C157.526 419.369 156.372 421.236 155.158 423.067C154.615 423.884 155.933 424.653 156.476 423.836C157.904 421.687 159.259 419.478 160.541 417.239C161.096 416.275 162.457 414.59 162.237 413.382C162.188 413.12 161.944 412.924 161.706 412.851C161.456 412.772 161.242 412.839 161.017 412.949C160.132 413.37 160.907 414.688 161.786 414.261Z" fill="#2D2D2F"/>
<path d="M170.463 436.211C168.523 434.545 166.411 433.215 163.86 432.745C162.383 432.47 159.741 433.111 159.436 431.47C159.222 430.328 159.661 429.083 159.338 427.875C159.118 427.045 158.74 426.282 158.24 425.587C157.184 424.128 155.621 423.225 154.016 422.481C153.131 422.072 152.356 423.384 153.247 423.799C155.56 424.873 157.556 426.252 157.959 428.955C158.154 430.255 157.294 432.263 158.294 433.373C158.911 434.057 159.948 433.99 160.778 434.026C164.178 434.197 166.729 435.009 169.383 437.285C170.128 437.926 171.208 436.852 170.463 436.211Z" fill="#2D2D2F"/>
<path d="M169.493 436.754C164.306 442.991 159.942 449.881 154.59 455.983C153.943 456.722 155.018 457.802 155.671 457.063C161.023 450.961 165.386 444.071 170.574 437.834C171.196 437.084 170.122 435.998 169.493 436.754Z" fill="#2D2D2F"/>
<path d="M152.888 422.505C151.643 424.012 150.386 425.507 149.135 427.009C148.189 428.144 147.871 428.894 146.327 428.992C144.545 429.108 142.824 427.588 141.329 426.691C136.368 423.732 131.192 421.376 125.724 419.509C120.995 417.892 115.764 416.586 110.754 417.568C108.289 418.05 105.024 418.825 105.152 421.834C105.274 424.61 107.361 427.479 108.862 429.669C111.236 433.129 113.964 436.37 116.814 439.446C122.044 445.09 127.854 450.808 133.908 455.562C140.572 460.798 148.811 463.947 155.61 457.185C156.305 456.49 155.225 455.416 154.53 456.105C147.755 462.842 139.651 458.436 133.487 453.268C128.519 449.1 123.698 444.425 119.2 439.751C116.448 436.889 113.83 433.88 111.462 430.688C109.717 428.339 107.501 425.52 106.836 422.603C105.762 417.879 115.618 418.642 118.419 419.124C123.094 419.924 127.561 421.712 131.919 423.524C135.11 424.848 138.076 426.52 141.036 428.296C142.647 429.261 144.893 431.354 146.956 430.988C148.299 430.743 149.171 429.328 149.977 428.363C151.301 426.771 152.638 425.184 153.962 423.585C154.591 422.835 153.516 421.748 152.888 422.505Z" fill="#2D2D2F"/>
<path d="M107.599 420.583C109.442 419.93 112.737 422.438 114.184 423.317C118.108 425.697 121.818 428.431 125.437 431.244C133.115 437.206 140.755 443.632 147.127 451.004C147.926 451.931 152.546 456.783 151.203 458.29C150.55 459.022 151.63 460.102 152.283 459.37C153.84 457.619 152.009 454.94 150.965 453.426C148.365 449.643 145.003 446.347 141.695 443.192C133.737 435.589 125.047 428.308 115.697 422.468C113.732 421.242 109.759 418.209 107.19 419.118C106.274 419.435 106.671 420.912 107.599 420.583Z" fill="#2D2D2F"/>
<path d="M253.92 360.724C237.211 375.754 220.306 390.601 203.236 405.223C199.459 408.457 195.681 411.698 191.793 414.804C191.024 415.414 192.111 416.488 192.874 415.884C210.853 401.549 227.879 385.896 245.077 370.646C248.391 367.711 251.705 364.77 255 361.81C255.726 361.145 254.646 360.065 253.92 360.724Z" fill="#2D2D2F"/>
<path d="M164.764 395.227C156.666 401.69 150.081 409.928 142.342 416.799C141.604 417.452 142.69 418.526 143.423 417.879C151.161 411.008 157.746 402.77 165.844 396.307C166.607 395.697 165.527 394.623 164.764 395.227Z" fill="#2D2D2F"/>
<path d="M147.847 413.144C150.801 415.64 152.955 419.795 153.852 423.512C154.084 424.464 155.555 424.061 155.323 423.109C154.365 419.136 152.076 414.73 148.927 412.064C148.182 411.435 147.096 412.509 147.847 413.144Z" fill="#2D2D2F"/>
<path d="M88.5462 344.54C110.016 332.127 131.809 320.283 153.517 308.297C155.634 307.126 158.094 306.107 160.047 304.66C160.828 304.081 160.065 302.756 159.278 303.342C157.722 304.495 155.763 305.313 154.072 306.247C149.733 308.645 145.388 311.037 141.049 313.436C129.197 319.971 117.358 326.525 105.549 333.14C99.6106 336.472 93.6786 339.81 87.7833 343.222C86.9228 343.716 87.6918 345.034 88.5462 344.54Z" fill="#2D2D2F"/>
<path d="M141.75 271.994C144.856 279.854 149.519 287.317 153.51 294.744C159.076 305.094 164.709 315.407 170.342 325.714C171.288 327.447 172.233 329.174 173.179 330.907C173.423 331.359 174.241 332.854 174.223 332.805C174.467 332.482 174.711 332.164 174.961 331.841C171.666 331.652 167.528 329.882 164.153 328.973C163.207 328.716 162.798 330.187 163.751 330.443C167.302 331.401 171.288 333.153 174.961 333.366C175.444 333.397 175.846 332.854 175.7 332.402C175.108 330.565 173.747 328.759 172.832 327.081C170.433 322.693 168.035 318.305 165.642 313.912C159.833 303.251 154.017 292.59 148.371 281.843C146.608 278.487 144.624 275.118 143.227 271.585C142.867 270.688 141.39 271.078 141.75 271.994Z" fill="#2D2D2F"/>
<path d="M93.4096 304.825C110.894 296.465 127.842 287.024 145.326 278.658C146.211 278.237 145.436 276.918 144.557 277.339C127.073 285.7 110.125 295.14 92.6406 303.507C91.7496 303.934 92.5247 305.252 93.4096 304.825Z" fill="#2D2D2F"/>
<path d="M97.2916 257.391C93.2211 291.424 89.1505 325.451 85.0799 359.485C83.7007 371.019 82.3214 382.552 80.9422 394.086C80.8263 395.056 82.352 395.05 82.4679 394.086C87.4295 352.546 92.4033 311.007 97.371 269.467C97.8531 265.446 98.3352 261.418 98.8173 257.397C98.9333 256.42 97.4076 256.426 97.2916 257.391Z" fill="#2D2D2F"/>
<path d="M74.4544 250.495C72.4771 266.788 70.4997 283.076 68.5224 299.369C65.3673 325.348 62.2121 351.326 59.0631 377.31C58.3368 383.291 57.6106 389.271 56.8844 395.251C56.7684 396.222 58.2941 396.216 58.4101 395.251C60.3874 378.958 62.3647 362.67 64.342 346.377C67.4972 320.399 70.6523 294.42 73.8014 268.436C74.5276 262.456 75.2538 256.475 75.9801 250.495C76.1021 249.524 74.5764 249.531 74.4544 250.495Z" fill="#2D2D2F"/>
<path d="M85.3908 253.839C83.2914 270.676 81.1921 287.506 79.0866 304.343C75.7178 331.34 72.343 358.344 68.962 385.341C68.187 391.511 67.6072 398.705 66.5575 404.417C66.411 405.198 67.2288 405.638 67.833 405.162C72.4894 401.476 77.4938 398.26 82.1502 394.58C82.9192 393.97 81.8329 392.896 81.07 393.5C76.4136 397.186 71.4092 400.402 66.7528 404.082C67.18 404.332 67.6011 404.576 68.0283 404.826C68.9437 399.865 69.3099 394.745 69.9385 389.747C71.4459 377.75 72.9411 365.758 74.4423 353.761C77.8294 326.654 81.2165 299.546 84.5974 272.445C85.3725 266.245 86.1475 260.045 86.9165 253.845C87.0385 252.869 85.5128 252.881 85.3908 253.839Z" fill="#2D2D2F"/>
<path d="M59.3195 206.044C60.4302 209.053 62.9812 211.463 64.812 214.032C66.3926 216.248 66.5269 216.84 68.9985 217.493C73.9906 218.811 79.0254 219.964 84.0542 221.124C87.0751 221.819 90.5903 223.192 93.7149 223.229C96.6199 223.266 99.9947 221.477 102.625 220.403C106.03 219.018 109.393 217.45 112.957 216.51C112.67 216.138 112.383 215.766 112.097 215.387C110.07 219.744 107.947 224.065 105.792 228.355C104.901 230.131 104.712 230.625 102.9 231.431C99.6041 232.901 96.2049 234.195 92.7873 235.354C93.1107 235.599 93.4281 235.843 93.7515 236.093C93.8492 231.51 93.9468 226.921 94.0445 222.338C94.0628 221.355 92.5371 221.355 92.5188 222.338C92.4211 226.921 92.3235 231.51 92.2258 236.093C92.2136 236.569 92.7263 236.99 93.1901 236.831C96.7358 235.629 100.245 234.274 103.669 232.755C105.164 232.09 105.774 231.742 106.506 230.326C108.923 225.67 111.206 220.922 113.415 216.162C113.689 215.576 113.238 214.862 112.554 215.039C106.458 216.644 100.825 220.611 94.5693 221.532C91.6339 221.966 87.96 220.452 85.0916 219.793C80.484 218.731 75.8825 217.657 71.2993 216.504C70.4205 216.284 69.4501 216.138 68.6079 215.802C67.5461 215.381 67.3996 215.107 66.71 214.075C64.8425 211.292 61.9681 208.803 60.7902 205.629C60.4546 204.726 58.9777 205.117 59.3195 206.044Z" fill="#2D2D2F"/>
<path d="M58.8923 206.13C60.3265 210.896 62.0109 215.564 63.7319 220.227C64.098 221.221 64.4703 222.216 64.8304 223.217C65.2209 224.297 65.5749 226.597 66.3316 227.434C67.0396 228.215 68.0526 228.355 69.0901 228.703C76.9139 231.345 84.5913 234.689 92.6165 236.691C93.5685 236.929 93.9774 235.458 93.0192 235.22C85.7752 233.414 78.818 230.473 71.7815 228.019C69.6089 227.263 67.9916 227.11 67.0396 224.877C66.2035 222.918 65.5688 220.843 64.8304 218.841C63.2314 214.502 61.6813 210.151 60.3509 205.721C60.0824 204.787 58.6116 205.184 58.8923 206.13Z" fill="#2D2D2F"/>
<path d="M60.7051 206.044C64.495 195.524 67.4243 184.667 70.4757 173.915C71.7207 169.533 72.9474 165.152 74.1557 160.764C74.3693 159.989 74.4792 158.933 74.8575 158.213C74.5036 158.891 74.8209 158.384 75.4007 158.036C76.6518 157.28 77.8479 156.413 79.0624 155.601C85.6229 151.238 91.7013 146.545 99.3359 144.287C100.099 144.062 101.179 143.519 101.978 143.549C101.325 143.525 101.661 143.543 102.058 143.83C102.692 144.294 103.352 144.709 103.962 145.203C107.129 147.766 107.416 152.703 108.484 156.468C108.991 158.262 109.033 160.416 109.168 162.601C109.467 167.55 109.76 172.499 110.04 177.448C110.748 189.903 111.56 202.383 111.792 214.856C111.81 215.839 113.336 215.839 113.317 214.856C113.098 203.073 112.347 191.289 111.682 179.523C111.377 174.098 111.059 168.667 110.73 163.242C110.602 161.118 110.644 158.909 110.175 156.834C109.808 155.217 109.271 153.624 108.838 152.025C108.325 150.128 108.124 147.815 107.038 146.136C106.202 144.849 103.718 142.432 102.143 142.091C100.556 141.743 98.0116 143.067 96.5347 143.567C92.812 144.818 89.7667 146.649 86.5017 148.822C83.0597 151.116 79.6116 153.405 76.1635 155.699C75.242 156.309 73.9299 156.871 73.3746 157.841C72.9291 158.616 72.8253 159.843 72.5873 160.697C71.9953 162.839 71.3973 164.981 70.7992 167.123C67.1924 180.005 63.7687 193.046 59.2282 205.636C58.9048 206.563 60.3756 206.96 60.7051 206.044Z" fill="#2D2D2F"/>
<path d="M96.2965 163.345C96.4247 182.818 94.6549 202.419 93.0254 221.807C92.9461 222.783 94.4718 222.777 94.5511 221.807C96.1806 202.413 97.9504 182.818 97.8223 163.345C97.8161 162.363 96.2904 162.357 96.2965 163.345Z" fill="#2D2D2F"/>
<path d="M256.605 85.6426C256.904 87.6931 257.203 89.7496 257.502 91.8C257.618 91.5132 257.734 91.2264 257.85 90.9396C255.787 92.3432 254.322 95.0832 256.116 97.3594C257.575 99.1962 260.413 98.8789 261.377 96.743C261.78 95.8582 260.462 95.0771 260.059 95.9741C259.717 96.3159 259.381 96.6576 259.04 96.9993C257.245 96.7247 256.58 95.9497 257.032 94.6621C257.154 93.4904 257.636 92.9229 258.619 92.2516C258.93 92.038 259.021 91.7512 258.966 91.3912C258.667 89.3407 258.368 87.2842 258.069 85.2338C257.935 84.2696 256.464 84.6785 256.605 85.6426Z" fill="#2D2D2F"/>
<path d="M271.057 87.8948C272.136 86.7169 272.385 85.1878 271.612 84.4794C270.839 83.771 269.337 84.1516 268.258 85.3295C267.178 86.5074 266.929 88.0365 267.702 88.7449C268.475 89.4533 269.977 89.0727 271.057 87.8948Z" fill="white"/>
<path d="M250.501 92.0049C251.025 91.0972 250.328 89.7138 248.944 88.915C247.561 88.1163 246.014 88.2046 245.49 89.1123C244.966 90.02 245.663 91.4034 247.046 92.2021C248.43 93.0009 249.976 92.9126 250.501 92.0049Z" fill="white"/>
<path opacity="0.2" d="M271.057 87.8948C272.136 86.7169 272.385 85.1878 271.612 84.4794C270.839 83.771 269.337 84.1516 268.258 85.3295C267.178 86.5074 266.929 88.0365 267.702 88.7449C268.475 89.4533 269.977 89.0727 271.057 87.8948Z" fill="#E26832"/>
<path opacity="0.2" d="M250.501 92.0049C251.025 91.0972 250.328 89.7138 248.944 88.915C247.561 88.1163 246.014 88.2046 245.49 89.1123C244.966 90.02 245.663 91.4034 247.046 92.2021C248.43 93.0009 249.976 92.9126 250.501 92.0049Z" fill="#E26832"/>
<path d="M262.549 115.862C263.843 118.986 264.838 122.184 265.619 125.473C265.845 126.425 267.315 126.023 267.089 125.071C266.308 121.781 265.314 118.584 264.02 115.459C263.654 114.562 262.177 114.953 262.549 115.862Z" fill="#2D2D2F"/>
<path d="M253.688 61.0496C251.424 64.2656 248.476 66.7921 245.333 69.1171C243.215 70.6854 241.476 72.2904 240.976 74.9999C240.799 75.958 242.269 76.3729 242.446 75.4026C243.105 71.851 246.529 70.2277 249.092 68.1102C251.338 66.255 253.328 64.1985 255.006 61.8124C255.574 61.0191 254.249 60.2563 253.688 61.0496Z" fill="#2D2D2F"/>
<path d="M250.368 42.5409C261.426 44.8904 272.204 41.2594 281.316 34.9983C282.121 34.4429 281.358 33.1248 280.547 33.6801C271.783 39.6972 261.445 43.3342 250.777 41.0702C249.819 40.8627 249.404 42.3334 250.368 42.5409Z" fill="#2D2D2F"/>
<path d="M258.595 63.2221C261.817 70.3498 268.878 74.4567 276.671 73.8099C277.642 73.7305 277.654 72.2049 276.671 72.2842C269.372 72.8945 262.928 69.1232 259.913 62.4532C259.504 61.5622 258.192 62.3372 258.595 63.2221Z" fill="#2D2D2F"/>
<path d="M280.37 35.4376C289.091 32.8868 297.006 37.7748 303.64 42.9375C304.403 43.5356 305.495 42.4615 304.72 41.8574C297.641 36.3407 289.256 31.2452 279.967 33.9608C279.021 34.2415 279.424 35.7183 280.37 35.4376Z" fill="#2D2D2F"/>
<path d="M279.936 35.7671C285.55 33.8814 289.615 27.7606 291.788 22.5552C292.166 21.6521 290.689 21.2554 290.317 22.1525C288.37 26.8086 284.562 32.6121 279.533 34.3025C278.605 34.6015 279.002 36.0783 279.936 35.7671Z" fill="#2D2D2F"/>
<path d="M237.943 76.9587C236.179 68.9828 242.947 65.7363 248.281 61.7941C252.431 58.7245 254.237 55.0997 254.884 49.998C255.006 49.0277 253.48 49.0338 253.358 49.998C252.87 53.8548 251.65 57.0525 248.616 59.6094C246.395 61.4768 243.807 62.8437 241.525 64.6317C237.442 67.8233 235.325 72.1561 236.472 77.3615C236.685 78.3196 238.156 77.9168 237.943 76.9587Z" fill="#2D2D2F"/>
<path d="M265.576 125.748C271.429 128.848 278.185 128.775 283.952 125.522C284.806 125.04 284.037 123.722 283.183 124.204C277.886 127.188 271.722 127.28 266.345 124.43C265.479 123.972 264.704 125.284 265.576 125.748Z" fill="#2D2D2F"/>
<path d="M256.282 126.047C259.852 132.76 266.431 136.726 273.931 137.202C281.065 137.654 291.043 134.841 294.113 127.664C294.497 126.773 293.179 125.992 292.795 126.895C289.939 133.565 280.559 136.122 273.931 135.677C266.974 135.207 260.901 131.49 257.6 125.278C257.136 124.406 255.824 125.174 256.282 126.047Z" fill="#2D2D2F"/>
<path d="M262.354 131.484C263.88 129.812 265.632 128.458 267.633 127.408C268.506 126.95 267.731 125.632 266.864 126.09C264.759 127.194 262.879 128.647 261.274 130.404C260.615 131.13 261.689 132.211 262.354 131.484Z" fill="#2D2D2F"/>
<path d="M268.762 135.109C269.97 132.687 271.227 130.294 272.54 127.927C273.016 127.066 271.697 126.297 271.221 127.158C269.909 129.526 268.646 131.918 267.444 134.34C267.004 135.219 268.323 135.988 268.762 135.109Z" fill="#2D2D2F"/>
<path d="M274.456 127.707C275.048 130.551 275.798 133.346 276.726 136.098C277.037 137.025 278.514 136.629 278.197 135.695C277.269 132.943 276.519 130.148 275.927 127.304C275.725 126.34 274.254 126.749 274.456 127.707Z" fill="#2D2D2F"/>
<path d="M280.425 127.121C282.176 129.641 284.153 131.979 286.363 134.108C287.071 134.792 288.151 133.712 287.443 133.028C285.325 130.984 283.427 128.763 281.743 126.346C281.188 125.553 279.863 126.309 280.425 127.121Z" fill="#2D2D2F"/>
<path d="M300.13 208.375C296.365 209.144 292.545 205.318 290.622 202.505C290.073 201.699 288.749 202.462 289.304 203.274C291.678 206.752 295.968 210.78 300.533 209.846C301.497 209.651 301.088 208.18 300.13 208.375Z" fill="#2D2D2F"/>
<path d="M255.348 198.209C247.665 195.81 239.579 195.072 231.932 192.527C230.998 192.216 230.595 193.687 231.529 193.998C239.176 196.543 247.256 197.281 254.945 199.679C255.879 199.972 256.282 198.502 255.348 198.209Z" fill="#2D2D2F"/>
<path d="M97.3825 164.127C99.2561 163.681 100.886 162.473 102.552 161.551C104.7 160.361 106.878 159.245 109.082 158.171C109.966 157.743 109.191 156.425 108.313 156.852C106.366 157.798 104.437 158.781 102.539 159.818C100.77 160.782 98.9509 162.186 96.9736 162.656C96.0216 162.882 96.4305 164.352 97.3825 164.127Z" fill="#2D2D2F"/>
<path d="M68.3821 215.741C71.3359 197.928 75.0525 180.255 79.5259 162.76C79.77 161.808 78.2992 161.405 78.0551 162.357C73.5817 179.853 69.8651 197.525 66.9114 215.339C66.7527 216.297 68.2235 216.705 68.3821 215.741Z" fill="#2D2D2F"/>
<path d="M73.8748 158.958C75.1198 160.575 76.5906 161.93 78.336 162.985C79.1782 163.498 79.9471 162.18 79.105 161.667C77.5976 160.752 76.2671 159.586 75.193 158.183C74.6072 157.42 73.2768 158.177 73.8748 158.958Z" fill="#2D2D2F"/>
<path d="M79.1782 163.663C82.7239 162.259 86.1415 160.611 89.437 158.695C90.2853 158.201 89.5163 156.883 88.668 157.377C85.4824 159.226 82.193 160.831 78.7754 162.186C77.8661 162.546 78.2627 164.023 79.1782 163.663Z" fill="#2D2D2F"/>
<path d="M88.7414 158.72C90.1939 159.8 91.6402 160.886 93.0927 161.966C94.1973 162.79 95.5399 164.242 96.8764 164.602C97.1266 164.67 97.4379 164.609 97.621 164.407C97.6637 164.364 97.7003 164.316 97.743 164.273C98.396 163.547 97.3219 162.46 96.6628 163.193C96.6201 163.236 96.5835 163.284 96.5408 163.327C96.791 163.26 97.0351 163.199 97.2853 163.132C96.5713 162.943 95.7352 162.046 95.1493 161.606C94.5513 161.161 93.9532 160.715 93.3612 160.27C92.0796 159.312 90.8041 158.36 89.5225 157.402C88.7231 156.816 87.9602 158.14 88.7414 158.72Z" fill="#2D2D2F"/>
<path d="M89.8213 158.006C91.164 155.656 92.7324 153.471 94.5449 151.464C95.1979 150.738 94.1238 149.651 93.4647 150.384C91.5667 152.489 89.9068 154.777 88.5031 157.237C88.021 158.091 89.3331 158.86 89.8213 158.006Z" fill="#2D2D2F"/>
<path d="M90.426 148.156C91.4147 149.035 92.3972 149.914 93.3859 150.793C94.1182 151.446 95.1984 150.365 94.4661 149.712C93.4774 148.834 92.4949 147.955 91.5062 147.076C90.7739 146.429 89.6937 147.503 90.426 148.156Z" fill="#2D2D2F"/>
<path d="M94.4656 151.397C98.3531 150.323 102.259 149.31 106.165 148.291C107.117 148.041 106.714 146.57 105.762 146.82C101.856 147.839 97.9503 148.852 94.0628 149.926C93.1169 150.189 93.5136 151.659 94.4656 151.397Z" fill="#2D2D2F"/>
<path d="M66.313 215.821C67.021 219.647 67.7289 223.473 68.4368 227.293C68.6138 228.257 70.0846 227.848 69.9076 226.89C69.1997 223.064 68.4917 219.238 67.7838 215.418C67.6068 214.447 66.1361 214.856 66.313 215.821Z" fill="#2D2D2F"/>
<path d="M118.108 223.247C115.71 222.668 113.385 221.886 111.127 220.879C110.236 220.483 109.461 221.795 110.358 222.198C112.738 223.259 115.173 224.108 117.705 224.718C118.657 224.95 119.066 223.479 118.108 223.247Z" fill="#2D2D2F"/>
<path d="M23.7654 218.976C37.3624 210.731 50.3858 201.596 63.9829 193.351C64.819 192.845 64.0561 191.521 63.2139 192.033C49.6169 200.278 36.5935 209.413 22.9964 217.657C22.1542 218.164 22.9232 219.488 23.7654 218.976Z" fill="#2D2D2F"/>
<path d="M23.6319 233.103C33.9701 236.551 44.3083 240.005 54.6403 243.452C79.4727 251.74 104.299 260.027 129.131 268.32C159.279 278.383 189.421 288.446 219.569 298.509C245.542 307.181 271.522 315.852 297.496 324.524C306.058 327.38 314.62 330.242 323.182 333.098C327.088 334.404 331.311 336.46 335.376 337.168C335.553 337.199 335.736 337.29 335.913 337.345C336.847 337.656 337.249 336.186 336.316 335.874C325.977 332.426 315.639 328.972 305.307 325.525C280.475 317.237 255.649 308.95 230.816 300.657C200.668 290.594 170.527 280.531 140.379 270.468C114.405 261.796 88.4255 253.125 62.4519 244.453C53.8897 241.597 45.3274 238.735 36.7652 235.879C32.8594 234.573 28.6362 232.517 24.5718 231.809C24.3948 231.778 24.2117 231.687 24.0347 231.632C23.101 231.321 22.7043 232.791 23.6319 233.103Z" fill="#2D2D2F"/>
<path d="M22.0009 218.817C22.1901 223.247 22.648 227.665 22.9227 232.09C22.9838 233.066 24.5101 233.072 24.449 232.09C24.1743 227.659 23.7164 223.247 23.5272 218.817C23.4844 217.84 21.9581 217.834 22.0009 218.817Z" fill="#2D2D2F"/>
<path d="M57.1353 395.666C60.2355 398.73 63.3357 401.793 66.4359 404.857C67.1378 405.546 68.2119 404.472 67.5161 403.777C64.4159 400.713 61.3157 397.65 58.2155 394.586C57.5197 393.897 56.4395 394.971 57.1353 395.666Z" fill="#2D2D2F"/>
<path d="M282.817 319.032C278.746 353.065 274.676 387.092 270.605 421.126C269.226 432.66 267.846 444.193 266.467 455.727C266.351 456.697 267.877 456.691 267.993 455.727C272.955 414.187 277.928 372.648 282.896 331.108C283.378 327.087 283.86 323.059 284.342 319.038C284.464 318.055 282.933 318.067 282.817 319.032Z" fill="#2D2D2F"/>
<path d="M259.986 312.136C258.008 328.429 256.031 344.717 254.054 361.01C250.899 386.989 247.744 412.967 244.595 438.951C243.868 444.932 243.142 450.912 242.416 456.892C242.3 457.863 243.826 457.857 243.942 456.892C245.919 440.599 247.896 424.311 249.873 408.018C253.029 382.039 256.184 356.061 259.333 330.077C260.059 324.097 260.785 318.116 261.512 312.136C261.627 311.165 260.102 311.172 259.986 312.136Z" fill="#2D2D2F"/>
<path d="M270.922 315.48C268.823 332.317 266.724 349.147 264.618 365.984C261.249 392.981 257.874 419.985 254.493 446.982C253.718 453.152 253.139 460.346 252.089 466.058C251.942 466.839 252.76 467.279 253.364 466.803C258.021 463.117 263.025 459.901 267.682 456.221C268.451 455.611 267.364 454.537 266.601 455.141C261.945 458.827 256.941 462.043 252.284 465.723C252.711 465.973 253.133 466.217 253.56 466.467C254.475 461.506 254.841 456.386 255.47 451.388C256.977 439.391 258.472 427.399 259.974 415.402C263.361 388.295 266.748 361.187 270.129 334.086C270.904 327.886 271.679 321.686 272.448 315.486C272.57 314.51 271.044 314.516 270.922 315.48Z" fill="#2D2D2F"/>
<path d="M242.667 457.301C245.767 460.365 248.867 463.428 251.967 466.492C252.669 467.181 253.743 466.107 253.048 465.412C249.947 462.348 246.847 459.285 243.747 456.221C243.045 455.532 241.965 456.612 242.667 457.301Z" fill="#2D2D2F"/>
<path d="M164.245 328.966C160.156 322.254 156.013 315.578 152.009 308.816C151.509 307.974 150.19 308.737 150.691 309.585C154.694 316.346 158.838 323.023 162.927 329.735C163.434 330.571 164.758 329.808 164.245 328.966Z" fill="#2D2D2F"/>
<path d="M135.879 275.478C134.348 273.001 133.249 270.34 131.62 267.917C131.076 267.106 129.752 267.868 130.301 268.686C131.931 271.109 133.029 273.769 134.561 276.247C135.074 277.083 136.398 276.314 135.879 275.478Z" fill="#2D2D2F"/>
<path d="M93.5932 296.855C95.125 297.325 98.9515 294.701 100.215 294.115C105.25 291.778 110.254 289.386 115.258 286.987C124.547 282.533 134 278.255 143.044 273.306C143.905 272.836 143.136 271.518 142.275 271.988C133.713 276.674 124.766 280.739 115.966 284.961C110.962 287.366 105.951 289.752 100.923 292.101C99.2322 292.895 97.5356 293.682 95.833 294.451C95.3142 294.683 94.7955 294.909 94.2767 295.14C93.819 295.342 93.4895 295.232 93.996 295.384C93.0562 295.098 92.6534 296.568 93.5932 296.855Z" fill="#2D2D2F"/>
<path d="M175.493 333.098C177.074 332.439 178.569 330.931 179.936 329.925C182.401 328.112 184.855 326.294 187.351 324.53C188.144 323.969 187.381 322.644 186.582 323.212C184.238 324.872 181.925 326.58 179.612 328.277C178.319 329.229 176.268 331.133 175.09 331.621C174.193 331.999 174.59 333.476 175.493 333.098Z" fill="#2D2D2F"/>
<path d="M161.304 279.042C160.755 278.822 161.847 280.153 162.097 280.562C162.83 281.77 163.537 282.996 164.239 284.223C166.589 288.3 168.884 292.413 171.172 296.526C176.353 305.844 181.486 315.199 186.478 324.621C186.936 325.488 188.254 324.719 187.796 323.853C182.511 313.875 177.073 303.971 171.575 294.109C169.347 290.118 167.12 286.133 164.825 282.185C164.154 281.031 163.092 278.127 161.707 277.577C160.797 277.205 160.401 278.682 161.304 279.042Z" fill="#2D2D2F"/>
<path d="M274.236 403.349C295.706 390.937 317.499 379.092 339.207 367.107C341.324 365.935 343.784 364.916 345.737 363.47C346.518 362.89 345.755 361.566 344.968 362.152C343.412 363.305 341.453 364.123 339.762 365.056C335.423 367.455 331.078 369.847 326.739 372.245C314.887 378.781 303.048 385.335 291.239 391.95C285.301 395.282 279.369 398.62 273.473 402.031C272.619 402.52 273.382 403.838 274.236 403.349Z" fill="#2D2D2F"/>
<path d="M329.253 335.057C338.09 351.844 347.342 368.419 356.386 385.097C357.399 386.964 359.444 390.119 359.92 391.614C360.164 391.291 360.408 390.974 360.658 390.65C357.363 390.461 353.225 388.691 349.85 387.782C348.904 387.526 348.495 388.996 349.447 389.253C352.999 390.211 356.984 391.962 360.658 392.176C361.146 392.206 361.537 391.663 361.397 391.212C360.859 389.509 359.608 387.831 358.766 386.275C356.508 382.107 354.25 377.945 351.986 373.783C346.542 363.763 341.092 353.748 335.661 343.722C333.958 340.579 332.243 337.449 330.577 334.288C330.114 333.415 328.795 334.184 329.253 335.057Z" fill="#2D2D2F"/>
<path d="M279.1 363.634C296.584 355.274 313.532 345.834 331.016 337.467C331.901 337.046 331.126 335.728 330.247 336.149C312.763 344.509 295.815 353.95 278.331 362.316C277.446 362.737 278.215 364.056 279.1 363.634Z" fill="#2D2D2F"/>
<path d="M349.935 387.77C345.847 381.057 341.703 374.381 337.699 367.619C337.199 366.777 335.881 367.54 336.381 368.388C340.385 375.15 344.528 381.826 348.617 388.539C349.13 389.381 350.448 388.612 349.935 387.77Z" fill="#2D2D2F"/>
<path d="M279.289 355.659C280.699 356.086 283.946 353.822 285.117 353.273C289.78 351.094 294.418 348.867 299.05 346.627C307.71 342.441 316.498 338.389 324.938 333.769C325.799 333.299 325.03 331.981 324.169 332.451C316.211 336.808 307.93 340.634 299.764 344.589C295.193 346.798 290.622 349.001 286.027 351.161C284.458 351.899 282.884 352.638 281.303 353.352C280.852 353.553 280.4 353.761 279.942 353.95C279.509 354.133 279.21 354.029 279.692 354.176C278.752 353.901 278.349 355.378 279.289 355.659Z" fill="#2D2D2F"/>
<path d="M361.183 391.901C362.764 391.242 364.259 389.735 365.626 388.728C368.091 386.916 370.545 385.097 373.041 383.333C373.834 382.772 373.071 381.448 372.272 382.015C369.928 383.675 367.615 385.384 365.302 387.08C364.009 388.032 361.958 389.936 360.78 390.424C359.889 390.803 360.28 392.28 361.183 391.901Z" fill="#2D2D2F"/>
<path d="M168.45 434.838C170.898 430.835 173.351 426.832 175.377 422.591C175.798 421.712 174.486 420.937 174.059 421.822C172.033 426.063 169.579 430.06 167.132 434.069C166.62 434.911 167.938 435.674 168.45 434.838Z" fill="#2D2D2F"/>
<path d="M142.922 417.031C137.424 416.097 132.157 413.211 127.031 411.118C122.563 409.293 118.078 407.804 113.287 407.133C110.962 406.809 107.05 406.7 106.391 409.678C105.738 412.625 108.203 416.738 110.089 418.795C110.754 419.521 111.829 418.441 111.169 417.714C109.4 415.78 105.72 409.617 109.833 408.646C113.067 407.883 117.291 409.299 120.409 410.276C127.824 412.607 134.824 417.196 142.514 418.496C143.478 418.666 143.893 417.196 142.922 417.031Z" fill="#2D2D2F"/>
<path d="M128.433 422.157C129.343 423.195 129.874 424.409 130.087 425.764C130.24 426.728 131.711 426.319 131.558 425.361C131.302 423.75 130.588 422.304 129.514 421.083C128.867 420.339 127.793 421.419 128.433 422.157Z" fill="#2D2D2F"/>
<path d="M133.371 424.983C133.554 425.105 133.743 425.739 133.835 425.941C133.993 426.301 134.14 426.661 134.28 427.027C134.561 427.777 134.793 428.546 135 429.321C135.25 430.267 136.721 429.871 136.471 428.919C136.196 427.863 135.855 426.832 135.434 425.825C135.116 425.068 134.854 424.128 134.146 423.658C133.316 423.121 132.553 424.446 133.371 424.983Z" fill="#2D2D2F"/>
<path d="M138.717 425.648C138.711 425.636 138.699 425.63 138.693 425.617C138.65 425.922 138.614 426.234 138.571 426.539C138.583 426.527 138.589 426.514 138.601 426.502C138.296 426.545 137.985 426.582 137.68 426.624C137.869 426.765 138.144 427.527 138.266 427.772C138.473 428.174 138.669 428.589 138.845 429.01C139.132 429.712 139.706 430.792 139.633 431.543C139.761 431.323 139.883 431.103 140.011 430.884C139.975 430.908 139.932 430.939 139.895 430.963C140.09 430.939 140.286 430.914 140.481 430.884C140.438 430.872 140.396 430.859 140.359 430.847C140.536 431.024 140.713 431.201 140.89 431.378C140.884 431.335 140.878 431.293 140.872 431.25C140.804 431.5 140.743 431.744 140.676 431.994C140.573 432.037 140.463 432.074 140.359 432.116C141.342 432.141 141.342 430.615 140.359 430.591C139.639 430.573 139.328 431.14 139.419 431.787C139.456 432.037 139.718 432.257 139.95 432.318C141.714 432.794 140.969 430.457 140.719 429.7C140.274 428.345 139.608 426.185 138.449 425.306C138.199 425.117 137.723 425.19 137.527 425.428C137.515 425.44 137.509 425.453 137.497 425.465C137.295 425.697 137.167 426.112 137.375 426.386C137.381 426.398 137.393 426.405 137.399 426.417C137.985 427.198 139.309 426.435 138.717 425.648Z" fill="#2D2D2F"/>
<path d="M139.114 457.625C141.232 456.105 143.716 455.458 146.096 454.47C146.877 454.146 149.397 453.42 148.879 452.108C148.518 451.205 147.042 451.602 147.408 452.511C147.426 452.56 147.444 452.609 147.469 452.657C147.536 452.407 147.597 452.163 147.664 451.913C146.682 453.164 143.984 453.634 142.55 454.171C141.061 454.732 139.645 455.367 138.345 456.301C137.552 456.874 138.315 458.198 139.114 457.625Z" fill="#2D2D2F"/>
<path d="M134.14 454.598C137.381 452.56 140.572 450.46 143.727 448.294C144.533 447.739 143.77 446.421 142.959 446.976C139.809 449.142 136.612 451.248 133.371 453.28C132.541 453.798 133.304 455.123 134.14 454.598Z" fill="#2D2D2F"/>
<path d="M129.209 450.009C132.748 448.294 136.19 446.415 139.547 444.364C140.383 443.852 139.645 442.576 138.778 443.046C138.699 443.089 138.619 443.132 138.54 443.174C137.673 443.644 138.448 444.962 139.309 444.492C139.388 444.45 139.468 444.407 139.547 444.364C139.291 443.925 139.034 443.485 138.778 443.046C135.421 445.097 131.979 446.982 128.44 448.691C127.555 449.118 128.33 450.43 129.209 450.009Z" fill="#2D2D2F"/>
<path d="M124.254 445.444C126.164 444.248 128.08 443.058 129.99 441.862C131.309 441.038 133.31 440.245 134.238 438.994C134.494 438.646 134.275 438.158 133.963 437.95C133.933 437.926 133.902 437.908 133.866 437.883C133.591 437.7 133.164 437.767 132.944 438.005C132.926 438.03 132.901 438.048 132.883 438.072C132.206 438.786 133.286 439.867 133.963 439.153C133.982 439.128 134.006 439.11 134.024 439.085C133.719 439.128 133.408 439.165 133.103 439.208C133.133 439.232 133.164 439.25 133.2 439.275C133.109 438.927 133.017 438.579 132.926 438.231C132.468 438.841 131.15 439.348 130.497 439.751C129.752 440.214 129.008 440.678 128.269 441.142C126.677 442.137 125.084 443.131 123.491 444.126C122.649 444.645 123.418 445.963 124.254 445.444Z" fill="#2D2D2F"/>
<path d="M119.328 440.379C122.386 438.115 125.523 435.979 128.751 433.965C129.581 433.447 128.818 432.129 127.982 432.647C124.754 434.661 121.617 436.797 118.559 439.061C117.778 439.641 118.541 440.965 119.328 440.379Z" fill="#2D2D2F"/>
<path d="M115.392 435.021C117.632 433.099 119.988 431.329 122.466 429.718C123.283 429.181 122.52 427.863 121.697 428.4C119.115 430.084 116.656 431.933 114.318 433.947C113.568 434.588 114.654 435.662 115.392 435.021Z" fill="#2D2D2F"/>
<path d="M110.486 429.736C112.237 427.948 114.026 425.532 116.619 425.05C117.584 424.873 117.175 423.402 116.216 423.579C113.33 424.116 111.353 426.673 109.406 428.656C108.722 429.358 109.796 430.438 110.486 429.736Z" fill="#2D2D2F"/>
<path d="M377.55 317.341C379.76 307.566 373.075 297.755 363.079 296.76C356.883 296.144 360.379 288.714 342.283 288.579C331.233 288.494 330.694 293.683 325.197 293.256C313.009 292.297 307.426 291.962 305.185 292.596C298.549 294.489 296.719 304.093 305.571 311.345C314.423 318.598 330.921 334.051 330.921 334.051C330.921 334.051 319.688 367.08 318.665 396.726C317.624 426.916 306.832 464.066 306.832 464.066H420.323C420.323 464.066 413.963 425.763 395.144 386.042C389.059 373.197 384.272 363.526 380.691 356.487C375.322 345.943 373.81 333.867 376.424 322.335L377.55 317.341Z" fill="#E26832"/>
<path d="M328.729 301.272C330.559 305.43 334.887 306.083 338.909 304.953C339.858 304.685 339.454 303.213 338.505 303.482C335.071 304.447 331.606 304.031 330.051 300.503C329.653 299.605 328.337 300.381 328.729 301.272Z" fill="#2D2D2F"/>
<path d="M321.205 464.158C327.18 455.269 331.024 445.971 333.387 435.537C335.805 424.853 337.979 413.796 337.544 402.795C337.507 401.818 335.977 401.812 336.014 402.795C336.442 413.674 334.306 424.566 331.912 435.134C329.58 445.427 325.778 454.622 319.883 463.389C319.338 464.201 320.66 464.97 321.205 464.158Z" fill="#2D2D2F"/>
<path d="M361.444 464.225C364.823 458.798 370.553 455.519 376.956 455.342C377.642 455.324 377.936 454.53 377.495 454.042C366.972 442.143 367.468 424.316 378.585 412.984C379.276 412.282 378.193 411.202 377.501 411.904C365.778 423.858 365.337 442.594 376.411 455.122C376.589 454.689 376.773 454.255 376.95 453.822C370.002 454.011 363.782 457.57 360.115 463.456C359.601 464.292 360.923 465.061 361.444 464.225Z" fill="#2D2D2F"/>
<path d="M364.541 464.567C365.08 464.024 365.612 463.48 366.151 462.937C366.598 462.485 367.026 461.893 367.694 461.795C368.667 461.655 368.251 460.184 367.29 460.324C366.524 460.434 365.973 460.953 365.447 461.478C364.78 462.143 364.125 462.821 363.457 463.486C362.766 464.189 363.849 465.269 364.541 464.567Z" fill="#2D2D2F"/>
<path d="M368.9 464.762C369.83 463.773 370.877 462.955 372.065 462.302C372.928 461.826 372.157 460.507 371.293 460.983C369.996 461.698 368.826 462.607 367.816 463.682C367.143 464.402 368.226 465.483 368.9 464.762Z" fill="#2D2D2F"/>
<path d="M310.529 464.408C311.643 463.114 312.543 461.704 313.216 460.135C313.596 459.243 312.28 458.462 311.894 459.366C311.276 460.806 310.474 462.137 309.445 463.334C308.809 464.073 309.886 465.159 310.529 464.408Z" fill="#2D2D2F"/>
<path d="M314.704 464.585C315.518 463.731 316.038 462.577 316.522 461.514C316.834 460.825 317.752 459.439 316.938 458.81C316.167 458.211 315.077 459.286 315.855 459.89C315.891 459.915 315.922 459.945 315.959 459.97C315.885 459.793 315.812 459.61 315.732 459.433C315.696 460.11 315.083 461.026 314.771 461.636C314.441 462.278 314.122 462.98 313.62 463.511C312.947 464.219 314.024 465.3 314.704 464.585Z" fill="#2D2D2F"/>
<path d="M364.419 301.449L374.312 286.784C374.312 286.784 380.556 293.683 380.023 303.281C379.491 312.878 376.546 320.607 376.546 320.607L364.419 301.449Z" fill="#E26832"/>
<path d="M355.028 293.25L364.921 278.585C364.921 278.585 369.732 284.184 369.2 293.781C368.667 303.378 365.722 311.107 365.722 311.107L355.028 293.25Z" fill="#E26832"/>
<path d="M409.132 464.06H426.261C426.261 464.06 459 461.948 459 434.682C459 413.339 437.776 408.412 425.967 414.474C415.731 419.731 416.962 427.747 416.962 427.747C416.962 427.747 429.279 425.518 430.662 433.211C432.835 445.281 412.652 454.292 412.652 454.292L409.132 464.06Z" fill="#E26832"/>
<path d="M300.287 295.649L325.13 302.817C325.13 302.817 326.899 307.109 331.453 307.866C336.008 308.623 339.803 309.63 344.107 312.915C348.411 316.193 349.929 319.978 349.929 319.978C349.929 319.978 341.328 323.513 340.569 333.355C339.81 343.196 347.168 350.962 347.168 350.962C347.168 350.962 337.398 364.809 329.941 384.302C323.942 399.98 317.294 412.966 317.294 412.966C317.294 412.966 320.226 378.887 320.985 361.469C321.744 344.051 324.377 329.82 319.822 324.521C315.267 319.221 305.026 313.226 302.13 309.087C298.053 303.25 300.287 295.649 300.287 295.649Z" fill="white"/>
<path opacity="0.2" d="M300.287 295.649L325.13 302.817C325.13 302.817 326.899 307.109 331.453 307.866C336.008 308.623 339.803 309.63 344.107 312.915C348.411 316.193 349.929 319.978 349.929 319.978C349.929 319.978 341.328 323.513 340.569 333.355C339.81 343.196 347.168 350.962 347.168 350.962C347.168 350.962 337.398 364.809 329.941 384.302C323.942 399.98 317.294 412.966 317.294 412.966C317.294 412.966 320.226 378.887 320.985 361.469C321.744 344.051 324.377 329.82 319.822 324.521C315.267 319.221 305.026 313.226 302.13 309.087C298.053 303.25 300.287 295.649 300.287 295.649Z" fill="#E26832"/>
<path d="M300.875 299.312C303.015 299.312 304.75 297.582 304.75 295.448C304.75 293.313 303.015 291.583 300.875 291.583C298.735 291.583 297 293.313 297 295.448C297 297.582 298.735 299.312 300.875 299.312Z" fill="#2D2D2F"/>
<path d="M299.241 298.25C298.88 304.483 301.923 309.88 306.428 313.861C309.881 316.913 313.499 319.746 317.092 322.628C319.345 324.435 320.576 326.883 320.845 329.74C321.506 336.755 320.986 343.996 320.698 351.017C319.688 376.018 317.545 401.067 314.001 425.842C312.22 438.303 310.175 450.873 306.532 462.949C306.251 463.889 307.726 464.292 308.008 463.352C314.925 440.427 317.227 415.842 319.425 392.099C320.551 379.955 321.433 367.788 322.02 355.608C322.406 347.616 322.829 339.545 322.48 331.541C322.431 330.455 322.406 329.325 322.21 328.257C321.482 324.35 319.039 322.243 316.052 319.899C308.938 314.307 300.178 308.427 300.772 298.25C300.833 297.267 299.303 297.273 299.241 298.25Z" fill="#2D2D2F"/>
<path d="M373.369 291.064C373.614 296.015 371.814 300.533 368.22 303.964C367.504 304.642 368.588 305.723 369.304 305.045C373.161 301.364 375.162 296.388 374.899 291.07C374.85 290.081 373.32 290.081 373.369 291.064Z" fill="#2D2D2F"/>
<path d="M362.54 284.922C362.484 288.347 361.921 294.727 358.499 296.626C357.636 297.102 358.407 298.421 359.271 297.945C363.299 295.71 364.003 289.007 364.064 284.922C364.088 283.939 362.558 283.939 362.54 284.922Z" fill="#2D2D2F"/>
<path d="M394.202 189.932C394.202 189.932 395.181 168.32 385.227 158.863C376.081 150.175 382.999 133.697 380.483 127.916C377.967 122.134 370.97 118.392 368.956 110.351C366.942 102.311 371.337 98.1957 367.162 92.4263C362.987 86.6569 358.12 82.5664 356.731 74.0741C355.341 65.5818 344.965 52.8831 344.965 52.8831C344.965 52.8831 359.277 63.4572 364.677 65.9787C370.07 68.5001 370.48 73.6651 374.471 78.8545C378.469 84.0439 383.195 83.0182 385.54 89.8682C387.884 96.7243 382.583 99.5876 385.319 104.026C388.056 108.465 392.059 106.767 393.883 112.573C395.708 118.379 389.023 118.679 391.606 123.233C394.183 127.781 398.444 127.091 396.902 137.452C395.359 147.812 401.401 149.375 401.04 158.173C400.752 165.212 394.202 189.932 394.202 189.932Z" fill="#2D2D2F"/>
<path d="M403.25 197.582C403.25 197.582 405.931 193.876 408.043 192.667C419.381 186.177 413.779 178.607 416.834 174.516C419.883 170.426 426.084 168.759 429.157 162.794C432.23 156.83 429.525 152.776 433.883 148.997C438.242 145.218 442.827 142.885 445.49 136.451C448.153 130.016 458.676 121.914 458.676 121.914C458.676 121.914 445.441 127.616 440.727 128.618C436.014 129.613 434.734 133.612 430.633 136.963C426.525 140.321 422.993 138.642 419.877 143.612C416.767 148.582 420.409 151.817 417.434 154.809C414.459 157.8 411.618 155.731 409.108 159.968C406.599 164.205 411.808 165.67 408.937 168.784C406.066 171.897 402.84 170.566 402.136 179.016C401.438 187.465 396.387 187.581 395.047 194.584C394.912 195.286 394.716 197.582 394.716 197.582H403.25Z" fill="#2D2D2F"/>
<path d="M408.943 82.7373C408.943 82.7373 409.464 75.5149 407.566 71.1497C405.668 66.7906 403.324 64.2447 403.268 60.7526C403.213 57.2604 402.76 56.6438 400.067 53.3775C397.367 50.1113 396.4 45.1783 395.867 40.4346C395.335 35.6908 390.394 36.8691 388.809 32.2842C387.223 27.6992 391.643 26.9665 389.733 22.29C387.823 17.6134 384.432 15.4339 383.667 7.94894C382.901 0.463993 383.838 0 383.838 0C383.838 0 383.893 5.92812 387.982 11.6731C392.072 17.4181 397.979 18.9505 401.469 23.3462C404.958 27.7419 400.905 29.6223 402.822 32.0766C404.738 34.5309 407.113 33.0473 408.796 37.4186C410.48 41.7899 407.505 46.3749 408.68 48.8597C409.856 51.3506 413.027 53.4264 412.941 56.1859C412.855 58.9454 410.78 59.9894 411.527 64.7209C412.274 69.4525 409.084 83.3661 409.084 83.3661" fill="#2D2D2F"/>
<path d="M409.072 93.745C409.072 93.745 412.09 88.696 412.304 84.8375C412.524 80.9852 411.747 78.2867 412.983 75.7347C414.22 73.1827 414.116 72.5722 413.357 69.2205C412.592 65.8687 413.693 61.9431 415.04 58.3044C416.387 54.6719 412.371 53.7317 412.898 49.8244C413.424 45.917 416.901 46.9977 417.22 42.9072C417.544 38.8167 415.879 36.0083 418.058 30.3C420.238 24.5917 421.089 24.5978 421.089 24.5978C421.089 24.5978 418.964 28.9202 419.828 34.5675C420.691 40.2209 424.419 43.4811 425.343 47.9379C426.268 52.3946 422.644 52.2847 423.133 54.7634C423.629 57.2421 425.894 57.0285 425.515 60.8076C425.135 64.5867 421.309 66.8334 421.248 69.0679C421.187 71.3024 422.735 73.9642 421.664 75.9301C420.593 77.8959 418.707 77.902 417.52 81.6079C416.332 85.3137 408.937 94.2456 408.937 94.2456" fill="#2D2D2F"/>
<path d="M408.68 112.201C408.68 112.201 407.897 106.377 405.662 103.22C403.428 100.064 401.144 98.4338 400.52 95.6681C399.895 92.9025 399.436 92.4873 396.749 90.3383C394.061 88.1893 392.476 84.4285 391.264 80.7471C390.052 77.0657 386.324 78.8178 384.297 75.4356C382.271 72.0533 385.669 70.7407 383.373 67.3401C381.077 63.9395 378.022 62.7673 376.168 56.9491C374.319 51.1309 374.98 50.6058 374.98 50.6058C374.98 50.6058 376.008 55.3068 380.208 59.1958C384.407 63.0848 389.36 63.329 392.862 66.2473C396.363 69.1656 393.455 71.3268 395.384 72.963C397.312 74.5992 398.953 73.024 401.022 76.2231C403.091 79.4223 401.481 83.5494 402.828 85.3382C404.175 87.127 407.04 88.2503 407.431 90.4543C407.823 92.6583 406.342 93.8366 407.725 97.4691C409.103 101.108 408.876 112.689 408.876 112.689" fill="#2D2D2F"/>
<path d="M391.373 198.394C391.281 198.394 391.196 198.382 391.104 198.351C390.62 198.205 390.345 197.692 390.492 197.209C390.614 196.8 403.06 155.926 406.31 131.823C408.777 113.495 408.563 89.3615 408.465 77.7556C408.422 73.195 408.416 71.3268 408.52 70.8018C408.618 70.3073 409.108 69.9837 409.598 70.0814C410.094 70.179 410.418 70.6614 410.32 71.1559C410.247 71.5893 410.271 74.4344 410.302 77.7373C410.406 89.3798 410.62 113.605 408.135 132.061C404.866 156.311 392.383 197.325 392.255 197.741C392.132 198.143 391.765 198.394 391.373 198.394Z" fill="#2D2D2F"/>
<path d="M409.623 255.501H387.187C377.667 255.501 369.948 247.803 369.948 238.309V197.576H426.862V238.309C426.862 247.803 419.142 255.501 409.623 255.501Z" fill="white"/>
<path opacity="0.2" d="M409.623 255.501H387.187C377.667 255.501 369.948 247.803 369.948 238.309V197.576H426.862V238.309C426.862 247.803 419.142 255.501 409.623 255.501Z" fill="#E26832"/>
<path d="M370.835 208.18C372.072 207.991 372.782 207.112 374.037 207.026C375.488 206.929 376.075 207.777 377.269 208.467C378.91 209.42 380.403 209.407 382.197 208.852C383.33 208.504 384.395 207.918 385.552 207.625C387.456 207.149 388.521 208.18 390.125 208.858C392.555 209.884 394.41 207.845 397.091 208.821C398.689 209.401 398.732 209.633 400.538 209.188C402.295 208.754 403.623 208.98 405.313 209.182C405.802 209.243 406.262 209.267 406.727 209.133C407.743 208.846 407.853 208.455 409.059 208.437C410.118 208.418 409.953 208.553 410.706 208.614C411.949 208.711 413.173 208.614 414.428 208.54C417.991 208.321 421.603 207.918 425.153 208.425C426.114 208.559 426.531 207.094 425.557 206.953C422.625 206.538 419.729 206.691 416.779 206.874C414.502 207.014 412.328 207.319 410.082 206.77C409.378 206.599 409.016 206.367 408.306 206.526C407.737 206.66 407.817 206.862 407.192 207.094C406.133 207.484 405.539 207.387 404.284 207.094C403.47 206.904 403.06 206.697 402.234 206.831C401.248 206.99 400.299 207.973 399.35 208.034C398.199 208.107 397.183 206.581 396.026 206.385C395.298 206.269 394.753 206.599 394.073 206.758C392.91 207.033 393.418 207.142 391.686 207.13C390.045 207.124 389.935 206.733 388.631 206.239C386.911 205.579 385.307 206.062 383.648 206.678C381.891 207.326 380.275 208.199 378.365 207.362C377.306 206.898 376.522 205.946 375.439 205.506C373.216 204.609 372.506 206.391 370.419 206.715C369.458 206.855 369.868 208.327 370.835 208.18Z" fill="#2D2D2F"/>
<path d="M370.896 216.312C374.147 212.533 375.861 218.29 379.026 218.12C382.185 217.949 382.558 214.456 386.152 216.41C387.78 217.295 388.441 218.034 390.419 217.344C391.349 217.021 391.765 216.612 392.849 216.642C394.086 216.679 394.122 217.094 395.102 217.527C395.83 217.851 396.387 217.894 397.153 217.649C397.624 217.497 398.003 216.947 398.438 216.819C399.779 216.428 400.826 217.051 401.995 217.332C402.699 217.503 403.219 217.723 403.978 217.576C404.401 217.497 404.731 217.216 405.135 217.124C409.323 216.166 406.702 217.485 408.612 217.57C409.586 217.619 409.763 217.405 410.645 217.289C410.859 217.137 411.073 216.978 411.288 216.825C412.065 216.74 412.794 216.844 413.473 217.137C413.791 217.173 414.134 217.454 414.477 217.417C415.45 217.301 415.389 216.984 416.271 216.74C417.489 216.398 418.34 217.057 419.479 217.131C421.511 217.253 423.788 216.752 425.815 216.563C426.788 216.471 426.794 214.945 425.815 215.036C423.494 215.25 420.623 216.08 418.438 215.122C417.379 214.658 417.795 214.554 416.632 214.579C416.283 214.585 416.142 214.963 415.842 215.055C415.065 215.287 414.073 215.433 413.259 215.378C412.334 215.317 411.777 215.189 410.865 215.342C410.149 215.726 409.365 215.879 408.508 215.812C408.276 215.671 408.043 215.537 407.817 215.397C407.443 215.354 407.088 215.073 406.69 215.049C405.056 214.939 404.254 216.361 402.423 215.861C401.566 215.629 400.966 214.853 400.024 214.756C398.561 214.603 398.291 215.568 397.079 215.934C395.585 216.38 394.594 214.939 393.216 214.811C392.059 214.701 391.41 215.427 390.357 215.684C387.26 216.435 385.858 213.064 382.889 214.31C381.903 214.725 381.022 215.964 380.012 216.19C377.783 216.685 377.079 214.798 375.506 213.962C373.523 212.906 371.209 213.596 369.813 215.22C369.176 215.977 370.254 217.063 370.896 216.312Z" fill="#2D2D2F"/>
<path d="M396.853 196.489C387.707 196.77 378.561 197.051 369.415 197.331C369.005 197.344 368.65 197.673 368.65 198.095C368.687 209.444 368.724 220.794 368.766 232.143C368.785 236.545 368.656 241.209 370.603 245.281C372.409 249.061 375.708 251.741 379.075 254.091C379.884 254.653 380.649 253.334 379.847 252.772C375.788 249.94 372.188 246.661 370.964 241.685C369.825 237.076 370.291 231.984 370.278 227.277C370.242 217.546 370.211 207.82 370.174 198.088C369.917 198.345 369.666 198.595 369.409 198.852C378.555 198.571 387.701 198.29 396.847 198.009C397.839 197.985 397.839 196.458 396.853 196.489Z" fill="#2D2D2F"/>
<path d="M410.639 250.886C413.491 251.039 416.656 248.34 418.352 246.338C421.082 243.114 421.939 238.566 421.731 234.451C421.682 233.474 420.152 233.468 420.201 234.451C420.384 238.059 419.742 242.088 417.458 245.001C416.05 246.802 413.167 249.5 410.639 249.36C409.659 249.305 409.659 250.831 410.639 250.886Z" fill="#2D2D2F"/>
</svg>
