<?xml version="1.0" encoding="utf-8" standalone="yes"?>
<!DOCTYPE svg PUBLIC "-//W3C//DTD SVG 1.1//EN" "http://www.w3.org/Graphics/SVG/1.1/DTD/svg11.dtd">
<svg width="624" height="307" viewBox="0 0 624 307" style="fill:none;stroke:none;fill-rule:evenodd;clip-rule:evenodd;stroke-linecap:round;stroke-linejoin:round;stroke-miterlimit:1.5;" version="1.1" xmlns="http://www.w3.org/2000/svg" xmlns:xlink="http://www.w3.org/1999/xlink"><style id="fontImports">@import url("https://fonts.googleapis.com/css2?family=Roboto:wght@400;700&amp;display=block");</style><g id="items" style="isolation: isolate"><g id="blend" style="mix-blend-mode:normal"><g id="g-root-2.cu_sy_qunj978x30nc-fill" data-item-order="999905924" data-item-id="2.cu_sy_qunj978x30nc" data-item-class="Part Indexed Fill Stroke" data-item-index="2" data-renderer-id="0" transform="translate(318.710693359375, 3)"><g id="2.cu_sy_qunj978x30nc-fill" stroke="none" fill="#392c6c"><g><path d="M 23.928378 128.405316C 36.812578 135.353516 52.920378 130.593716 59.903078 117.773216C 62.005978 113.912316 63.042678 109.759116 63.111778 105.652616L 63.153678 103.039416C 63.323978 100.637416 64.002778 98.233016 65.229478 95.978316C 67.475578 91.852216 71.153278 88.993416 75.317278 87.674516C 81.048478 80.940016 84.494178 71.476916 84.494178 61.962316C 84.467078 60.577116 84.365878 59.209116 84.197978 57.860716C 81.332378 56.310916 78.032278 55.424316 74.542178 55.424316C 69.721778 55.424316 65.310978 57.096916 61.835678 59.896716C 62.879778 63.035616 62.877278 66.540316 61.581478 69.863316C 59.545178 75.087316 54.850578 78.501216 49.632678 79.169216L 46.655978 79.346116C 40.838278 79.847116 35.526578 83.550816 33.273078 89.332316C 31.782278 93.156316 31.898278 97.203916 33.290378 100.743016C 30.303778 99.129416 26.951978 98.186316 23.313778 98.186316C 18.293278 98.186316 13.682678 99.932516 10.064178 102.850316L 10.064178 106.504916C 10.518378 115.398216 15.481978 123.851916 23.925878 128.405316L 23.928378 128.405316ZM 61.835678 59.8943C 62.879778 63.0331 62.877278 66.5379 61.581478 69.8609C 59.545178 75.0849 54.850578 78.4988 49.632678 79.1668L 46.655978 79.3436C 40.838278 79.8447 35.526578 83.5484 33.273078 89.3299C 31.782278 93.1539 31.898278 97.2015 33.290378 100.7406C 30.303778 99.127 26.951978 98.1839 23.313778 98.1839C 18.293278 98.1839 13.682678 99.9301 10.064178 102.8479L 10.064178 33.8284C 10.064178 20.6666 20.786278 10 34.011078 10C 44.320978 10 53.110378 16.4839 56.484478 25.5786C 71.158278 29.8104 82.252978 42.4196 84.195478 57.8607C 81.329878 56.311 78.029878 55.4243 74.539778 55.4243C 69.719278 55.4243 65.308478 57.0969 61.833178 59.8968L 61.835678 59.8943ZM 105.521161 96.314717C 105.521161 81.357517 96.983461 68.387117 84.496561 61.959717C 84.496561 71.476817 81.050961 80.937517 75.319661 87.674417C 71.155761 88.993317 67.478061 91.854517 65.231961 95.978217C 64.002761 98.232917 63.326461 100.637317 63.156161 103.039317L 63.114161 105.652517C 63.045061 109.759017 62.008361 113.912217 59.905461 117.773117C 52.922761 130.593517 36.814961 135.353317 23.930761 128.405217C 15.486861 123.851717 10.523261 115.398117 10.069061 106.504817L 10.069061 159.614017C 14.319361 162.008717 19.233661 163.376717 24.468861 163.376717C 26.176861 163.376717 27.850261 163.231717 29.476861 162.951717L 29.486761 162.951717C 31.769861 170.582717 38.875961 176.150717 47.290261 176.150717C 57.548261 176.150717 65.861361 167.875717 65.861361 157.671317C 65.861361 155.961917 65.626861 154.306517 65.192461 152.734717L 65.234361 152.722417C 77.657061 152.722417 87.727561 142.701817 87.727561 130.340617C 87.727561 129.837117 87.678161 128.842417 87.678161 128.842417C 96.610761 123.119817 103.033161 113.853217 104.938661 103.041817C 105.323661 100.858317 105.526061 98.611117 105.526061 96.319617L 105.521161 96.314717ZM 77.933573 201.214487C 85.367873 203.500987 93.663673 200.450687 97.689373 193.450987C 100.893173 187.878187 100.559973 181.254287 97.393273 176.150687C 106.557873 170.344587 113.560573 161.465987 116.951573 150.976287C 118.412573 146.452287 119.209573 141.631087 119.209573 136.623287C 119.209573 123.449087 113.740573 111.547187 104.938673 103.036987C 103.033173 113.850887 96.610773 123.115087 87.678173 128.837587C 87.710273 129.333687 87.727573 129.832287 87.727573 130.335787C 87.727573 142.696987 77.657073 152.717687 65.234373 152.717687L 65.192473 152.729887C 65.629373 154.301787 65.861373 155.957187 65.861373 157.666587C 65.861373 167.873787 57.545873 176.145687 47.290273 176.145687C 38.875973 176.145687 31.769973 170.577887 29.486773 162.944587L 29.476873 162.944587C 27.850373 163.226987 26.176873 163.371887 24.468873 163.371887C 19.233673 163.371887 14.321873 162.003887 10.069073 159.609287L 10.069073 199.821887C 10.004873 208.397987 15.906473 216.176987 24.653973 218.187987C 30.103873 219.442987 35.694473 218.160987 39.924973 215.178987C 54.465473 220.437987 70.538673 214.157987 77.936073 201.209587L 77.933573 201.214487ZM 117.252835 151.410896C 117.154035 151.263596 117.050435 151.121096 116.949235 150.976196C 113.557835 161.465896 106.555435 170.341996 97.390835 176.150496C 100.560035 181.254196 100.893235 187.878096 97.687035 193.450796C 93.661335 200.452996 85.365535 203.503396 77.931135 201.214296C 70.533835 214.162596 54.460535 220.440196 39.920135 215.184296C 42.743835 224.723496 51.303735 231.656896 61.425935 231.656896C 67.902635 231.656896 73.737635 228.817696 77.842335 224.276496C 82.892335 224.227396 87.715235 223.465996 87.715235 223.465996C 94.401735 222.105396 100.572335 219.329996 105.898835 215.471596C 117.650135 206.958996 125.289435 193.163496 125.289435 177.592196C 125.289435 167.893396 122.327535 158.884596 117.252835 151.410896ZM 24.65159 218.192982C 30.10149 219.447982 35.69199 218.165982 39.92259 215.184382C 42.74629 224.723582 51.30619 231.656982 61.42839 231.656982C 67.90509 231.656982 73.74009 228.817782 77.84479 224.276582C 82.89479 224.227482 87.71779 223.466082 87.71779 223.466082C 94.40419 222.105482 100.57479 219.330082 105.90129 215.471682C 106.35299 217.716482 106.59239 220.039882 106.59239 222.417382C 106.59239 241.839682 90.76849 257.587782 71.24709 257.587782C 69.19599 257.587782 67.18689 257.410982 65.23199 257.079382C 65.23199 257.135882 65.23199 257.189882 65.23199 257.243882C 65.23199 275.335082 50.49409 290.000082 32.31299 290.000082C 23.73579 290.000082 15.92379 286.733482 10.06419 281.384282L 10.06419 199.826782C 9.99999 208.403282 15.90159 216.181482 24.64909 218.192982L 24.65159 218.192982Z"></path></g></g></g><g id="g-root-2.line_sy_meu14r8x31fl-fill" data-item-order="999905927" data-item-id="2.line_sy_meu14r8x31fl" data-item-class="Curve Stroke Part Indexed" data-item-index="2" data-renderer-id="0" transform="translate(445.99993896484375, 147)"></g><g id="g-root-1.cu_sy_145hkjf8x3286-fill" data-item-order="999905928" data-item-id="1.cu_sy_145hkjf8x3286" data-item-class="Part Indexed Indexed_1 Fill Stroke" data-item-index="1" data-renderer-id="0" transform="translate(194, 3)"><g id="1.cu_sy_145hkjf8x3286-fill" stroke="none" fill="#392c6c"><g><path d="M 73.45355 59.8943C 72.40955 63.0331 72.41195 66.5379 73.70785 69.8609C 75.74415 75.0849 80.43875 78.4988 85.65665 79.1668L 88.63335 79.3436C 94.45095 79.8447 99.76265 83.5484 102.01615 89.3299C 103.50695 93.1539 103.39095 97.2015 101.99885 100.7406C 104.98545 99.127 108.33735 98.1839 111.97555 98.1839C 116.99595 98.1839 121.60665 99.9301 125.22505 102.8479L 125.22505 33.8284C 125.22505 20.6666 114.50305 10 101.27815 10C 90.96825 10 82.17885 16.4839 78.80475 25.5786C 64.13105 29.8104 53.03625 42.4196 51.09375 57.8607C 53.95935 56.311 57.25945 55.4243 60.74955 55.4243C 65.57005 55.4243 69.98075 57.0969 73.45605 59.8968L 73.45355 59.8943ZM 59.972125 87.674516C 64.136025 88.993416 67.813725 91.854616 70.059825 95.978316C 71.289025 98.233016 71.965325 100.637416 72.135625 103.039416L 72.177625 105.652616C 72.246725 109.759116 73.280925 113.912316 75.386325 117.773216C 82.369025 130.593716 98.476825 135.353516 111.361025 128.405316C 119.804925 123.851916 124.768525 115.398216 125.222725 106.504916L 125.222725 102.850316C 121.604325 99.932516 116.993625 98.186316 111.973225 98.186316C 108.337425 98.186316 104.983125 99.129416 101.996525 100.743016C 103.388625 97.203916 103.502125 93.153916 102.013825 89.332316C 99.760325 83.550816 94.448625 79.847116 88.630925 79.346116L 85.654225 79.169216C 80.436425 78.501216 75.741725 75.087316 73.705425 69.863316C 72.409625 66.540316 72.407125 63.035616 73.451225 59.896716C 69.975925 57.096916 65.565225 55.424316 60.744725 55.424316C 57.254625 55.424316 53.954525 56.313416 51.088925 57.860716C 50.918625 59.206616 50.819925 60.574616 50.792725 61.962316C 50.792725 71.479416 54.238425 80.940016 59.969625 87.676916L 59.972125 87.674516ZM 111.361152 128.405258C 98.476852 135.353358 82.369152 130.593558 75.386452 117.773058C 73.283452 113.912158 72.246852 109.759058 72.177752 105.652558L 72.135752 103.039358C 71.965452 100.637358 71.286652 98.232858 70.059952 95.978258C 67.813852 91.852058 64.136152 88.993258 59.972252 87.674358C 54.240952 80.939958 50.795252 71.476858 50.795252 61.962158C 38.305952 68.389558 29.770752 81.362358 29.770752 96.317158C 29.770752 98.611058 29.973152 100.855858 30.358152 103.039358C 32.263652 113.853258 38.686052 123.117358 47.618652 128.839958C 47.618652 128.839958 47.569252 129.834658 47.569252 130.338158C 47.569252 142.699358 57.639752 152.719958 70.062452 152.719958L 70.104352 152.732258C 69.667552 154.304058 69.435452 155.959458 69.435452 157.668858C 69.435452 167.876158 77.751052 176.148158 88.006552 176.148158C 96.420852 176.148158 103.526952 170.580158 105.810052 162.947158L 105.819952 162.947158C 107.446452 163.229158 109.119952 163.374158 110.827952 163.374158C 116.063152 163.374158 120.974952 162.006158 125.227752 159.611558L 125.227752 106.502358C 124.773552 115.395658 119.809952 123.849258 111.366052 128.402758L 111.361152 128.405258ZM 110.825429 163.37677C 109.117429 163.37677 107.443929 163.23187 105.817329 162.95187L 105.807529 162.95187C 103.524329 170.58277 96.418329 176.15057 88.004029 176.15057C 77.746029 176.15057 69.432929 167.87627 69.432929 157.67147C 69.432929 155.96207 69.667429 154.30667 70.101829 152.73477L 70.059829 152.72247C 57.637129 152.72247 47.566729 142.70187 47.566729 130.34067C 47.566729 129.83717 47.584029 129.33867 47.616129 128.84247C 38.683529 123.11997 32.261129 113.85337 30.355629 103.04187C 21.553829 111.54957 16.084229 123.45147 16.084229 136.62817C 16.084229 141.63597 16.879029 146.45717 18.342729 150.98117C 21.734029 161.47087 28.736429 170.34697 37.901029 176.15557C 34.731829 181.25917 34.398629 187.88307 37.604829 193.45587C 41.630629 200.45797 49.926329 203.50787 57.360729 201.21937C 64.758029 214.16787 80.831329 220.44487 95.371729 215.18887C 99.602329 218.17087 105.192929 219.45287 110.642829 218.19787C 119.390229 216.18387 125.292229 208.40587 125.227229 199.83167L 125.227229 159.61907C 120.977229 162.01367 116.063029 163.38167 110.827929 163.38167L 110.825429 163.37677ZM 110.640363 218.192982C 105.190463 219.447982 99.599863 218.165982 95.369263 215.184382C 92.545563 224.723582 83.985763 231.656982 73.863463 231.656982C 67.386763 231.656982 61.551863 228.817782 57.447163 224.276582C 52.397063 224.227482 47.574163 223.466082 47.574163 223.466082C 40.887663 222.105482 34.717063 219.330082 29.390563 215.471682C 28.938863 217.716482 28.699463 220.039882 28.699463 222.417382C 28.699463 241.839682 44.523363 257.587782 64.044763 257.587782C 66.095863 257.587782 68.105063 257.410982 70.059863 257.079382C 70.059863 257.135882 70.059863 257.189882 70.059863 257.243882C 70.059863 275.335082 84.797763 290.000082 102.978863 290.000082C 111.556063 290.000082 119.368063 286.733482 125.227663 281.384282L 125.227663 199.826782C 125.291863 208.403282 119.390263 216.181482 110.642763 218.192982L 110.640363 218.192982ZM 57.3583 201.214418C 49.9239 203.501018 41.6281 200.450618 37.6024 193.450918C 34.3986 187.878218 34.7318 181.254318 37.8986 176.150618C 28.734 170.344618 21.7316 161.466018 18.3402 150.976318C 18.239 151.121218 18.1353 151.263718 18.0366 151.411018C 12.9619 158.884718 10 167.893518 10 177.592318C 10 193.163618 17.6392 206.959118 29.3906 215.471718C 34.717 219.330118 40.8876 222.103018 47.5741 223.466118C 47.5741 223.466118 52.3971 224.227518 57.4471 224.276618C 61.5518 228.820318 67.3867 231.657018 73.8634 231.657018C 83.9857 231.657018 92.5456 224.723618 95.3693 215.184418C 80.8288 220.442718 64.7556 214.162718 57.3583 201.214418Z"></path></g></g></g><g id="g-root-1.line_sy_vah1dn8x2zv3-fill" data-item-order="999905931" data-item-id="1.line_sy_vah1dn8x2zv3" data-item-class="Curve Stroke Part Indexed Indexed_1" data-item-index="1" data-renderer-id="0" transform="translate(146, 147)"></g><g id="g-root-tx_mission_1lwrl178x2zv0-fill" data-item-order="1000000000" data-item-id="tx_mission_1lwrl178x2zv0" data-item-class="Label Stroke Indexed Indexed_1" data-item-index="1" data-renderer-id="0" transform="translate(2, 135)"><g id="tx_mission_1lwrl178x2zv0-fill" stroke="none" fill="#FFFFFF"><g><text style="font: 20px Roboto, sans-serif; white-space: pre;" font-weight="20px" font-size="Roboto," font-family="sans-serif"><tspan x="21.76" y="34" dominant-baseline="ideographic">Mission</tspan></text></g></g></g><g id="g-root-3_18hkbaz8xh3wv-fill" data-item-order="1000000000" data-item-id="3_18hkbaz8xh3wv" data-item-class="Icon Stroke Indexed Indexed_1" data-item-index="1" data-renderer-id="0" transform="translate(98, 129)"></g><g id="g-root-typi_6hqnv8xh0y0-fill" data-item-order="1000000000" data-item-id="typi_6hqnv8xh0y0" data-item-class="Icon Stroke Indexed" data-item-index="2" data-renderer-id="0" transform="translate(494, 129)"></g><g id="g-root-tx_vision_1hgy2wr8x30n9-fill" data-item-order="1000000000" data-item-id="tx_vision_1hgy2wr8x30n9" data-item-class="Label Stroke Indexed" data-item-index="2" data-renderer-id="0" transform="translate(542, 135)"><g id="tx_vision_1hgy2wr8x30n9-fill" stroke="none" fill="#FFFFFF"><g><text style="font: 20px Roboto, sans-serif; white-space: pre;" font-weight="20px" font-size="Roboto," font-family="sans-serif"><tspan x="12" y="34" dominant-baseline="ideographic">Vision</tspan></text></g></g></g><g id="g-root-2.cu_sy_qunj978x30nc-stroke" data-item-order="999905924" data-item-id="2.cu_sy_qunj978x30nc" data-item-class="Part Indexed Fill Stroke" data-item-index="2" data-renderer-id="0" transform="translate(318.710693359375, 3)"><g id="2.cu_sy_qunj978x30nc-stroke" fill="none" stroke-linecap="round" stroke-linejoin="round" stroke-miterlimit="4" stroke="#886AFF" stroke-width="2"><g><path d="M 23.928378 128.405316C 36.812578 135.353516 52.920378 130.593716 59.903078 117.773216C 62.005978 113.912316 63.042678 109.759116 63.111778 105.652616L 63.153678 103.039416C 63.323978 100.637416 64.002778 98.233016 65.229478 95.978316C 67.475678 91.852216 71.153278 88.993416 75.317278 87.674516C 81.048478 80.940016 84.494178 71.476916 84.494178 61.962316C 84.467078 60.577116 84.365878 59.209016 84.197978 57.860716C 81.332378 56.310916 78.032278 55.424316 74.542178 55.424316C 69.721778 55.424316 65.310978 57.096916 61.835678 59.896716C 62.879778 63.035516 62.877278 66.540316 61.581478 69.863316C 59.545178 75.087316 54.850578 78.501216 49.632678 79.169216L 46.655978 79.346116C 40.838278 79.847116 35.526578 83.550816 33.273078 89.332316C 31.782278 93.156316 31.898278 97.203916 33.290378 100.743016C 30.303778 99.129416 26.951978 98.186316 23.313778 98.186316C 18.293278 98.186316 13.682678 99.932516 10.064178 102.850316L 10.064178 106.504916C 10.518378 115.398216 15.481978 123.851916 23.925878 128.405316L 23.928378 128.405316ZM 61.835678 59.8943C 62.879778 63.0331 62.877278 66.5379 61.581478 69.8609C 59.545178 75.0849 54.850578 78.4988 49.632678 79.1668L 46.655978 79.3436C 40.838278 79.8447 35.526578 83.5484 33.273078 89.3299C 31.782278 93.1539 31.898278 97.2015 33.290378 100.7406C 30.303778 99.127 26.951978 98.1839 23.313778 98.1839C 18.293278 98.1839 13.682678 99.9301 10.064178 102.8479L 10.064178 33.8284C 10.064178 20.6666 20.786278 10 34.011078 10C 44.320978 10 53.110378 16.4839 56.484478 25.5786C 71.158278 29.8104 82.252978 42.4196 84.195478 57.8607C 81.329878 56.311 78.029878 55.4243 74.539778 55.4243C 69.719278 55.4243 65.308478 57.0969 61.833178 59.8968L 61.835678 59.8943ZM 105.521161 96.314717C 105.521161 81.357517 96.983461 68.387117 84.496561 61.959717C 84.496561 71.476817 81.050961 80.937517 75.319661 87.674417C 71.155761 88.993317 67.478061 91.854517 65.231961 95.978217C 64.002761 98.232917 63.326461 100.637317 63.156161 103.039317L 63.114161 105.652517C 63.045061 109.759017 62.008361 113.912217 59.905461 117.773117C 52.922761 130.593517 36.814961 135.353317 23.930761 128.405217C 15.486861 123.851717 10.523261 115.398117 10.069061 106.504817L 10.069061 159.614017C 14.319361 162.008717 19.233661 163.376717 24.468861 163.376717C 26.176861 163.376717 27.850261 163.231817 29.476861 162.951817L 29.486761 162.951817C 31.769861 170.582717 38.875961 176.150517 47.290261 176.150517C 57.548261 176.150517 65.861361 167.876117 65.861361 157.671317C 65.861361 155.961917 65.626861 154.306517 65.192461 152.734717L 65.234361 152.722417C 77.657061 152.722417 87.727561 142.701817 87.727561 130.340617C 87.727561 129.837117 87.678161 128.842417 87.678161 128.842417C 96.610761 123.119817 103.033161 113.853217 104.938661 103.041817C 105.323661 100.858317 105.526061 98.611117 105.526061 96.319617L 105.521161 96.314717ZM 77.933573 201.214487C 85.367873 203.500987 93.663673 200.450687 97.689373 193.450987C 100.893173 187.878187 100.559973 181.254287 97.393273 176.150687C 106.557873 170.344587 113.560273 161.465987 116.951573 150.976287C 118.412773 146.452287 119.210073 141.631087 119.210073 136.623287C 119.210073 123.449087 113.740473 111.547187 104.938673 103.036987C 103.033173 113.850887 96.610773 123.115087 87.678173 128.837587C 87.710273 129.333687 87.727573 129.832287 87.727573 130.335787C 87.727573 142.696987 77.657073 152.717687 65.234373 152.717687L 65.192473 152.729887C 65.629373 154.301787 65.861373 155.957187 65.861373 157.666587C 65.861373 167.873787 57.545873 176.145687 47.290273 176.145687C 38.875973 176.145687 31.769973 170.577887 29.486773 162.944587L 29.476873 162.944587C 27.850373 163.226987 26.176873 163.371887 24.468873 163.371887C 19.233673 163.371887 14.321873 162.003887 10.069073 159.609287L 10.069073 199.821887C 10.004873 208.398387 15.906473 216.176587 24.653973 218.188087C 30.103873 219.443187 35.694473 218.161087 39.924973 215.179487C 54.465473 220.437887 70.538673 214.157787 77.936073 201.209587L 77.933573 201.214487ZM 117.252835 151.410896C 117.154035 151.263596 117.050435 151.121096 116.949235 150.976196C 113.557835 161.465896 106.555435 170.341996 97.390835 176.150496C 100.560035 181.254196 100.893235 187.878096 97.687035 193.450796C 93.661335 200.452996 85.365535 203.503396 77.931135 201.214296C 70.533835 214.162596 54.460535 220.440196 39.920135 215.184296C 42.743835 224.723496 51.303735 231.656896 61.425935 231.656896C 67.902635 231.656896 73.737635 228.817696 77.842335 224.276496C 82.892335 224.227396 87.715235 223.465996 87.715235 223.465996C 94.401735 222.105396 100.572335 219.329996 105.898835 215.471596C 117.650135 206.958996 125.289435 193.163496 125.289435 177.592196C 125.289435 167.893396 122.327535 158.884596 117.252835 151.410896ZM 24.65159 218.192982C 30.10149 219.447982 35.69199 218.165982 39.92259 215.184382C 42.74629 224.723582 51.30619 231.656982 61.42839 231.656982C 67.90509 231.656982 73.74009 228.817782 77.84479 224.276582C 82.89479 224.227482 87.71779 223.466082 87.71779 223.466082C 94.40419 222.105482 100.57479 219.330082 105.90129 215.471682C 106.35299 217.716482 106.59239 220.039882 106.59239 222.417382C 106.59239 241.839682 90.76849 257.587782 71.24709 257.587782C 69.19599 257.587782 67.18689 257.410882 65.23199 257.079382C 65.23199 257.135882 65.23199 257.189882 65.23199 257.243882C 65.23199 275.335082 50.49409 290.000082 32.31299 290.000082C 23.73579 290.000082 15.92379 286.733482 10.06419 281.384282L 10.06419 199.826782C 9.99999 208.403282 15.90159 216.181482 24.64909 218.192982L 24.65159 218.192982ZM 33.292694 100.743042C 34.395994 103.547842 36.301494 106.033342 38.848694 107.831142M 10.066631 64.604847C 10.002431 56.028347 15.904031 48.250147 24.651531 46.238647M 40.438254 59.793643C 49.812754 56.939743 55.089854 47.066443 52.221754 37.736043C 49.353654 28.407943 39.431254 23.156943 30.056854 26.010943M 56.486989 25.578613C 54.317389 26.597913 52.374889 28.172313 50.891489 30.262413C 50.407689 30.945213 49.992989 31.652613 49.644989 32.382013M 30.027313 72.385742C 33.063213 75.328042 36.881613 77.555642 41.272613 78.705142C 42.704213 79.080842 44.140713 79.326442 45.567413 79.449242M 76.477264 110.950195C 82.791064 114.585095 87.167264 121.186895 87.675664 128.839895M 48.309597 145.619594C 44.839197 141.680094 42.736297 136.519994 42.736297 130.871094M 75.317108 87.674431C 79.698208 86.286731 84.617508 86.608431 88.978808 88.958931M 55.99826 123.326172C 57.78276 126.207072 60.32016 128.682772 63.51156 130.431472C 64.55316 131.001272 65.62196 131.472872 66.71046 131.846172M 31.885781 147.338867C 29.883981 150.288567 28.714081 153.844867 28.714081 157.671367C 28.714081 159.506067 28.983081 161.276867 29.481681 162.949367M 100.838756 151.68843C 105.876456 142.50783 104.232656 130.76063 96.171356 123.32373M 81.379228 187.271493C 78.464228 178.012293 70.555928 171.682993 61.524628 170.300293M 39.922577 215.184283C 47.174277 207.968483 47.174277 196.265483 39.922577 189.049683M 88.463104 169.89502C 91.950704 170.85532 95.137204 172.97742 97.383304 176.15072M 65.229642 257.079373C 55.662642 255.446073 47.406342 249.986273 42.114442 242.340673C 42.114442 242.340673 42.111942 242.335773 42.109542 242.333273C 41.954042 242.335773 41.796042 242.338173 41.640542 242.338173C 28.610642 242.338173 18.049042 231.828873 18.049042 218.863473C 18.049042 217.699273 18.135442 216.552373 18.298342 215.432373M 10.066631 246.19165C 10.002431 254.76815 15.904031 262.54635 24.651531 264.55785M 67.162079 230.890694C 69.126779 230.858794 71.128579 231.232094 73.048879 232.059794C 77.553379 234.002494 80.537479 237.986194 81.379179 242.453694"></path></g></g></g><g id="g-root-2.line_sy_meu14r8x31fl-stroke" data-item-order="999905927" data-item-id="2.line_sy_meu14r8x31fl" data-item-class="Curve Stroke Part Indexed" data-item-index="2" data-renderer-id="0" transform="translate(445.99993896484375, 147)"><g id="2.line_sy_meu14r8x31fl-stroke" fill="none" stroke-linecap="round" stroke-linejoin="round" stroke-miterlimit="4" stroke="#FFFFFF" stroke-width="2"><g><path d="M 46.000061 10L 12.000061 10"></path><path d="M 18.000061 3.5L 11.500061 10L 18.000061 16.5" stroke-dasharray="none"></path></g></g></g><g id="g-root-1.cu_sy_145hkjf8x3286-stroke" data-item-order="999905928" data-item-id="1.cu_sy_145hkjf8x3286" data-item-class="Part Indexed Indexed_1 Fill Stroke" data-item-index="1" data-renderer-id="0" transform="translate(194, 3)"><g id="1.cu_sy_145hkjf8x3286-stroke" fill="none" stroke-linecap="round" stroke-linejoin="round" stroke-miterlimit="4" stroke="#886AFF" stroke-width="2"><g><path d="M 73.45355 59.8943C 72.40955 63.0331 72.41195 66.5379 73.70785 69.8609C 75.74415 75.0849 80.43875 78.4988 85.65665 79.1668L 88.63335 79.3436C 94.45095 79.8447 99.76265 83.5484 102.01615 89.3299C 103.50695 93.1539 103.39095 97.2015 101.99885 100.7406C 104.98545 99.127 108.33735 98.1839 111.97555 98.1839C 116.99595 98.1839 121.60665 99.9301 125.22505 102.8479L 125.22505 33.8284C 125.22505 20.6666 114.50305 10 101.27815 10C 90.96825 10 82.17885 16.4839 78.80475 25.5786C 64.13105 29.8104 53.03625 42.4196 51.09375 57.8607C 53.95935 56.311 57.25945 55.4243 60.74955 55.4243C 65.57005 55.4243 69.98075 57.0969 73.45605 59.8968L 73.45355 59.8943ZM 59.972125 87.674516C 64.136025 88.993416 67.813725 91.854616 70.059825 95.978316C 71.289025 98.233016 71.965325 100.637416 72.135625 103.039416L 72.177625 105.652616C 72.246725 109.759116 73.280925 113.912316 75.386325 117.773216C 82.369025 130.593716 98.476825 135.353516 111.361025 128.405316C 119.804925 123.851916 124.768525 115.398216 125.222725 106.504916L 125.222725 102.850316C 121.604225 99.932516 116.993625 98.186316 111.973225 98.186316C 108.337425 98.186316 104.983125 99.129416 101.996525 100.743016C 103.388625 97.203916 103.502125 93.153916 102.013825 89.332316C 99.760325 83.550816 94.448625 79.847116 88.630925 79.346116L 85.654225 79.169216C 80.436425 78.501216 75.741725 75.087316 73.705425 69.863316C 72.409625 66.540316 72.407125 63.035516 73.451225 59.896716C 69.975925 57.096916 65.565225 55.424316 60.744725 55.424316C 57.254625 55.424316 53.954525 56.313416 51.088925 57.860716C 50.918625 59.206616 50.819925 60.574616 50.792725 61.962316C 50.792725 71.479416 54.238425 80.940016 59.969625 87.676916L 59.972125 87.674516ZM 111.361152 128.405258C 98.476852 135.353358 82.369152 130.593558 75.386452 117.773058C 73.283452 113.912158 72.246852 109.759058 72.177752 105.652558L 72.135752 103.039358C 71.965452 100.637358 71.286652 98.232858 70.059952 95.978258C 67.813852 91.852058 64.136152 88.993258 59.972252 87.674358C 54.240952 80.939958 50.795252 71.476858 50.795252 61.962158C 38.305952 68.389558 29.770752 81.362358 29.770752 96.317158C 29.770752 98.611058 29.973152 100.855858 30.358152 103.039358C 32.263652 113.853258 38.686052 123.117358 47.618652 128.839958C 47.618652 128.839958 47.569252 129.834658 47.569252 130.338158C 47.569252 142.699358 57.639752 152.719958 70.062452 152.719958L 70.104352 152.732258C 69.667552 154.304058 69.435452 155.959458 69.435452 157.668858C 69.435452 167.876158 77.751052 176.148058 88.006552 176.148058C 96.420852 176.148058 103.526952 170.580258 105.810052 162.946858L 105.819952 162.946858C 107.446452 163.229258 109.119952 163.374258 110.827952 163.374258C 116.063152 163.374258 120.974952 162.006158 125.227752 159.611558L 125.227752 106.502358C 124.773552 115.395658 119.809952 123.849258 111.366052 128.402758L 111.361152 128.405258ZM 110.825429 163.37677C 109.117429 163.37677 107.443929 163.23187 105.817329 162.95187L 105.807529 162.95187C 103.524329 170.58277 96.418329 176.15057 88.004029 176.15057C 77.746029 176.15057 69.432929 167.87627 69.432929 157.67147C 69.432929 155.96207 69.667429 154.30667 70.101829 152.73477L 70.059829 152.72247C 57.637129 152.72247 47.566729 142.70187 47.566729 130.34067C 47.566729 129.83717 47.584029 129.33867 47.616129 128.84247C 38.683529 123.11997 32.261129 113.85337 30.355629 103.04187C 21.553829 111.54957 16.084229 123.45147 16.084229 136.62817C 16.084229 141.63597 16.879029 146.45717 18.342629 150.98117C 21.734029 161.47087 28.736429 170.34697 37.901029 176.15557C 34.731829 181.25917 34.398629 187.88307 37.604829 193.45587C 41.630629 200.45797 49.926329 203.50837 57.360729 201.21937C 64.758029 214.16757 80.831329 220.44517 95.371729 215.18927C 99.602329 218.17087 105.192929 219.45297 110.642829 218.19787C 119.390229 216.18397 125.291829 208.40567 125.227629 199.83167L 125.227629 159.61907C 120.977329 162.01367 116.063029 163.38167 110.827929 163.38167L 110.825429 163.37677ZM 110.640363 218.192982C 105.190463 219.447982 99.599863 218.165982 95.369263 215.184382C 92.545563 224.723582 83.985763 231.656982 73.863463 231.656982C 67.386763 231.656982 61.551863 228.817782 57.447163 224.276582C 52.397063 224.227482 47.574163 223.466082 47.574163 223.466082C 40.887663 222.105482 34.717063 219.330082 29.390563 215.471682C 28.938863 217.716482 28.699463 220.039882 28.699463 222.417382C 28.699463 241.839682 44.523363 257.587782 64.044763 257.587782C 66.095863 257.587782 68.105063 257.410882 70.059863 257.079382C 70.059863 257.135882 70.059863 257.189882 70.059863 257.243882C 70.059863 275.335082 84.797763 290.000082 102.978863 290.000082C 111.556063 290.000082 119.368063 286.733482 125.227663 281.384282L 125.227663 199.826782C 125.291863 208.403282 119.390263 216.181482 110.642763 218.192982L 110.640363 218.192982ZM 57.3583 201.214418C 49.9239 203.501018 41.6281 200.450618 37.6024 193.450918C 34.3986 187.878218 34.7318 181.254318 37.8986 176.150618C 28.734 170.344618 21.7316 161.466018 18.3402 150.976318C 18.239 151.121218 18.1353 151.263718 18.0366 151.411018C 12.9619 158.884718 10 167.893518 10 177.592318C 10 193.163618 17.6392 206.959118 29.3906 215.471718C 34.717 219.330118 40.8876 222.103018 47.5741 223.466118C 47.5741 223.466118 52.3971 224.227518 57.4471 224.276618C 61.5518 228.820318 67.3867 231.657018 73.8634 231.657018C 83.9857 231.657018 92.5456 224.723618 95.3693 215.184418C 80.8288 220.442718 64.7556 214.162718 57.3583 201.214418ZM 125.222839 64.604847C 125.286939 56.028347 119.385439 48.250147 110.637939 46.238647M 94.850877 59.793643C 85.476477 56.939743 80.199377 47.066443 83.067477 37.736043C 85.935577 28.407943 95.857977 23.156943 105.232377 26.010943M 78.80249 25.578613C 80.97209 26.597913 82.91459 28.172313 84.39799 30.262413C 84.88179 30.945213 85.29649 31.652613 85.64449 32.382013M 105.262024 72.385742C 102.226024 75.328042 98.407724 77.555642 94.016724 78.705142C 92.585124 79.080842 91.148524 79.326442 89.721924 79.449242M 101.99643 100.743042C 100.89313 103.547842 98.98763 106.033342 96.44043 107.831142M 58.81217 110.950195C 52.49847 114.585095 48.12227 121.186895 47.61377 128.839895M 86.979736 145.619594C 90.450136 141.680094 92.553036 136.519994 92.553036 130.871094M 59.972247 87.674554C 55.591147 86.286854 50.671947 86.608554 46.310547 88.959054M 79.291302 123.326172C 77.506802 126.207072 74.969402 128.682772 71.777902 130.431472C 70.736302 131.001272 69.667602 131.472872 68.579102 131.846172M 103.405762 147.338867C 105.407462 150.288567 106.577462 153.844867 106.577462 157.671367C 106.577462 159.506067 106.308462 161.276867 105.809862 162.949367M 34.450402 151.68843C 29.412702 142.50783 31.056602 130.76063 39.117902 123.32373M 53.912598 187.271493C 56.827598 178.012293 64.735898 171.682993 73.767198 170.300293M 46.826206 169.89502C 43.338606 170.85532 40.152106 172.97742 37.906006 176.15072M 95.366779 215.184283C 88.115079 207.968483 88.115079 196.265483 95.366779 189.049683M 70.059814 257.079495C 79.626714 255.446195 87.883014 249.986395 93.174914 242.340795C 93.174914 242.340795 93.177414 242.335895 93.179914 242.333395C 93.335414 242.335895 93.493314 242.338295 93.648814 242.338295C 106.678714 242.338295 117.240414 231.828995 117.240414 218.863595C 117.240414 217.699395 117.154014 216.552495 116.991114 215.432495M 125.222839 246.191772C 125.286939 254.768272 119.385439 262.546472 110.637939 264.557972M 68.127256 230.890694C 66.162556 230.858794 64.160756 231.232094 62.240456 232.059794C 57.735956 234.002494 54.751856 237.986194 53.910156 242.453694"></path></g></g></g><g id="g-root-1.line_sy_vah1dn8x2zv3-stroke" data-item-order="999905931" data-item-id="1.line_sy_vah1dn8x2zv3" data-item-class="Curve Stroke Part Indexed Indexed_1" data-item-index="1" data-renderer-id="0" transform="translate(146, 147)"><g id="1.line_sy_vah1dn8x2zv3-stroke" fill="none" stroke-linecap="round" stroke-linejoin="round" stroke-miterlimit="4" stroke="#FFFFFF" stroke-width="2"><g><path d="M 10 10L 44 10"></path><path d="M 38 16.5L 44.5 10L 38 3.5" stroke-dasharray="none"></path></g></g></g><g id="g-root-tx_mission_1lwrl178x2zv0-stroke" data-item-order="1000000000" data-item-id="tx_mission_1lwrl178x2zv0" data-item-class="Label Stroke Indexed Indexed_1" data-item-index="1" data-renderer-id="0" transform="translate(2, 135)"></g><g id="g-root-3_18hkbaz8xh3wv-stroke" data-item-order="1000000000" data-item-id="3_18hkbaz8xh3wv" data-item-class="Icon Stroke Indexed Indexed_1" data-item-index="1" data-renderer-id="0" transform="translate(98, 129)"><g id="3_18hkbaz8xh3wv-stroke" fill="none" stroke-linecap="round" stroke-linejoin="round" stroke-miterlimit="4" stroke="#FFFFFF" stroke-width="2"><g><path d="M 44.593002 30.334C 44.970531 30.286833 45.252937 29.964455 45.25 29.584L 45.25 26.413C 45.252937 26.032545 44.970531 25.710167 44.593002 25.663L 41.216499 25.241501C 40.872322 23.587751 40.218315 22.014069 39.288998 20.6035L 41.3815 17.9035C 41.6133 17.60512 41.586945 17.180897 41.32 16.9135L 39.07 14.6635C 38.802601 14.396553 38.37838 14.3702 38.079998 14.602L 35.391998 16.7125C 33.981186 15.783326 32.407627 15.128864 30.754 14.7835L 30.3325 11.4085C 30.285334 11.030968 29.962955 10.748565 29.5825 10.7515L 26.411499 10.7515C 26.031044 10.748565 25.708668 11.030968 25.661499 11.4085L 25.24 14.7835C 23.588459 15.129582 22.016998 15.784019 20.608 16.7125L 17.915501 14.62C 17.617121 14.3882 17.192898 14.414554 16.925501 14.6815L 14.6755 16.931499C 14.408553 17.198898 14.3822 17.623119 14.614 17.921501L 16.714001 20.6215C 15.784682 22.03207 15.130678 23.605751 14.7865 25.259499L 11.41 25.681C 11.032468 25.728167 10.750065 26.050545 10.753 26.431L 10.753 29.59C 10.750065 29.970455 11.032468 30.292833 11.41 30.34L 14.7865 30.761499C 15.130678 32.415245 15.784682 33.98893 16.714001 35.399498L 14.6215 38.099499C 14.3897 38.397881 14.416054 38.822102 14.683 39.0895L 16.933001 41.3395C 17.200397 41.606445 17.62462 41.632801 17.923 41.401001L 20.622999 39.308498C 22.033813 40.237675 23.607372 40.892136 25.261 41.237499L 25.682499 44.612503C 25.729668 44.990032 26.052044 45.272438 26.432499 45.269501L 29.609501 45.269501C 29.989956 45.272438 30.312332 44.990032 30.359501 44.612503L 30.781 41.237503C 32.434628 40.892136 34.008186 40.237675 35.418999 39.308498L 38.1115 41.401001C 38.409882 41.632801 38.834103 41.606445 39.101498 41.3395L 41.351498 39.0895C 41.618446 38.822102 41.644798 38.397881 41.412998 38.099499L 39.320503 35.399502C 40.249817 33.98893 40.90382 32.415245 41.247997 30.761499ZM 18.25 28.001501C 18.25 33.386276 22.615225 37.751503 28 37.751503C 33.384777 37.751503 37.75 33.386276 37.75 28.001501C 37.75 22.616726 33.384777 18.251501 28 18.251501C 22.615225 18.251501 18.25 22.616726 18.25 28.001501ZM 28 18.251499L 28 25.751501M 25.75 28.001501C 25.75 29.244141 26.75736 30.251501 28 30.251501C 29.242641 30.251501 30.25 29.244141 30.25 28.001501C 30.25 26.75886 29.242641 25.751501 28 25.751501C 26.75736 25.751501 25.75 26.75886 25.75 28.001501ZM 29.77 29.392L 35.6665 34.025501M 26.23 29.392L 20.3335 34.025501"></path></g></g></g><g id="g-root-typi_6hqnv8xh0y0-stroke" data-item-order="1000000000" data-item-id="typi_6hqnv8xh0y0" data-item-class="Icon Stroke Indexed" data-item-index="2" data-renderer-id="0" transform="translate(494, 129)"><g id="typi_6hqnv8xh0y0-stroke" fill="none" stroke-linecap="round" stroke-linejoin="round" stroke-miterlimit="4" stroke="#FFFFFF" stroke-width="2"><g><path d="M 14.5 39.25C 14.5 40.492641 15.50736 41.5 16.75 41.5C 17.992641 41.5 19 40.492641 19 39.25C 19 38.007362 17.992641 37 16.75 37C 15.50736 37 14.5 38.007362 14.5 39.25M 34 10.75C 29.855701 10.774405 26.083433 13.145877 24.264999 16.869999C 22.829762 15.816367 21.095465 15.248779 19.315001 15.25C 14.48527 15.336985 10.640515 19.322769 10.7275 24.1525C 10.814485 28.982231 14.80027 32.826984 19.630001 32.739998C 21.204268 35.085388 23.840275 36.496124 26.664999 36.505001C 28.661644 36.505894 30.592836 35.792999 32.110001 34.494999C 32.893925 34.662971 33.693279 34.748436 34.494999 34.75C 40.989998 34.75 45.25 29.380001 45.25 22.75C 45.25 16.119999 40.494999 10.75 34 10.75ZM 20.5 24.625C 20.707108 24.625 20.875 24.792892 20.875 25C 20.875 25.207108 20.707108 25.375 20.5 25.375C 20.292892 25.375 20.125 25.207108 20.125 25C 20.125 24.792892 20.292892 24.625 20.5 24.625M 28 24.625C 28.207108 24.625 28.375 24.792892 28.375 25C 28.375 25.207108 28.207108 25.375 28 25.375C 27.792892 25.375 27.625 25.207108 27.625 25C 27.625 24.792892 27.792892 24.625 28 24.625M 35.5 24.625C 35.707108 24.625 35.875 24.792892 35.875 25C 35.875 25.207108 35.707108 25.375 35.5 25.375C 35.292892 25.375 35.125 25.207108 35.125 25C 35.125 24.792892 35.292892 24.625 35.5 24.625M 11.125 44.5C 11.332107 44.5 11.5 44.667892 11.5 44.875C 11.5 45.082108 11.332107 45.25 11.125 45.25C 10.917893 45.25 10.75 45.082108 10.75 44.875C 10.75 44.667892 10.917893 44.5 11.125 44.5"></path></g></g></g><g id="g-root-tx_vision_1hgy2wr8x30n9-stroke" data-item-order="1000000000" data-item-id="tx_vision_1hgy2wr8x30n9" data-item-class="Label Stroke Indexed" data-item-index="2" data-renderer-id="0" transform="translate(542, 135)"></g></g></g></svg>