<?xml version="1.0" encoding="utf-8" standalone="yes"?>
<!DOCTYPE svg PUBLIC "-//W3C//DTD SVG 1.1//EN" "http://www.w3.org/Graphics/SVG/1.1/DTD/svg11.dtd">
<svg width="648" height="421" viewBox="0 0 648 421" style="fill:none;stroke:none;fill-rule:evenodd;clip-rule:evenodd;stroke-linecap:round;stroke-linejoin:round;stroke-miterlimit:1.5;" version="1.1" xmlns="http://www.w3.org/2000/svg" xmlns:xlink="http://www.w3.org/1999/xlink"><style id="fontImports">@import url("https://fonts.googleapis.com/css2?family=Roboto:wght@400;700&amp;display=block");</style><g id="items" style="isolation: isolate"><g id="blend" style="mix-blend-mode:normal"><g id="g-root-0.cu_sy_1hd874315h7gu-fill" data-item-order="999891964" data-item-id="0.cu_sy_1hd874315h7gu" data-item-class="Part Indexed_0 Fill Stroke" data-item-index="0" data-renderer-id="0" transform="translate(259.523193359375, 104.523193359375)"><g id="0.cu_sy_1hd874315h7gu-fill" stroke="none" fill="#886AFF"><g><path d="M 108.811407 46.112807C 118.953807 70.598107 107.326107 98.669307 82.840807 108.811407C 58.355507 118.953807 30.284307 107.326107 20.142207 82.840807C 10.000007 58.355507 21.627507 30.284307 46.112807 20.142207C 70.598107 10.000007 98.669307 21.627507 108.811407 46.112807Z"></path></g></g></g><g id="g-root--1.cu_sy_1q8v7cz15h6o5-fill" data-item-order="999891967" data-item-id="-1.cu_sy_1q8v7cz15h6o5" data-item-class="Part Stroke" data-item-index="-1" data-renderer-id="0" transform="translate(162.33148193359375, 3)"></g><g id="g-root-3.cu_sy_18i7nyb15h5vl-fill" data-item-order="999891968" data-item-id="3.cu_sy_18i7nyb15h5vl" data-item-class="Part Indexed Fill Stroke" data-item-index="3" data-renderer-id="0" transform="translate(154.7615966796875, 53.7615966796875)"><g id="3.cu_sy_18i7nyb15h5vl-fill" stroke="none" fill="#b4a1fe"><g><path d="M 59.405703 46.420403C 54.334603 58.663103 40.299103 64.476803 28.056403 59.405703C 15.813703 54.334603 10.000003 40.299103 15.071103 28.056403C 20.142203 15.813703 34.177703 10.000003 46.420403 15.071103C 58.663103 20.142203 64.476803 34.177703 59.405703 46.420403Z"></path></g></g></g><g id="g-root-2.cu_sy_18i7nyb15h5vk-fill" data-item-order="999891970" data-item-id="2.cu_sy_18i7nyb15h5vk" data-item-class="Part Indexed Fill Stroke" data-item-index="2" data-renderer-id="0" transform="translate(286.7615966796875, 287.7615966796875)"><g id="2.cu_sy_18i7nyb15h5vk-fill" stroke="none" fill="#8b7acd"><g><path d="M 59.405703 28.056403C 64.476803 40.299103 58.663103 54.334603 46.420403 59.405703C 34.177703 64.476803 20.142203 58.663103 15.071103 46.420403C 10.000003 34.177703 15.813703 20.142203 28.056403 15.071103C 40.299103 10.000003 54.334603 15.813703 59.405703 28.056403Z"></path></g></g></g><g id="g-root-1.cu_sy_1cxeozn15h893-fill" data-item-order="999891972" data-item-id="1.cu_sy_1cxeozn15h893" data-item-class="Part Indexed Indexed_1 Fill Stroke" data-item-index="1" data-renderer-id="0" transform="translate(418.7615966796875, 53.7615966796875)"><g id="1.cu_sy_1cxeozn15h893-fill" stroke="none" fill="#62539d"><g><path d="M 28.056403 59.405703C 15.813703 54.334603 10.000003 40.299103 15.071103 28.056403C 20.142203 15.813703 34.177703 10.000003 46.420403 15.071103C 58.663103 20.142203 64.476803 34.177703 59.405703 46.420403C 54.334603 58.663103 40.299103 64.476803 28.056403 59.405703Z"></path></g></g></g><g id="g-root-tx_personal_m9v75v15h62x-fill" data-item-order="1000000000" data-item-id="tx_personal_m9v75v15h62x" data-item-class="Label Stroke Indexed ColorStrokeGray" data-item-index="3" data-renderer-id="0" transform="translate(2, 69)"><g id="tx_personal_m9v75v15h62x-fill" stroke="none" fill="#8e8e8e"><g><text style="font: 20px Roboto, sans-serif; white-space: pre;" font-weight="20px" font-size="Roboto," font-family="sans-serif"><tspan x="14.19" y="34" dominant-baseline="ideographic">Personalization</tspan></text></g></g></g><g id="g-root-play_147cn431fffgh-fill" data-item-order="1000000000" data-item-id="play_147cn431fffgh" data-item-class="Icon Stroke Indexed InsideFill InsideColorFill" data-item-index="3" data-renderer-id="0" transform="translate(170, 69)"></g><g id="g-root-meta_73oqr1fcl4w-fill" data-item-order="1000000000" data-item-id="meta_73oqr1fcl4w" data-item-class="Icon Stroke Indexed Indexed_1 InsideFill InsideColorFill" data-item-index="1" data-renderer-id="0" transform="translate(434, 69)"></g><g id="g-root-tx_curateds_4il6o315h8g3-fill" data-item-order="1000000000" data-item-id="tx_curateds_4il6o315h8g3" data-item-class="Label Stroke Indexed Indexed_1 ColorStrokeGray" data-item-index="1" data-renderer-id="0" transform="translate(482, 69)"><g id="tx_curateds_4il6o315h8g3-fill" stroke="none" fill="#8e8e8e"><g><text style="font: 20px Roboto, sans-serif; white-space: pre;" font-weight="20px" font-size="Roboto," font-family="sans-serif"><tspan x="12" y="34" dominant-baseline="ideographic">Curated Stream</tspan></text></g></g></g><g id="g-root-dot_1lxdpfn1f8cuf-fill" data-item-order="1000000000" data-item-id="dot_1lxdpfn1f8cuf" data-item-class="Icon Stroke Indexed Indexed_0 InsideFill InsideColorFill" data-item-index="0" data-renderer-id="0" transform="translate(290, 135)"></g><g id="g-root-coup_143lvr71f9rt9-fill" data-item-order="1000000000" data-item-id="coup_143lvr71f9rt9" data-item-class="Icon Stroke Indexed InsideFill InsideColorFill" data-item-index="2" data-renderer-id="0" transform="translate(302, 303)"></g><g id="g-root-tx_userinte_8yeosj15h7nu-fill" data-item-order="1000000000" data-item-id="tx_userinte_8yeosj15h7nu" data-item-class="Label Stroke Indexed ColorStrokeGray" data-item-index="2" data-renderer-id="0" transform="translate(260, 351)"><g id="tx_userinte_8yeosj15h7nu-fill" stroke="none" fill="#8e8e8e"><g><text style="font: 20px Roboto, sans-serif; white-space: pre;" font-weight="20px" font-size="Roboto," font-family="sans-serif"><tspan x="43.68" y="34" dominant-baseline="ideographic">User </tspan><tspan x="16.42" y="58" dominant-baseline="ideographic">Interaction</tspan></text></g></g></g><g id="g-root-0.cu_sy_1hd874315h7gu-stroke" data-item-order="999891964" data-item-id="0.cu_sy_1hd874315h7gu" data-item-class="Part Indexed_0 Fill Stroke" data-item-index="0" data-renderer-id="0" transform="translate(259.523193359375, 104.523193359375)"><g id="0.cu_sy_1hd874315h7gu-stroke" fill="none" stroke-linecap="round" stroke-linejoin="round" stroke-miterlimit="4" stroke="#FFFFFF" stroke-width="2"><g><path d="M 108.811407 46.112807C 118.953607 70.598107 107.326107 98.669307 82.840807 108.811407C 58.355507 118.953607 30.284307 107.326107 20.142207 82.840807C 10.000007 58.355507 21.627507 30.284307 46.112807 20.142207C 70.598107 10.000007 98.669307 21.627507 108.811407 46.112807Z"></path></g></g></g><g id="g-root--1.cu_sy_1q8v7cz15h6o5-stroke" data-item-order="999891967" data-item-id="-1.cu_sy_1q8v7cz15h6o5" data-item-class="Part Stroke" data-item-index="-1" data-renderer-id="0" transform="translate(162.33148193359375, 3)"><g id="-1.cu_sy_1q8v7cz15h6o5-stroke" fill="none" stroke-linecap="round" stroke-linejoin="round" stroke-miterlimit="4" stroke="#ffffff" stroke-width="2" stroke-dasharray="5.0, 7.0"><g><path d="M 24.670456 111.47169C 32.686156 142.23609 73.924356 184.62309 131.668456 217.96159C 206.282056 261.03979 280.199856 272.69769 296.768356 244.00009C 313.336956 215.30249 266.282056 157.11679 191.668456 114.03859C 135.824756 81.79719 80.370956 67.15629 49.058456 73.86169M 274.276293 73.86119C 242.963393 67.15689 187.510893 81.79789 131.668493 114.03849C 57.054793 157.11669 9.999993 215.30249 26.568493 244.00009C 43.137093 272.69759 117.054793 261.03979 191.668493 217.96159C 249.413893 184.62229 290.652593 142.23409 298.666993 111.46959M 140.057703 311.5748C 117.599103 289.0219 101.668503 232.3479 101.668503 166C 101.668503 79.8436 128.531403 10 161.668503 10C 194.805603 10 221.668503 79.8436 221.668503 166C 221.668503 232.3476 205.738003 289.0212 183.279603 311.5744"></path></g></g></g><g id="g-root-3.cu_sy_18i7nyb15h5vl-stroke" data-item-order="999891968" data-item-id="3.cu_sy_18i7nyb15h5vl" data-item-class="Part Indexed Fill Stroke" data-item-index="3" data-renderer-id="0" transform="translate(154.7615966796875, 53.7615966796875)"><g id="3.cu_sy_18i7nyb15h5vl-stroke" fill="none" stroke-linecap="round" stroke-linejoin="round" stroke-miterlimit="4" stroke="#FFFFFF" stroke-width="2"><g><path d="M 59.405703 46.420403C 54.334603 58.663103 40.299103 64.476803 28.056403 59.405703C 15.813703 54.334603 10.000003 40.299103 15.071103 28.056403C 20.142203 15.813703 34.177703 10.000003 46.420403 15.071103C 58.663103 20.142203 64.476803 34.177703 59.405703 46.420403Z"></path></g></g></g><g id="g-root-2.cu_sy_18i7nyb15h5vk-stroke" data-item-order="999891970" data-item-id="2.cu_sy_18i7nyb15h5vk" data-item-class="Part Indexed Fill Stroke" data-item-index="2" data-renderer-id="0" transform="translate(286.7615966796875, 287.7615966796875)"><g id="2.cu_sy_18i7nyb15h5vk-stroke" fill="none" stroke-linecap="round" stroke-linejoin="round" stroke-miterlimit="4" stroke="#FFFFFF" stroke-width="2"><g><path d="M 59.405703 28.056403C 64.476803 40.299103 58.663103 54.334603 46.420403 59.405703C 34.177703 64.476803 20.142203 58.663103 15.071103 46.420403C 10.000003 34.177703 15.813703 20.142203 28.056403 15.071103C 40.299103 10.000003 54.334603 15.813703 59.405703 28.056403Z"></path></g></g></g><g id="g-root-1.cu_sy_1cxeozn15h893-stroke" data-item-order="999891972" data-item-id="1.cu_sy_1cxeozn15h893" data-item-class="Part Indexed Indexed_1 Fill Stroke" data-item-index="1" data-renderer-id="0" transform="translate(418.7615966796875, 53.7615966796875)"><g id="1.cu_sy_1cxeozn15h893-stroke" fill="none" stroke-linecap="round" stroke-linejoin="round" stroke-miterlimit="4" stroke="#FFFFFF" stroke-width="2"><g><path d="M 28.056403 59.405703C 15.813703 54.334603 10.000003 40.299103 15.071103 28.056403C 20.142203 15.813703 34.177703 10.000003 46.420403 15.071103C 58.663103 20.142203 64.476803 34.177703 59.405703 46.420403C 54.334603 58.663103 40.299103 64.476803 28.056403 59.405703Z"></path></g></g></g><g id="g-root-tx_personal_m9v75v15h62x-stroke" data-item-order="1000000000" data-item-id="tx_personal_m9v75v15h62x" data-item-class="Label Stroke Indexed ColorStrokeGray" data-item-index="3" data-renderer-id="0" transform="translate(2, 69)"></g><g id="g-root-play_147cn431fffgh-stroke" data-item-order="1000000000" data-item-id="play_147cn431fffgh" data-item-class="Icon Stroke Indexed InsideFill InsideColorFill" data-item-index="3" data-renderer-id="0" transform="translate(170, 69)"><g id="play_147cn431fffgh-stroke" fill="none" stroke-linecap="round" stroke-linejoin="round" stroke-miterlimit="4" stroke="#FFFFFF" stroke-width="2"><g><path d="M 31.5 10.5L 14.5 10.5C 13.395431 10.5 12.5 11.395431 12.5 12.5C 12.5 13.604569 13.395431 14.5 14.5 14.5L 30.5 14.5C 31.052285 14.5 31.5 14.947715 31.5 15.5L 31.5 32.5C 31.5 33.052285 31.052285 33.5 30.5 33.5L 14.5 33.5C 13.395431 33.5 12.5 32.604569 12.5 31.5L 12.5 12.5M 14.5 12.5L 30.5 12.5M 28.5 20C 28.500001 19.171573 27.828428 18.5 27.000001 18.5L 18 18.5C 17.171573 18.5 16.5 19.171573 16.5 20L 16.5 29C 16.5 29.828428 17.171573 30.500001 18 30.500001L 27 30.5C 27.828428 30.500001 28.500001 29.828428 28.500001 29.000001ZM 20.5 24.5L 20.5 22.68C 20.49995 22.525107 20.583209 22.382157 20.717961 22.305777C 20.852712 22.229397 21.01813 22.231392 21.151 22.311L 24.185 24.131C 24.314781 24.208647 24.394231 24.348764 24.394231 24.5C 24.394231 24.651236 24.314781 24.791353 24.185 24.869L 21.151 26.689C 21.01813 26.768608 20.852712 26.770603 20.717961 26.694223C 20.583209 26.617843 20.49995 26.474893 20.5 26.32Z"></path></g></g></g><g id="g-root-meta_73oqr1fcl4w-stroke" data-item-order="1000000000" data-item-id="meta_73oqr1fcl4w" data-item-class="Icon Stroke Indexed Indexed_1 InsideFill InsideColorFill" data-item-index="1" data-renderer-id="0" transform="translate(434, 69)"><g id="meta_73oqr1fcl4w-stroke" fill="none" stroke-linecap="round" stroke-linejoin="round" stroke-miterlimit="4" stroke="#FFFFFF" stroke-width="2"><g><path d="M 20.491 23C 18.132 26.075 15.897 29 14 29C 12 29 10.5 27.5 10.5 24.5C 10.5 19 13.5 16 15.5 16C 20.5 16 26 29 30 29C 32 29 33.5 27.5 33.5 24.5C 33.5 19 30.5 16 28.5 16C 26.942 16 25.335 17.262 23.74 19"></path></g></g></g><g id="g-root-tx_curateds_4il6o315h8g3-stroke" data-item-order="1000000000" data-item-id="tx_curateds_4il6o315h8g3" data-item-class="Label Stroke Indexed Indexed_1 ColorStrokeGray" data-item-index="1" data-renderer-id="0" transform="translate(482, 69)"></g><g id="g-root-dot_1lxdpfn1f8cuf-stroke" data-item-order="1000000000" data-item-id="dot_1lxdpfn1f8cuf" data-item-class="Icon Stroke Indexed Indexed_0 InsideFill InsideColorFill" data-item-index="0" data-renderer-id="0" transform="translate(290, 135)"><g id="dot_1lxdpfn1f8cuf-stroke" fill="none" stroke-linecap="round" stroke-linejoin="round" stroke-miterlimit="4" stroke="#FFFFFF" stroke-width="2"><g><path d="M 43 11L 33 11L 17 57L 27 57L 43 11ZM 39 52C 39 54.761425 41.238579 57 44 57C 46.761425 57 49 54.761425 49 52C 49 49.238575 46.761425 47 44 47C 41.238579 47 39 49.238575 39 52Z"></path></g></g></g><g id="g-root-coup_143lvr71f9rt9-stroke" data-item-order="1000000000" data-item-id="coup_143lvr71f9rt9" data-item-class="Icon Stroke Indexed InsideFill InsideColorFill" data-item-index="2" data-renderer-id="0" transform="translate(302, 303)"><g id="coup_143lvr71f9rt9-stroke" fill="none" stroke-linecap="round" stroke-linejoin="round" stroke-miterlimit="4" stroke="#FFFFFF" stroke-width="2"><g><path d="M 24.091 12.619L 23.8 12.36C 23.572968 12.157911 23.4431 11.868447 23.4431 11.5645C 23.4431 11.260553 23.572968 10.971089 23.8 10.769L 23.8 10.769C 23.995165 10.595773 24.247046 10.500073 24.508 10.5L 25.492 10.5C 25.752954 10.500073 26.004835 10.595773 26.2 10.769L 26.2 10.769C 26.427033 10.971089 26.556901 11.260553 26.556901 11.5645C 26.556901 11.868447 26.427033 12.157911 26.2 12.36L 25.909 12.619M 12.5 24.5C 12.5 26.156855 13.843146 27.5 15.5 27.5C 17.156854 27.5 18.5 26.156855 18.5 24.5C 18.5 22.843146 17.156854 21.5 15.5 21.5C 13.843146 21.5 12.5 22.843146 12.5 24.5ZM 12.915 22.977C 14.355163 24.468827 16.568305 24.913605 18.473 24.094M 32.142 27.644C 31.742535 26.988374 31.543373 26.230305 31.568998 25.462999L 31.569 24.571C 31.569 22.876038 30.194962 21.502 28.5 21.502C 26.805039 21.502 25.431 22.876038 25.431 24.571L 25.431 25.463C 25.456625 26.230305 25.257462 26.988374 24.857999 27.643999M 25.431 25.078C 26.609599 25.076088 27.729346 24.562734 28.500001 23.671C 29.270655 24.562734 30.390403 25.076088 31.569001 25.078001M 25.806 25.06C 25.944721 26.444071 27.109494 27.497938 28.5005 27.497938C 29.891506 27.497938 31.056278 26.444071 31.195 25.06M 15.5 28.5C 12.738576 28.5 10.5 30.738577 10.5 33.5L 20.5 33.5C 20.5 30.738577 18.261424 28.5 15.5 28.5ZM 28.5 28.5C 25.738576 28.5 23.5 30.738577 23.5 33.5L 33.5 33.5C 33.5 30.738577 31.261424 28.5 28.5 28.5ZM 24.3 19.429C 25.750125 19.725006 27.229684 19.076887 27.995308 17.810277C 28.760931 16.543667 28.647096 14.932395 27.710999 13.78601C 26.774901 12.639624 25.218915 12.205963 23.824811 12.702909C 22.430708 13.199855 21.49988 14.519973 21.500001 16M 20.7 12.571C 19.249876 12.274995 17.770317 12.923114 17.004694 14.189724C 16.239071 15.456333 16.352905 17.067605 17.289003 18.213991C 18.225101 19.360376 19.781086 19.794038 21.17519 19.297092C 22.569293 18.800146 23.500121 17.480027 23.500001 16"></path></g></g></g><g id="g-root-tx_userinte_8yeosj15h7nu-stroke" data-item-order="1000000000" data-item-id="tx_userinte_8yeosj15h7nu" data-item-class="Label Stroke Indexed ColorStrokeGray" data-item-index="2" data-renderer-id="0" transform="translate(260, 351)"></g></g></g></svg>