<?xml version="1.0" encoding="utf-8" standalone="yes"?>
<!DOCTYPE svg PUBLIC "-//W3C//DTD SVG 1.1//EN" "http://www.w3.org/Graphics/SVG/1.1/DTD/svg11.dtd">
<svg width="445" height="252" viewBox="0 0 445 252" style="fill:none;stroke:none;fill-rule:evenodd;clip-rule:evenodd;stroke-linecap:round;stroke-linejoin:round;stroke-miterlimit:1.5;" version="1.1" xmlns="http://www.w3.org/2000/svg" xmlns:xlink="http://www.w3.org/1999/xlink"><style id="fontImports"></style><g id="items" style="isolation: isolate"><g id="blend" style="mix-blend-mode:normal"><g id="g-root-1.cu_sy_4kg30o29e6mc-fill" data-item-order="999942056" data-item-id="1.cu_sy_4kg30o29e6mc" data-item-class="Part Indexed Indexed_1 Fill Stroke" data-item-index="1" data-renderer-id="0" transform="translate(2.5, 47)"><g id="1.cu_sy_4kg30o29e6mc-fill" stroke="none" fill="#62539d"><g><path d="M 28 61C 28 42.7746 42.7746 28 61 28L 139 28C 152.377 28 163.895 35.9597 169.077 47.4013C 172.902 46.4852 176.894 46 181 46L 187.758 46C 181.353 25.154 161.946 10 139 10L 61 10C 32.8335 10 10 32.8335 10 61C 10 89.1665 32.8335 112 61 112L 132.242 112L 139 112C 143.106 112 147.098 111.515 150.923 110.599C 172.4 105.4546 188.595 86.7232 189.913 64L 181 64C 177.778 64 174.663 64.4618 171.719 65.3229C 170.009 78.3943 160.649 89.0594 148.281 92.6771C 145.337 93.5382 142.222 94 139 94L 130.087 94L 61 94C 42.7746 94 28 79.2254 28 61Z"></path></g></g></g><g id="g-root-2.cu_sy_1upx4qw29e77x-fill" data-item-order="999942058" data-item-id="2.cu_sy_1upx4qw29e77x" data-item-class="Part Indexed Fill Stroke" data-item-index="2" data-renderer-id="0" transform="translate(122.5869140625, 83)"><g id="2.cu_sy_1upx4qw29e77x-fill" stroke="none" fill="#8b7acd"><g><path d="M 10 58L 18.9132 58C 22.1355 58 25.2499 57.5382 28.1938 56.6771C 29.9041 43.6057 39.264 32.9406 51.6326 29.3229C 54.5766 28.4618 57.691 28 60.9132 28L 69.8265 28L 130 28L 138.913 28C 142.135 28 145.25 28.4618 148.194 29.3229C 160.562 32.9406 169.922 43.6057 171.633 56.6771C 174.577 57.5382 177.691 58 180.913 58L 189.826 58C 188.508 35.2768 172.313 16.5454 150.836 11.4013C 147.012 10.4852 143.019 10 138.913 10L 132.155 10L 67.6716 10L 60.9132 10C 56.8074 10 52.815 10.4852 48.99 11.4013C 27.5133 16.5454 11.3181 35.2768 10 58ZM 138.913 94L 60.9132 94C 47.536 94 36.0178 86.0403 30.8365 74.5987C 27.0115 75.5148 23.019 76 18.9132 76L 12.1548 76C 18.5603 96.846 37.967 112 60.9132 112L 138.913 112C 161.859 112 181.266 96.846 187.672 76L 180.913 76C 176.807 76 172.815 75.5148 168.99 74.5987C 163.809 86.0403 152.291 94 138.913 94Z"></path></g></g></g><g id="g-root-3.cu_sy_1qaq3pk29e4ue-fill" data-item-order="999942060" data-item-id="3.cu_sy_1qaq3pk29e4ue" data-item-class="Part Indexed Fill Stroke" data-item-index="3" data-renderer-id="0" transform="translate(242.5, 47)"><g id="3.cu_sy_1qaq3pk29e4ue-fill" stroke="none" fill="#b4a1fe"><g><path d="M 138.912994 112C 167.080017 112 189.912994 89.166504 189.912994 61C 189.912994 32.833496 167.080017 10 138.912994 10L 60.913208 10C 37.96701 10 18.560211 25.153992 12.1548 46L 18.913208 46C 23.019012 46 27.011505 46.485199 30.836395 47.401306C 36.0177 35.959702 47.535889 28 60.913208 28L 138.912994 28C 157.139008 28 171.912994 42.774597 171.912994 61C 171.912994 79.225403 157.139008 94 138.912994 94L 69.826416 94L 60.913208 94C 57.690887 94 54.576599 93.538208 51.632599 92.677094C 39.264008 89.059387 29.903992 78.394302 28.193787 65.322906C 25.249786 64.461792 22.135498 64 18.913208 64L 10 64C 11.3181 86.723206 27.513306 105.45459 48.98999 110.598694C 52.814911 111.514801 56.807404 112 60.913208 112L 67.6716 112L 138.912994 112Z"></path></g></g></g><g id="g-root-tx_userinte_hvwle029e51e-fill" data-item-order="1000000000" data-item-id="tx_userinte_hvwle029e51e" data-item-class="Label Stroke Indexed Indexed_1" data-item-index="1" data-renderer-id="0" transform="translate(14.5, 2)"><g id="tx_userinte_hvwle029e51e-fill" stroke="none" fill="#FFFFFF"><g><text style="font: 20px Arial, Helvetica, sans-serif; white-space: pre;" font-weight="20px" font-size="Arial," font-family="Helvetica, sans-serif"><tspan x="17.41" y="32.67" dominant-baseline="ideographic">User Interaction</tspan></text></g></g></g><g id="g-root-tx_personal_18i751k29e51c-fill" data-item-order="1000000000" data-item-id="tx_personal_18i751k29e51c" data-item-class="Label Stroke Indexed" data-item-index="3" data-renderer-id="0" transform="translate(260.5, 2)"><g id="tx_personal_18i751k29e51c-fill" stroke="none" fill="#FFFFFF"><g><text style="font: 20px Arial, Helvetica, sans-serif; white-space: pre;" font-weight="20px" font-size="Arial," font-family="Helvetica, sans-serif"><tspan x="13.63" y="32.67" dominant-baseline="ideographic">Personalization</tspan></text></g></g></g><g id="g-root-clic_1unfbk829fm6c-fill" data-item-order="1000000000" data-item-id="clic_1unfbk829fm6c" data-item-class="Icon Stroke Indexed Indexed_1 InsideFill InsideColorFill" data-item-index="1" data-renderer-id="0" transform="translate(68.5, 74)"></g><g id="g-root-clic_mdllyg15pma3-fill" data-item-order="1000000000" data-item-id="clic_mdllyg15pma3" data-item-class="Icon Stroke Indexed InsideFill InsideColorFill" data-item-index="3" data-renderer-id="0" transform="translate(308.5, 74)"></g><g id="g-root-2_v648qw29fjta-fill" data-item-order="1000000000" data-item-id="2_v648qw29fjta" data-item-class="Icon Stroke Indexed InsideFill InsideColorFill" data-item-index="2" data-renderer-id="0" transform="translate(188.5, 110)"></g><g id="g-root-tx_contentc_v6qmo829e6m9-fill" data-item-order="1000000000" data-item-id="tx_contentc_v6qmo829e6m9" data-item-class="Label Stroke Indexed" data-item-index="2" data-renderer-id="0" transform="translate(134.5, 206)"><g id="tx_contentc_v6qmo829e6m9-fill" stroke="none" fill="#FFFFFF"><g><text style="font: 20px Arial, Helvetica, sans-serif; white-space: pre;" font-weight="20px" font-size="Arial," font-family="Helvetica, sans-serif"><tspan x="12.4" y="32.67" dominant-baseline="ideographic">Content Curation</tspan></text></g></g></g><g id="g-root-1.cu_sy_4kg30o29e6mc-stroke" data-item-order="999942056" data-item-id="1.cu_sy_4kg30o29e6mc" data-item-class="Part Indexed Indexed_1 Fill Stroke" data-item-index="1" data-renderer-id="0" transform="translate(2.5, 47)"><g id="1.cu_sy_4kg30o29e6mc-stroke" fill="none" stroke-linecap="butt" stroke-linejoin="miter" stroke-miterlimit="4" stroke="#8c8c8c" stroke-width="1"><g><path d="M 28 61C 28 42.7746 42.7746 28 61 28L 139 28C 152.3773 28 163.8955 35.9597 169.0768 47.4013C 172.9017 46.4852 176.8942 46 181 46L 187.7584 46C 181.353 25.154 161.9462 10 139 10L 61 10C 32.8335 10 10 32.8335 10 61C 10 89.1665 32.8335 112 61 112L 132.2416 112L 139 112C 143.1058 112 147.0983 111.5148 150.9232 110.5987C 172.4 105.4546 188.5951 86.7232 189.9132 64L 181 64C 177.7777 64 174.6634 64.4618 171.7194 65.3229C 170.0092 78.3943 160.6492 89.0594 148.2806 92.6771C 145.3366 93.5382 142.2223 94 139 94L 130.0868 94L 61 94C 42.7746 94 28 79.2254 28 61Z"></path></g></g></g><g id="g-root-2.cu_sy_1upx4qw29e77x-stroke" data-item-order="999942058" data-item-id="2.cu_sy_1upx4qw29e77x" data-item-class="Part Indexed Fill Stroke" data-item-index="2" data-renderer-id="0" transform="translate(122.5869140625, 83)"><g id="2.cu_sy_1upx4qw29e77x-stroke" fill="none" stroke-linecap="butt" stroke-linejoin="miter" stroke-miterlimit="4" stroke="#a5a5a5" stroke-width="1"><g><path d="M 10 58L 18.9132 58C 22.1355 58 25.2499 57.5382 28.1938 56.6771C 29.9041 43.6057 39.264 32.9406 51.6326 29.3229C 54.5766 28.4618 57.691 28 60.9132 28L 69.8265 28L 130 28L 138.9132 28C 142.1355 28 145.2499 28.4618 148.1938 29.3229C 160.5624 32.9406 169.9224 43.6057 171.6326 56.6771C 174.5766 57.5382 177.691 58 180.9132 58L 189.8265 58C 188.5084 35.2768 172.3132 16.5454 150.8365 11.4013C 147.0115 10.4852 143.019 10 138.9132 10L 132.1548 10L 67.6716 10L 60.9132 10C 56.8074 10 52.815 10.4852 48.99 11.4013C 27.5133 16.5454 11.3181 35.2768 10 58ZM 138.9132 94L 60.9132 94C 47.536 94 36.0178 86.0403 30.8365 74.5987C 27.0115 75.5148 23.019 76 18.9132 76L 12.1548 76C 18.5603 96.846 37.967 112 60.9132 112L 138.9132 112C 161.8594 112 181.2662 96.846 187.6717 76L 180.9132 76C 176.8074 76 172.8149 75.5148 168.99 74.5987C 163.8087 86.0403 152.2905 94 138.9132 94ZM 30.8365 74.5987C 52.3132 69.4546 68.5084 50.7232 69.8265 28M 28.1938 56.6771C 40.5624 53.0594 49.9224 42.3943 51.6326 29.3229M 130 28C 131.3181 50.7232 147.5133 69.4546 168.99 74.5987M 148.1938 29.3229C 149.9041 42.3943 159.264 53.0594 171.6326 56.6771"></path></g></g></g><g id="g-root-3.cu_sy_1qaq3pk29e4ue-stroke" data-item-order="999942060" data-item-id="3.cu_sy_1qaq3pk29e4ue" data-item-class="Part Indexed Fill Stroke" data-item-index="3" data-renderer-id="0" transform="translate(242.5, 47)"><g id="3.cu_sy_1qaq3pk29e4ue-stroke" fill="none" stroke-linecap="butt" stroke-linejoin="miter" stroke-miterlimit="4" stroke="#bfbfbf" stroke-width="1"><g><path d="M 138.913208 112C 167.079712 112 189.913208 89.166504 189.913208 61C 189.913208 32.833496 167.079712 10 138.913208 10L 60.913208 10C 37.96701 10 18.560211 25.153992 12.1548 46L 18.913208 46C 23.019012 46 27.011505 46.485199 30.836395 47.401306C 36.0177 35.959702 47.535889 28 60.913208 28L 138.913208 28C 157.138611 28 171.913208 42.774597 171.913208 61C 171.913208 79.225403 157.138611 94 138.913208 94L 69.826416 94L 60.913208 94C 57.690887 94 54.576599 93.538208 51.632599 92.677094C 39.264008 89.059387 29.903992 78.394302 28.193787 65.322906C 25.249786 64.461792 22.135498 64 18.913208 64L 10 64C 11.3181 86.723206 27.513306 105.45459 48.98999 110.598694C 52.814911 111.514801 56.807404 112 60.913208 112L 67.6716 112L 138.913208 112ZM 28.193787 65.322906C 40.562408 68.940598 49.922394 79.605698 51.632599 92.677094M 30.836395 47.401306C 52.31311 52.545395 68.508301 71.276794 69.826416 94"></path></g></g></g><g id="g-root-tx_userinte_hvwle029e51e-stroke" data-item-order="1000000000" data-item-id="tx_userinte_hvwle029e51e" data-item-class="Label Stroke Indexed Indexed_1" data-item-index="1" data-renderer-id="0" transform="translate(14.5, 2)"></g><g id="g-root-tx_personal_18i751k29e51c-stroke" data-item-order="1000000000" data-item-id="tx_personal_18i751k29e51c" data-item-class="Label Stroke Indexed" data-item-index="3" data-renderer-id="0" transform="translate(260.5, 2)"></g><g id="g-root-clic_1unfbk829fm6c-stroke" data-item-order="1000000000" data-item-id="clic_1unfbk829fm6c" data-item-class="Icon Stroke Indexed Indexed_1 InsideFill InsideColorFill" data-item-index="1" data-renderer-id="0" transform="translate(68.5, 74)"><g id="clic_1unfbk829fm6c-stroke" fill="none" stroke-linecap="butt" stroke-linejoin="miter" stroke-miterlimit="4" stroke="#FFFFFF" stroke-width="1"><g><path d="M 36 35L 23 35C 16.380789 34.980232 11.019769 29.619213 11 23L 11 23C 11.019769 16.380789 16.380789 11.019769 23 11L 45 11C 51.619213 11.019769 56.980232 16.380789 57.000004 23L 57 23C 56.991741 27.227497 54.763638 31.139971 51.132004 33.304001M 31 28.997999L 31 18.998001M 35 28.997999L 35 18.998001M 39 28.997999L 35 23.998001L 39 18.998001M 23 19L 23 27C 23 28.10457 23.895432 29 25 29L 27 29M 47 29L 45 29C 43.895432 29 43 28.10457 43 27L 43 21C 43 19.895432 43.895432 19 45 19L 47 19M 43 24.998001L 47 24.998001M 57 57L 57 51.664001C 56.998894 47.98325 54.014748 45 50.334 45L 47 45L 47 36C 47 34.343147 45.656857 33 44 33C 42.343147 33 41 34.343147 41 36L 41 50L 38.422001 47.84C 37.538345 46.778507 35.961491 46.634342 34.900002 47.517998C 33.838509 48.401653 33.694344 49.978508 34.577999 51.040001L 39.535999 57"></path></g></g></g><g id="g-root-clic_mdllyg15pma3-stroke" data-item-order="1000000000" data-item-id="clic_mdllyg15pma3" data-item-class="Icon Stroke Indexed InsideFill InsideColorFill" data-item-index="3" data-renderer-id="0" transform="translate(308.5, 74)"><g id="clic_mdllyg15pma3-stroke" fill="none" stroke-linecap="butt" stroke-linejoin="miter" stroke-miterlimit="4" stroke="#FFFFFF" stroke-width="1"><g><path d="M 55 57L 55 51.666C 54.998898 47.984928 52.015076 45.001106 48.334003 45.000004L 45 45L 45 36C 45 34.343147 43.656857 33 42 33C 40.343147 33 39 34.343147 39 36L 39 50L 36.422001 47.84C 35.538345 46.778507 33.961491 46.634342 32.900002 47.517998C 31.838509 48.401653 31.694344 49.978508 32.577999 51.040001L 37.535999 57M 29 57L 15 57C 12.790861 57 11 55.209141 11 53L 11 15C 11 12.790861 12.790861 11 15 11L 53 11C 55.209141 11 57 12.790861 57 15L 57 41M 11 20.998001L 57 20.998001M 18 26.997999L 30 26.997999C 30 26.997999 31 26.997999 31 27.997999L 31 41.998001C 31 41.998001 31 42.998001 30 42.998001L 18 42.998001C 18 42.998001 17 42.998001 17 41.998001L 17 27.997999C 17 27.997999 17 26.997999 18 26.997999M 21 33.998001C 21 35.654854 22.343147 36.998001 24 36.998001C 25.656855 36.998001 27 35.654854 27 33.998001C 27 32.341148 25.656855 30.998001 24 30.998001C 22.343147 30.998001 21 32.341148 21 33.998001M 29 43L 19 43C 18.749329 39.970428 20.974888 37.299755 24 37C 27.025112 37.299755 29.250671 39.970428 29 43ZM 18 46.998001L 26 46.998001M 18 50.998001L 26 50.998001M 18 15.498C 18.275883 15.498002 18.49963 15.721455 18.499996 15.997335C 18.500362 16.273216 18.277208 16.497263 18.001328 16.497997C 17.725449 16.498734 17.501102 16.275879 17.5 16C 17.499468 15.867045 17.551912 15.739354 17.645737 15.645153C 17.739563 15.550952 17.867044 15.497999 18 15.498M 24 15.498C 24.275883 15.498002 24.49963 15.721455 24.499996 15.997335C 24.500362 16.273216 24.277208 16.497263 24.001328 16.497997C 23.725449 16.498734 23.501102 16.275879 23.5 16C 23.499468 15.867045 23.55191 15.739354 23.645737 15.645153C 23.739563 15.550952 23.867044 15.497999 24 15.498M 30 15.498C 30.275881 15.498002 30.49963 15.721455 30.499996 15.997335C 30.500362 16.273216 30.277208 16.497263 30.001328 16.497997C 29.725447 16.498734 29.501104 16.275879 29.5 16C 29.5 15.723858 29.723858 15.5 30 15.5M 38 26.997999L 51 26.997999"></path></g></g></g><g id="g-root-2_v648qw29fjta-stroke" data-item-order="1000000000" data-item-id="2_v648qw29fjta" data-item-class="Icon Stroke Indexed InsideFill InsideColorFill" data-item-index="2" data-renderer-id="0" transform="translate(188.5, 110)"><g id="2_v648qw29fjta-stroke" fill="none" stroke-linecap="butt" stroke-linejoin="miter" stroke-miterlimit="4" stroke="#FFFFFF" stroke-width="1"><g><path d="M 34.031998 51C 34.031998 47 36 45 40 45L 50 45C 51.104568 45 52 44.104568 52 43L 52 15C 52 13.895431 51.104568 13 50 13L 40 13C 38.347588 12.764237 36.680595 13.320066 35.500328 14.50033C 34.320068 15.680593 33.764236 17.347589 34 19C 34.235764 17.347589 33.679932 15.680593 32.499672 14.50033C 31.319407 13.320066 29.652411 12.764237 28 13L 18 13C 16.895432 13 16 13.895431 16 15L 16 43C 16 44.104568 16.895432 45 18 45L 28 45C 32 45 34.031998 47 34.031998 51ZM 52 17L 54 17C 55.104568 17 56 17.895432 56 19L 56 47C 56 48.104568 55.104568 49 54 49L 44 49C 40 49 37 51 37 55L 31 55C 31 51 28 49 24 49L 14 49C 12.895431 49 12 48.104568 12 47L 12 19C 12 17.895432 12.895431 17 14 17L 16 17M 34 19L 34 50"></path></g></g></g><g id="g-root-tx_contentc_v6qmo829e6m9-stroke" data-item-order="1000000000" data-item-id="tx_contentc_v6qmo829e6m9" data-item-class="Label Stroke Indexed" data-item-index="2" data-renderer-id="0" transform="translate(134.5, 206)"></g></g></g></svg>