<svg width="420" height="212" viewBox="0 0 420 212" fill="none" xmlns="http://www.w3.org/2000/svg">
<rect x="279.688" y="80" width="140" height="132" fill="#0F969C"/>
<path d="M279.687 64H399.324L419.688 80H279.688L279.687 64Z" fill="#0F969C" fill-opacity="0.5"/>
<path d="M348.764 140.56C344.658 140.56 341.298 140.037 338.684 138.992C336.071 137.909 334.13 136.379 332.86 134.4C331.591 132.421 330.956 130.051 330.956 127.288V126.392H339.86V127.288C339.86 128.557 340.047 129.584 340.42 130.368C340.831 131.115 341.634 131.656 342.828 131.992C344.06 132.328 345.908 132.496 348.372 132.496C350.724 132.496 352.572 132.365 353.916 132.104C355.26 131.843 356.212 131.395 356.772 130.76C357.332 130.088 357.612 129.211 357.612 128.128C357.612 126.709 357.164 125.701 356.268 125.104C355.41 124.469 354.084 124.152 352.292 124.152H341.484V117.264H351.508C353.151 117.264 354.346 116.965 355.092 116.368C355.839 115.771 356.212 114.893 356.212 113.736C356.212 112.877 355.988 112.168 355.54 111.608C355.13 111.048 354.346 110.637 353.188 110.376C352.031 110.115 350.388 109.984 348.26 109.984C346.02 109.984 344.284 110.152 343.052 110.488C341.858 110.824 341.018 111.384 340.532 112.168C340.084 112.915 339.86 113.923 339.86 115.192V115.472H330.956V115.192C330.956 112.541 331.61 110.227 332.916 108.248C334.223 106.269 336.202 104.72 338.852 103.6C341.54 102.48 344.919 101.92 348.988 101.92C354.028 101.92 357.874 102.76 360.524 104.44C363.212 106.12 364.556 108.621 364.556 111.944C364.556 114.072 363.922 115.827 362.652 117.208C361.42 118.589 359.572 119.448 357.108 119.784V120.4C359.871 120.773 362.074 121.688 363.716 123.144C365.359 124.6 366.18 126.709 366.18 129.472C366.18 133.093 364.631 135.856 361.532 137.76C358.471 139.627 354.215 140.56 348.764 140.56Z" fill="white"/>
<rect x="0.3125" y="48" width="140" height="164" fill="#0F969C"/>
<path d="M19.4034 32H140.312V48H0.3125L19.4034 32Z" fill="#0F969C" fill-opacity="0.5"/>
<path d="M87.5741 122H54.2541V116.624C54.2541 114.421 54.5901 112.536 55.2621 110.968C55.9714 109.4 57.1101 108.075 58.6781 106.992C60.2834 105.872 62.3928 104.864 65.0061 103.968L74.6381 100.832C75.7954 100.421 76.6914 100.011 77.3261 99.6C77.9981 99.1893 78.4834 98.704 78.7821 98.144C79.0808 97.584 79.2301 96.8933 79.2301 96.072C79.2301 95.1387 79.0061 94.336 78.5581 93.664C78.1474 92.992 77.3821 92.488 76.2621 92.152C75.1421 91.7787 73.5554 91.592 71.5021 91.592C69.1874 91.592 67.3768 91.8347 66.0701 92.32C64.8008 92.768 63.8861 93.4587 63.3261 94.392C62.8034 95.288 62.5421 96.4267 62.5421 97.808V98.536H54.3101V97.808C54.3101 95.344 54.8888 93.0667 56.0461 90.976C57.2408 88.8853 59.1074 87.1867 61.6461 85.88C64.2221 84.5733 67.6008 83.92 71.7821 83.92C75.5528 83.92 78.5954 84.4613 80.9101 85.544C83.2621 86.5893 84.9794 88.0267 86.0621 89.856C87.1448 91.6853 87.6861 93.7947 87.6861 96.184C87.6861 98.424 87.2194 100.309 86.2861 101.84C85.3901 103.333 84.1208 104.584 82.4781 105.592C80.8354 106.563 78.8941 107.365 76.6541 108L68.4781 110.24C67.2461 110.576 66.2194 110.968 65.3981 111.416C64.6141 111.827 64.0354 112.349 63.6621 112.984C63.2888 113.581 63.1021 114.384 63.1021 115.392L72.9021 114.44H87.5741V122Z" fill="white"/>
<rect x="139.812" y="16" width="140" height="196" fill="url(#paint0_linear_620_347)"/>
<path d="M160.176 0H259.449L279.812 16H139.812L160.176 0Z" fill="#0F969C" fill-opacity="0.5"/>
<path d="M218.623 76H210.223V48.896H200.591V43.128H202.159C204.25 43.128 206.004 42.8293 207.423 42.232C208.842 41.5973 210.018 40.3467 210.951 38.48H218.623V76Z" fill="white"/>
<defs>
<linearGradient id="paint0_linear_620_347" x1="209.812" y1="16" x2="209.813" y2="153.837" gradientUnits="userSpaceOnUse">
<stop stop-color="#0F969C"/>
<stop offset="1" stop-color="#0F969C" stop-opacity="0.5"/>
</linearGradient>
</defs>
</svg>
