<?xml version="1.0" encoding="utf-8" standalone="yes"?>
<!DOCTYPE svg PUBLIC "-//W3C//DTD SVG 1.1//EN" "http://www.w3.org/Graphics/SVG/1.1/DTD/svg11.dtd">
<svg width="703" height="286" viewBox="0 0 703 286" style="fill:none;stroke:none;fill-rule:evenodd;clip-rule:evenodd;stroke-linecap:round;stroke-linejoin:round;stroke-miterlimit:1.5;" version="1.1" xmlns="http://www.w3.org/2000/svg" xmlns:xlink="http://www.w3.org/1999/xlink"><style id="fontImports">@import url("https://fonts.googleapis.com/css2?family=Roboto:wght@400;700&amp;display=block");</style><g id="items" style="isolation: isolate"><g id="blend" style="mix-blend-mode:normal"><g id="g-root-3.cu_sy_htec7j1x4vchx-fill" data-item-order="999928518" data-item-id="3.cu_sy_htec7j1x4vchx" data-item-class="Part Indexed Fill Stroke" data-item-index="4" data-renderer-id="0" transform="translate(395.536865234375, 112.446044921875)"><g id="3.cu_sy_htec7j1x4vchx-fill" stroke="none" fill="#6c47ff"><g><path d="M 28.4966 135.818L 143.661 135.878C 142.249 87.2093 122.726 43.0818 91.5959 10L 10 91.512001C 20.4126 103.606801 27.1545 118.952001 28.4966 135.818Z"></path></g></g></g><g id="g-root-3.cu_sy_8witmn1vgqqrt-fill" data-item-order="999928520" data-item-id="3.cu_sy_8witmn1vgqqrt" data-item-class="Part Indexed Fill Stroke" data-item-index="3" data-renderer-id="0" transform="translate(343.091064453125, 52.08477783203125)"><g id="3.cu_sy_8witmn1vgqqrt-fill" stroke="none" fill="#6c47ff"><g><path d="M 54.2876 143.707L 135.884 62.1953C 102.8306 31.0287 58.7202 11.4613 10.0593 10L 10 125.165C 26.8633 126.524 42.2024 133.282 54.2876 143.707Z"></path></g></g></g><g id="g-root-2.cu_sy_htec7j1x4vchw-fill" data-item-order="999928522" data-item-id="2.cu_sy_htec7j1x4vchw" data-item-class="Part Indexed Fill Stroke" data-item-index="2" data-renderer-id="0" transform="translate(205.72979736328125, 52.07891845703125)"><g id="2.cu_sy_htec7j1x4vchw-fill" stroke="none" fill="#6c47ff"><g><path d="M 91.0519 143.201C 103.3025 132.847 118.81 126.225 135.818 125.092L 135.878 10C 87.2093 11.4122 43.0818 30.9356 10 62.0655L 91.0519 143.201Z"></path></g></g></g><g id="g-root-1.cu_sy_m97ubz1x4vbpn-fill" data-item-order="999928524" data-item-id="1.cu_sy_m97ubz1x4vbpn" data-item-class="Part Indexed Indexed_1 Fill Stroke" data-item-index="1" data-renderer-id="0" transform="translate(145.36843872070312, 112.30255126953125)"><g id="1.cu_sy_m97ubz1x4vbpn-fill" stroke="none" fill="#6c47ff"><g><path d="M 62.1951 10C 31.0286 43.0529 11.4613 87.1633 10 135.824L 124.165 135.883C 125.545 118.77 132.483 103.2269 143.173 91.0611L 62.1951 10Z"></path></g></g></g><g id="g-root-tx_studenti_1lr5e8f1x4vaww-fill" data-item-order="1000000000" data-item-id="tx_studenti_1lr5e8f1x4vaww" data-item-class="Label Stroke" data-item-index="none" data-renderer-id="0" transform="translate(146, 2)"><g id="tx_studenti_1lr5e8f1x4vaww-fill" stroke="none" fill="#886AFF"><g><text style="font: bold 20px Roboto, sans-serif; white-space: pre;" font-weight="bold" font-size="20" font-family="Roboto, sans-serif"><tspan x="17.28" y="34" dominant-baseline="ideographic">Vrunda </tspan></text></g></g></g><g id="g-root-tx_studenti_de74wf1ysonwp-fill" data-item-order="1000000000" data-item-id="tx_studenti_de74wf1ysonwp" data-item-class="Label Stroke" data-item-index="none" data-renderer-id="0" transform="translate(433.3682861328125, 2)"><g id="tx_studenti_de74wf1ysonwp-fill" stroke="none" fill="#886AFF"><g><text style="font: bold 20px Roboto, sans-serif; white-space: pre;" font-weight="bold" font-size="20" font-family="Roboto, sans-serif"><tspan x="16.2" y="34" dominant-baseline="ideographic">Meghana</tspan></text></g></g></g><g id="g-root-tx_eachstud_m7cf2n1x4vcp9-fill" data-item-order="1000000000" data-item-id="tx_eachstud_m7cf2n1x4vcp9" data-item-class="Label Stroke ColorFillGray" data-item-index="none" data-renderer-id="0" transform="translate(140, 32)"><g id="tx_eachstud_m7cf2n1x4vcp9-fill" stroke="none" fill="#ebe9ed"><g><text style="font: 15px Roboto, sans-serif; white-space: pre;" font-weight="15px" font-size="Roboto," font-family="sans-serif"><tspan x="15.91" y="28" dominant-baseline="ideographic">Leaderboard</tspan><tspan x="20.56" y="46" dominant-baseline="ideographic">User Login </tspan></text></g></g></g><g id="g-root-tx_eachstud_146r4pr1v6y6mc-fill" data-item-order="1000000000" data-item-id="tx_eachstud_146r4pr1v6y6mc" data-item-class="Label Stroke ColorFillGray" data-item-index="none" data-renderer-id="0" transform="translate(439.3682861328125, 32.000030517578125)"><g id="tx_eachstud_146r4pr1v6y6mc-fill" stroke="none" fill="#ebe9ed"><g><text style="font: 15px Roboto, sans-serif; white-space: pre;" font-weight="15px" font-size="Roboto," font-family="sans-serif"><tspan x="15.74" y="28" dominant-baseline="ideographic">Dashboard</tspan><tspan x="21.45" y="46" dominant-baseline="ideographic">About Us</tspan></text></g></g></g><g id="g-root-desk_4o6nv31x4ips1-fill" data-item-order="1000000000" data-item-id="desk_4o6nv31x4ips1" data-item-class="Icon Stroke Indexed InsideFill InsideColorFill" data-item-index="2" data-renderer-id="0" transform="translate(262.3683776855469, 94.07891845703125)"></g><g id="g-root-1_4pf69r1wah4ox-fill" data-item-order="1000000000" data-item-id="1_4pf69r1wah4ox" data-item-class="Icon Stroke Indexed InsideFill InsideColorFill" data-item-index="3" data-renderer-id="0" transform="translate(364.3682861328125, 94.07891845703125)"></g><g id="g-root-tx_taskcate_18fovv31x4vcht-fill" data-item-order="1000000000" data-item-id="tx_taskcate_18fovv31x4vcht" data-item-class="Label Stroke" data-item-index="none" data-renderer-id="0" transform="translate(26, 146)"><g id="tx_taskcate_18fovv31x4vcht-fill" stroke="none" fill="#886AFF"><g><text style="font: bold 20px Roboto, sans-serif; white-space: pre;" font-weight="bold" font-size="20" font-family="Roboto, sans-serif"><tspan x="12" y="34" dominant-baseline="ideographic">Ayesha</tspan></text></g></g></g><g id="g-root-tx_visualre_4govnz1x4vbwn-fill" data-item-order="1000000000" data-item-id="tx_visualre_4govnz1x4vbwn" data-item-class="Label Stroke" data-item-index="none" data-renderer-id="0" transform="translate(584.1578979492188, 146)"><g id="tx_visualre_4govnz1x4vbwn-fill" stroke="none" fill="#886AFF"><g><text style="font: bold 20px Roboto, sans-serif; white-space: pre;" font-weight="bold" font-size="20" font-family="Roboto, sans-serif"><tspan x="18.14" y="34" dominant-baseline="ideographic">Khushi</tspan></text></g></g></g><g id="g-root-tx_differen_8widsf1x4vb4e-fill" data-item-order="1000000000" data-item-id="tx_differen_8widsf1x4vb4e" data-item-class="Label Stroke ColorFillGray" data-item-index="none" data-renderer-id="0" transform="translate(2, 172.078857421875)"><g id="tx_differen_8widsf1x4vb4e-fill" stroke="none" fill="#ebe9ed"><g><text style="font: 15px Roboto, sans-serif; white-space: pre;" font-weight="15px" font-size="Roboto," font-family="sans-serif"><tspan x="37.62" y="34" dominant-baseline="ideographic">User Post</tspan><tspan x="14.2" y="52" dominant-baseline="ideographic">Community Chat</tspan><tspan x="36.68" y="70" dominant-baseline="ideographic">Your Feed</tspan></text></g></g></g><g id="g-root-1_1utnplb1x4iqdm-fill" data-item-order="1000000000" data-item-id="1_1utnplb1x4iqdm" data-item-class="Icon Stroke Indexed Indexed_1 InsideFill InsideColorFill" data-item-index="1" data-renderer-id="0" transform="translate(187.36837768554688, 172.078857421875)"></g><g id="g-root-task_9405zj1x4iozs-fill" data-item-order="1000000000" data-item-id="task_9405zj1x4iozs" data-item-class="Icon Stroke Indexed InsideFill InsideColorFill" data-item-index="4" data-renderer-id="0" transform="translate(439.3682861328125, 172.078857421875)"></g><g id="g-root-tx_clearand_zisxfz1x4vb4c-fill" data-item-order="1000000000" data-item-id="tx_clearand_zisxfz1x4vb4c" data-item-class="Label Stroke ColorFillGray" data-item-index="none" data-renderer-id="0" transform="translate(560.1578979492188, 172.078857421875)"><g id="tx_clearand_zisxfz1x4vb4c-fill" stroke="none" fill="#ebe9ed"><g><text style="font: 15px Roboto, sans-serif; white-space: pre;" font-weight="15px" font-size="Roboto," font-family="sans-serif"><tspan x="18.91" y="34" dominant-baseline="ideographic">Activity Tracker</tspan><tspan x="12.81" y="52" dominant-baseline="ideographic">User Registration</tspan><tspan x="34.42" y="70" dominant-baseline="ideographic">User Login</tspan></text></g></g></g><g id="g-root-1_v989cf1x4fuh3-fill" data-item-order="1000000000" data-item-id="1_v989cf1x4fuh3" data-item-class="Icon Stroke Title" data-item-index="none" data-renderer-id="0" transform="translate(301.368408203125, 190.078857421875)"></g><g id="g-root-3.cu_sy_htec7j1x4vchx-stroke" data-item-order="999928518" data-item-id="3.cu_sy_htec7j1x4vchx" data-item-class="Part Indexed Fill Stroke" data-item-index="4" data-renderer-id="0" transform="translate(395.536865234375, 112.446044921875)"></g><g id="g-root-3.cu_sy_8witmn1vgqqrt-stroke" data-item-order="999928520" data-item-id="3.cu_sy_8witmn1vgqqrt" data-item-class="Part Indexed Fill Stroke" data-item-index="3" data-renderer-id="0" transform="translate(343.091064453125, 52.08477783203125)"></g><g id="g-root-2.cu_sy_htec7j1x4vchw-stroke" data-item-order="999928522" data-item-id="2.cu_sy_htec7j1x4vchw" data-item-class="Part Indexed Fill Stroke" data-item-index="2" data-renderer-id="0" transform="translate(205.72979736328125, 52.07891845703125)"></g><g id="g-root-1.cu_sy_m97ubz1x4vbpn-stroke" data-item-order="999928524" data-item-id="1.cu_sy_m97ubz1x4vbpn" data-item-class="Part Indexed Indexed_1 Fill Stroke" data-item-index="1" data-renderer-id="0" transform="translate(145.36843872070312, 112.30255126953125)"></g><g id="g-root-tx_studenti_1lr5e8f1x4vaww-stroke" data-item-order="1000000000" data-item-id="tx_studenti_1lr5e8f1x4vaww" data-item-class="Label Stroke" data-item-index="none" data-renderer-id="0" transform="translate(146, 2)"></g><g id="g-root-tx_studenti_de74wf1ysonwp-stroke" data-item-order="1000000000" data-item-id="tx_studenti_de74wf1ysonwp" data-item-class="Label Stroke" data-item-index="none" data-renderer-id="0" transform="translate(433.3682861328125, 2)"></g><g id="g-root-tx_eachstud_m7cf2n1x4vcp9-stroke" data-item-order="1000000000" data-item-id="tx_eachstud_m7cf2n1x4vcp9" data-item-class="Label Stroke ColorFillGray" data-item-index="none" data-renderer-id="0" transform="translate(140, 32)"></g><g id="g-root-tx_eachstud_146r4pr1v6y6mc-stroke" data-item-order="1000000000" data-item-id="tx_eachstud_146r4pr1v6y6mc" data-item-class="Label Stroke ColorFillGray" data-item-index="none" data-renderer-id="0" transform="translate(439.3682861328125, 32.000030517578125)"></g><g id="g-root-desk_4o6nv31x4ips1-stroke" data-item-order="1000000000" data-item-id="desk_4o6nv31x4ips1" data-item-class="Icon Stroke Indexed InsideFill InsideColorFill" data-item-index="2" data-renderer-id="0" transform="translate(262.3683776855469, 94.07891845703125)"><g id="desk_4o6nv31x4ips1-stroke" fill="none" stroke-linecap="round" stroke-linejoin="round" stroke-miterlimit="4" stroke="#FFFFFF" stroke-width="2"><g><path d="M 17 27C 17 30.865993 20.134007 34 24 34C 27.865993 34 31 30.865993 31 27C 31 23.134007 27.865993 20 24 20C 20.134007 20 17 23.134007 17 27M 24 20L 24 27L 31 27M 28 55C 29.811644 52.712475 30.860811 49.914696 31 47M 40 55C 38.188354 52.712475 37.139191 49.914696 37 47M 24.998001 55L 42.998001 55M 11 41L 57 41M 13 13L 55 13C 55 13 57 13 57 15L 57 45C 57 45 57 47 55 47L 13 47C 13 47 11 47 11 45L 11 15C 11 15 11 13 13 13M 37 24L 40 20L 46 25L 51 19M 49 35L 49 32M 45 35L 45 31M 41 35L 41 29M 37 35L 37 32"></path></g></g></g><g id="g-root-1_4pf69r1wah4ox-stroke" data-item-order="1000000000" data-item-id="1_4pf69r1wah4ox" data-item-class="Icon Stroke Indexed InsideFill InsideColorFill" data-item-index="3" data-renderer-id="0" transform="translate(364.3682861328125, 94.07891845703125)"><g id="1_4pf69r1wah4ox-stroke" fill="none" stroke-linecap="round" stroke-linejoin="round" stroke-miterlimit="4" stroke="#FFFFFF" stroke-width="2"><g><path d="M 27.91 38.784C 27.909092 41.997833 30.514164 44.603642 33.727997 44.603642C 36.941833 44.603642 39.546906 41.997833 39.545998 38.783997C 39.546906 35.570164 36.941833 32.964355 33.727997 32.964355C 30.514164 32.964355 27.909092 35.570164 27.909998 38.783997M 42.453999 56.966C 42.501678 53.816654 40.848831 50.885918 38.129086 49.297321C 35.40934 47.708725 32.044655 47.708725 29.324913 49.297321C 26.605169 50.885918 24.95232 53.816654 25 56.966M 45 42.765999C 45.000004 45.196056 46.969948 47.166 49.400002 47.166C 51.830055 47.166 53.800003 45.196056 53.800003 42.766003C 53.800003 40.335949 51.830055 38.366001 49.400002 38.366001C 46.969948 38.366001 45.000004 40.335949 45.000004 42.766003M 56 55.966C 56.00066 53.530556 54.660049 51.292671 52.512413 50.144169C 50.36478 48.995667 47.759186 49.123222 45.734001 50.476002M 14.2 42.765999C 14.200001 45.196056 16.169949 47.166 18.6 47.166C 21.030052 47.166 23 45.196056 23 42.766003C 23 40.335949 21.030052 38.366001 18.6 38.366001C 16.169949 38.366001 14.200001 40.335949 14.200001 42.766003M 12 55.966C 11.999339 53.530556 13.339952 51.292671 15.487587 50.144169C 17.635221 48.995667 20.240814 49.123222 22.265999 50.476002M 34.498001 11.644L 36.678001 16.34L 40.917999 16.34C 41.356129 16.32304 41.757835 16.582684 41.922295 16.98913C 42.086758 17.395576 41.978642 17.861509 41.652 18.153999L 37.970001 21.778L 40.010002 26.462C 40.194092 26.901949 40.07658 27.410318 39.71809 27.724846C 39.359596 28.039375 38.840263 28.089758 38.428001 27.85L 33.498001 25.077999L 28.57 27.85C 28.157513 28.088459 27.638947 28.037638 27.280602 27.723635C 26.922258 27.40963 26.803776 26.902229 26.986 26.462L 29.025999 21.778L 25.346001 18.153999C 25.017908 17.863163 24.907936 17.397545 25.071232 16.990648C 25.234529 16.583752 25.635876 16.323338 26.073999 16.34L 30.316 16.34L 32.498001 11.644C 32.691444 11.27025 33.07716 11.035567 33.498001 11.035567C 33.918846 11.035567 34.304562 11.27025 34.498001 11.644Z"></path></g></g></g><g id="g-root-tx_taskcate_18fovv31x4vcht-stroke" data-item-order="1000000000" data-item-id="tx_taskcate_18fovv31x4vcht" data-item-class="Label Stroke" data-item-index="none" data-renderer-id="0" transform="translate(26, 146)"></g><g id="g-root-tx_visualre_4govnz1x4vbwn-stroke" data-item-order="1000000000" data-item-id="tx_visualre_4govnz1x4vbwn" data-item-class="Label Stroke" data-item-index="none" data-renderer-id="0" transform="translate(584.1578979492188, 146)"></g><g id="g-root-tx_differen_8widsf1x4vb4e-stroke" data-item-order="1000000000" data-item-id="tx_differen_8widsf1x4vb4e" data-item-class="Label Stroke ColorFillGray" data-item-index="none" data-renderer-id="0" transform="translate(2, 172.078857421875)"></g><g id="g-root-1_1utnplb1x4iqdm-stroke" data-item-order="1000000000" data-item-id="1_1utnplb1x4iqdm" data-item-class="Icon Stroke Indexed Indexed_1 InsideFill InsideColorFill" data-item-index="1" data-renderer-id="0" transform="translate(187.36837768554688, 172.078857421875)"><g id="1_1utnplb1x4iqdm-stroke" fill="none" stroke-linecap="round" stroke-linejoin="round" stroke-miterlimit="4" stroke="#FFFFFF" stroke-width="2"><g><path d="M 40 30.688L 33.599998 24.02C 32.448898 22.868744 32.163696 21.110027 32.892002 19.653999L 32.891998 19.653999C 33.435287 18.566458 34.468483 17.806585 35.668503 17.612C 36.868519 17.417412 38.08889 17.811861 38.947998 18.672001L 40 19.714001L 41.043999 18.672001C 41.903111 17.811861 43.123482 17.417412 44.323502 17.612C 45.523518 17.806585 46.556713 18.566458 47.099998 19.653999L 47.099998 19.653999C 47.830341 21.10836 47.548405 22.866859 46.400002 24.02ZM 30 35.924L 38 35.924C 39.104568 35.924 40 36.819431 40 37.924L 40 42L 47 36L 51.462002 35.924C 54.520874 35.922897 57 33.442875 57 30.383999L 57 16.538C 57 13.479447 54.520554 11 51.462002 11L 26.538 11C 23.479446 11 21 13.479447 21 16.538L 21 30.384001C 20.998753 31.296858 21.224161 32.195747 21.656 33M 18.554001 53.132L 16.476 54.116001C 14.568678 54.982372 12.319076 54.157448 11.423982 52.263435C 10.528888 50.369423 11.319727 48.107613 13.2 47.184002L 15.274 46.200001ZM 18.554001 53.132C 22.621908 51.205948 27.16921 50.528099 31.622002 51.184002L 33 51.383999L 25.784 36.136002L 25.066 37.335999C 22.747383 41.195435 19.337181 44.281319 15.266 46.203999ZM 18.554001 53.132C 19.421608 54.966053 21.003304 56.364128 22.93 57"></path></g></g></g><g id="g-root-task_9405zj1x4iozs-stroke" data-item-order="1000000000" data-item-id="task_9405zj1x4iozs" data-item-class="Icon Stroke Indexed InsideFill InsideColorFill" data-item-index="4" data-renderer-id="0" transform="translate(439.3682861328125, 172.078857421875)"><g id="task_9405zj1x4iozs-stroke" fill="none" stroke-linecap="round" stroke-linejoin="round" stroke-miterlimit="4" stroke="#FFFFFF" stroke-width="2"><g><path d="M 47 37L 47 53C 47 55.209141 45.209141 57 43 57L 15 57C 12.790861 57 11 55.209141 11 53L 11 15C 11 12.790861 12.790861 11 15 11L 43 11C 45.209141 11 47 12.790861 47 15L 47 17M 43 41L 43 51C 43 52.104568 42.104568 53 41 53L 17 53C 15.895431 53 15 52.104568 15 51L 15 17C 15 15.895431 15.895431 15 17 15L 21 15M 37 15L 41 15C 42.104568 15 43 15.895431 43 17L 43 21M 31.372 46.464001L 27.129999 42.222L 51.877998 17.472C 53.04987 16.299606 54.950336 16.299393 56.122471 17.471527C 57.294605 18.64366 57.294392 20.544128 56.121998 21.716ZM 49.757999 19.594L 54 23.836M 27.129999 42.222L 24.594 49L 31.372 46.464001L 27.129999 42.222ZM 19 33L 19.732 34.464001C 19.870932 34.743011 20.135715 34.938057 20.443375 34.98801C 20.751034 35.037964 21.063927 34.936722 21.284 34.716L 25 31M 29 33L 31 33M 21 11L 37 11L 37 11L 37 15C 37 16.104568 36.104568 17 35 17L 23 17C 21.895432 17 21 16.104568 21 15L 21 11L 21 11ZM 19 25L 19.732 26.464001C 19.870932 26.743011 20.135715 26.938055 20.443375 26.98801C 20.751034 27.037966 21.063927 26.93672 21.284 26.716L 25 23M 29 25L 37 25"></path></g></g></g><g id="g-root-tx_clearand_zisxfz1x4vb4c-stroke" data-item-order="1000000000" data-item-id="tx_clearand_zisxfz1x4vb4c" data-item-class="Label Stroke ColorFillGray" data-item-index="none" data-renderer-id="0" transform="translate(560.1578979492188, 172.078857421875)"></g><g id="g-root-1_v989cf1x4fuh3-stroke" data-item-order="1000000000" data-item-id="1_v989cf1x4fuh3" data-item-class="Icon Stroke Title" data-item-index="none" data-renderer-id="0" transform="translate(301.368408203125, 190.078857421875)"><g id="1_v989cf1x4fuh3-stroke" fill="none" stroke-linecap="round" stroke-linejoin="round" stroke-miterlimit="4" stroke="#ffffff" stroke-width="2"><g><path d="M 40.990002 80.500008C 38.31041 75.85936 33.358715 73.000664 28.000002 73.000664C 22.641289 73.000664 17.689592 75.85936 15.01 80.500008M 20.230001 55.000004C 24.59235 59.478245 31.274767 60.78125 37.000004 58.270004M 19 59.500004C 19.000002 64.470566 23.029438 68.500008 28.000002 68.500008C 32.970566 68.500008 37.000004 64.470566 37.000004 59.500004C 37.000004 54.529442 32.970566 50.500008 28.000002 50.500008C 23.029438 50.500008 19.000002 54.529442 19.000002 59.500004M 51.010002 80.500008C 53.689594 75.85936 58.641293 73.000664 64.000008 73.000664C 69.358719 73.000664 74.310417 75.85936 76.990005 80.500008M 71.770004 55.000004C 67.407654 59.478245 60.725239 60.78125 55.000004 58.270004M 55.000004 59.500004C 55.000008 64.470566 59.029442 68.500008 64.000008 68.500008C 68.970566 68.500008 73.000008 64.470566 73.000008 59.500004C 73.000008 54.529442 68.970566 50.500008 64.000008 50.500008C 59.029442 50.500008 55.000008 54.529442 55.000008 59.500004M 70.000008 38.500004C 70.000008 40.156857 68.65686 41.500004 67.000008 41.500004L 55.000004 41.500004L 46.000004 50.500004L 46.000004 41.500004L 25.000002 41.500004C 23.343147 41.500004 22 40.156857 22 38.500004L 22 14.5C 22 12.843146 23.343147 11.5 25.000002 11.5L 67.000008 11.5C 68.65686 11.5 70.000008 12.843146 70.000008 14.5ZM 55.000004 20.5L 61.000004 26.500002L 55.000004 32.5M 37.000004 20.5L 31.000002 26.500002L 37.000004 32.5M 49.000004 20.5L 43.000004 32.5"></path></g></g></g></g></g></svg>