<?xml version="1.0" encoding="utf-8" standalone="yes"?>
<!DOCTYPE svg PUBLIC "-//W3C//DTD SVG 1.1//EN" "http://www.w3.org/Graphics/SVG/1.1/DTD/svg11.dtd">
<svg width="433" height="218" viewBox="0 0 433 218" style="fill:none;stroke:none;fill-rule:evenodd;clip-rule:evenodd;stroke-linecap:round;stroke-linejoin:round;stroke-miterlimit:1.5;" version="1.1" xmlns="http://www.w3.org/2000/svg" xmlns:xlink="http://www.w3.org/1999/xlink"><style id="fontImports">@import url("https://fonts.googleapis.com/css2?family=Roboto:wght@400;700&amp;display=block");</style><g id="items" style="isolation: isolate"><g id="blend" style="mix-blend-mode:normal"><g id="g-root-3.cu_sy_v8lfsm15r18k-fill" data-item-order="999940969" data-item-id="3.cu_sy_v8lfsm15r18k" data-item-class="Part Indexed Fill Stroke" data-item-index="3" data-renderer-id="0" transform="translate(3, 123)"><g id="3.cu_sy_v8lfsm15r18k-fill" stroke="none" fill="#b4a1fe"><g><path d="M 10 22L 46 34L 46 82L 10 70L 10 22ZM 82 22L 118 34L 118 82L 82 70L 82 22ZM 154 22L 190 34L 190 82L 154 70L 154 22ZM 82 22L 46 34L 46 82L 82 70L 82 22ZM 154 22L 118 34L 118 82L 154 70L 154 22ZM 226 22L 190 34L 190 82L 226 70L 226 22ZM 46 10L 10 22L 46 34L 82 22L 46 10ZM 118 10L 82 22L 118 34L 154 22L 118 10ZM 190 10L 154 22L 190 34L 226 22L 190 10Z"></path></g></g></g><g id="g-root-3.line_sy_mcyfjq15r219-fill" data-item-order="999940972" data-item-id="3.line_sy_mcyfjq15r219" data-item-class="Curve Stroke Part LeaderLine Indexed" data-item-index="3" data-renderer-id="0" transform="translate(145.52511596679688, 165)"></g><g id="g-root-2.cu_sy_18k1y5y15qznm-fill" data-item-order="999940973" data-item-id="2.cu_sy_18k1y5y15qznm" data-item-class="Part Indexed Fill Stroke" data-item-index="2" data-renderer-id="0" transform="translate(39, 63)"><g id="2.cu_sy_18k1y5y15qznm-fill" stroke="none" fill="#8b7acd"><g><path d="M 10 22L 46 34L 46 82L 10 70L 10 22ZM 82 22L 118 34L 118 82L 82 70L 82 22ZM 82 22L 46 34L 46 82L 82 70L 82 22ZM 154 22L 118 34L 118 82L 154 70L 154 22ZM 46 10L 10 22L 46 34L 82 22L 46 10ZM 118 10L 82 22L 118 34L 154 22L 118 10Z"></path></g></g></g><g id="g-root-2.line_sy_zoexx215r0gb-fill" data-item-order="999940976" data-item-id="2.line_sy_zoexx215r0gb" data-item-class="Curve Stroke Part LeaderLine Indexed" data-item-index="2" data-renderer-id="0" transform="translate(145.5255126953125, 105)"></g><g id="g-root-1.cu_sy_1luvzg615r18g-fill" data-item-order="999940977" data-item-id="1.cu_sy_1luvzg615r18g" data-item-class="Part Indexed Indexed_1 Fill Stroke" data-item-index="1" data-renderer-id="0" transform="translate(75, 3)"><g id="1.cu_sy_1luvzg615r18g-fill" stroke="none" fill="#62539d"><g><path d="M 10 22L 46 34L 46 82L 10 70L 10 22ZM 82 22L 46 34L 46 82L 82 70L 82 22ZM 46 10L 10 22L 46 34L 82 22L 46 10Z"></path></g></g></g><g id="g-root-1.line_sy_1cz8z7a15r215-fill" data-item-order="999940980" data-item-id="1.line_sy_1cz8z7a15r215" data-item-class="Curve Stroke Part LeaderLine Indexed Indexed_1" data-item-index="1" data-renderer-id="0" transform="translate(129.0009765625, 45)"></g><g id="g-root-tx_hardtask_4kfgvq15r287-fill" data-item-order="1000000000" data-item-id="tx_hardtask_4kfgvq15r287" data-item-class="Label Stroke Indexed Indexed_1 ColorStrokeGray" data-item-index="1" data-renderer-id="0" transform="translate(267, 33)"><g id="tx_hardtask_4kfgvq15r287-fill" stroke="none" fill="#8e8e8e"><g><text style="font: 20px Roboto, sans-serif; white-space: pre;" font-weight="20px" font-size="Roboto," font-family="sans-serif"><tspan x="12" y="34" dominant-baseline="ideographic">Hard Tasks</tspan></text></g></g></g><g id="g-root-tx_mediumta_908z0615r1fy-fill" data-item-order="1000000000" data-item-id="tx_mediumta_908z0615r1fy" data-item-class="Label Stroke Indexed ColorStrokeGray" data-item-index="2" data-renderer-id="0" transform="translate(267, 93)"><g id="tx_mediumta_908z0615r1fy-fill" stroke="none" fill="#8e8e8e"><g><text style="font: 20px Roboto, sans-serif; white-space: pre;" font-weight="20px" font-size="Roboto," font-family="sans-serif"><tspan x="12" y="34" dominant-baseline="ideographic">Medium Tasks</tspan></text></g></g></g><g id="g-root-tx_easytask_hvvz9215r0n9-fill" data-item-order="1000000000" data-item-id="tx_easytask_hvvz9215r0n9" data-item-class="Label Stroke Indexed ColorStrokeGray" data-item-index="3" data-renderer-id="0" transform="translate(267, 153)"><g id="tx_easytask_hvvz9215r0n9-fill" stroke="none" fill="#8e8e8e"><g><text style="font: 20px Roboto, sans-serif; white-space: pre;" font-weight="20px" font-size="Roboto," font-family="sans-serif"><tspan x="12" y="34" dominant-baseline="ideographic">Easy Tasks</tspan></text></g></g></g><g id="g-root-3.cu_sy_v8lfsm15r18k-stroke" data-item-order="999940969" data-item-id="3.cu_sy_v8lfsm15r18k" data-item-class="Part Indexed Fill Stroke" data-item-index="3" data-renderer-id="0" transform="translate(3, 123)"><g id="3.cu_sy_v8lfsm15r18k-stroke" fill="none" stroke-linecap="round" stroke-linejoin="round" stroke-miterlimit="4" stroke="#FFFFFF" stroke-width="2"><g><path d="M 10 22L 46 34L 46 82L 10 70L 10 22ZM 82 22L 118 34L 118 82L 82 70L 82 22ZM 154 22L 190 34L 190 82L 154 70L 154 22ZM 82 22L 46 34L 46 82L 82 70L 82 22ZM 154 22L 118 34L 118 82L 154 70L 154 22ZM 226 22L 190 34L 190 82L 226 70L 226 22ZM 46 10L 10 22L 46 34L 82 22L 46 10ZM 118 10L 82 22L 118 34L 154 22L 118 10ZM 190 10L 154 22L 190 34L 226 22L 190 10Z"></path></g></g></g><g id="g-root-3.line_sy_mcyfjq15r219-stroke" data-item-order="999940972" data-item-id="3.line_sy_mcyfjq15r219" data-item-class="Curve Stroke Part LeaderLine Indexed" data-item-index="3" data-renderer-id="0" transform="translate(145.52511596679688, 165)"><g id="3.line_sy_mcyfjq15r219-stroke" fill="none" stroke-linecap="round" stroke-linejoin="round" stroke-miterlimit="4" stroke="#FFFFFF" stroke-width="2"><g><path d="M 67.684904 10C 172.704904 10 10.744904 10 119.474904 10"></path><path d="M 73.444904 3.5L 66.944904 10L 73.444904 16.5" stroke-dasharray="none"></path></g></g></g><g id="g-root-2.cu_sy_18k1y5y15qznm-stroke" data-item-order="999940973" data-item-id="2.cu_sy_18k1y5y15qznm" data-item-class="Part Indexed Fill Stroke" data-item-index="2" data-renderer-id="0" transform="translate(39, 63)"><g id="2.cu_sy_18k1y5y15qznm-stroke" fill="none" stroke-linecap="round" stroke-linejoin="round" stroke-miterlimit="4" stroke="#FFFFFF" stroke-width="2"><g><path d="M 10 22L 46 34L 46 82L 10 70L 10 22ZM 82 22L 118 34L 118 82L 82 70L 82 22ZM 82 22L 46 34L 46 82L 82 70L 82 22ZM 154 22L 118 34L 118 82L 154 70L 154 22ZM 46 10L 10 22L 46 34L 82 22L 46 10ZM 118 10L 82 22L 118 34L 154 22L 118 10Z"></path></g></g></g><g id="g-root-2.line_sy_zoexx215r0gb-stroke" data-item-order="999940976" data-item-id="2.line_sy_zoexx215r0gb" data-item-class="Curve Stroke Part LeaderLine Indexed" data-item-index="2" data-renderer-id="0" transform="translate(145.5255126953125, 105)"><g id="2.line_sy_zoexx215r0gb-stroke" fill="none" stroke-linecap="round" stroke-linejoin="round" stroke-miterlimit="4" stroke="#FFFFFF" stroke-width="2"><g><path d="M 31.534489 10C 137.324489 10 10.694489 10 119.474489 10"></path><path d="M 37.494489 3.5L 30.994489 10L 37.494489 16.5" stroke-dasharray="none"></path></g></g></g><g id="g-root-1.cu_sy_1luvzg615r18g-stroke" data-item-order="999940977" data-item-id="1.cu_sy_1luvzg615r18g" data-item-class="Part Indexed Indexed_1 Fill Stroke" data-item-index="1" data-renderer-id="0" transform="translate(75, 3)"><g id="1.cu_sy_1luvzg615r18g-stroke" fill="none" stroke-linecap="round" stroke-linejoin="round" stroke-miterlimit="4" stroke="#FFFFFF" stroke-width="2"><g><path d="M 10 22L 46 34L 46 82L 10 70L 10 22ZM 82 22L 46 34L 46 82L 82 70L 82 22ZM 46 10L 10 22L 46 34L 82 22L 46 10Z"></path></g></g></g><g id="g-root-1.line_sy_1cz8z7a15r215-stroke" data-item-order="999940980" data-item-id="1.line_sy_1cz8z7a15r215" data-item-class="Curve Stroke Part LeaderLine Indexed Indexed_1" data-item-index="1" data-renderer-id="0" transform="translate(129.0009765625, 45)"><g id="1.line_sy_1cz8z7a15r215-stroke" fill="none" stroke-linecap="round" stroke-linejoin="round" stroke-miterlimit="4" stroke="#FFFFFF" stroke-width="2"><g><path d="M 12.059021 10C 118.299021 10 27.219021 10 135.999021 10"></path><path d="M 17.959021 3.5L 11.459021 10L 17.959021 16.5" stroke-dasharray="none"></path></g></g></g><g id="g-root-tx_hardtask_4kfgvq15r287-stroke" data-item-order="1000000000" data-item-id="tx_hardtask_4kfgvq15r287" data-item-class="Label Stroke Indexed Indexed_1 ColorStrokeGray" data-item-index="1" data-renderer-id="0" transform="translate(267, 33)"></g><g id="g-root-tx_mediumta_908z0615r1fy-stroke" data-item-order="1000000000" data-item-id="tx_mediumta_908z0615r1fy" data-item-class="Label Stroke Indexed ColorStrokeGray" data-item-index="2" data-renderer-id="0" transform="translate(267, 93)"></g><g id="g-root-tx_easytask_hvvz9215r0n9-stroke" data-item-order="1000000000" data-item-id="tx_easytask_hvvz9215r0n9" data-item-class="Label Stroke Indexed ColorStrokeGray" data-item-index="3" data-renderer-id="0" transform="translate(267, 153)"></g></g></g></svg>