<?xml version="1.0" encoding="utf-8" standalone="yes"?>
<!DOCTYPE svg PUBLIC "-//W3C//DTD SVG 1.1//EN" "http://www.w3.org/Graphics/SVG/1.1/DTD/svg11.dtd">
<svg width="650" height="325" viewBox="0 0 650 325" style="fill:none;stroke:none;fill-rule:evenodd;clip-rule:evenodd;stroke-linecap:round;stroke-linejoin:round;stroke-miterlimit:1.5;" version="1.1" xmlns="http://www.w3.org/2000/svg" xmlns:xlink="http://www.w3.org/1999/xlink"><style id="fontImports">@import url("https://fonts.googleapis.com/css2?family=Roboto:wght@400;700&amp;display=block");</style><g id="items" style="isolation: isolate"><g id="blend" style="mix-blend-mode:normal"><g id="g-root-ro_1lto6fq3d6ww1-fill" data-item-order="999987688" data-item-id="ro_1lto6fq3d6ww1" data-item-class="Shape Stroke Fill" data-item-index="none" data-renderer-id="0" transform="translate(171, 177)"><g id="ro_1lto6fq3d6ww1-fill" stroke="none" fill="#392c6c"><g><path d="M 22 10L 226 10C 226 10 238 10 238 22L 238 52C 238 52 238 64 226 64L 22 64C 22 64 10 64 10 52L 10 22C 10 22 10 10 22 10"></path></g></g></g><g id="g-root-ro_vahkeu3di61b-fill" data-item-order="999987688" data-item-id="ro_vahkeu3di61b" data-item-class="Shape Stroke Fill" data-item-index="none" data-renderer-id="0" transform="translate(399, 3)"><g id="ro_vahkeu3di61b-fill" stroke="none" fill="#392c6c"><g><path d="M 22 10L 226 10C 226 10 238 10 238 22L 238 52C 238 52 238 64 226 64L 22 64C 22 64 10 64 10 52L 10 22C 10 22 10 10 22 10"></path></g></g></g><g id="g-root-ro_hs69w63dcjka-fill" data-item-order="999990928" data-item-id="ro_hs69w63dcjka" data-item-class="Shape Stroke Fill" data-item-index="none" data-renderer-id="0" transform="translate(3, 3)"><g id="ro_hs69w63dcjka-fill" stroke="none" fill="#392c6c"><g><path d="M 22 10L 166 10C 166 10 178 10 178 22L 178 52C 178 52 178 64 166 64L 22 64C 22 64 10 64 10 52L 10 22C 10 22 10 10 22 10"></path></g></g></g><g id="g-root-tx_downbutt_hvx4eu3d6yh3-fill" data-item-order="1000000000" data-item-id="tx_downbutt_hvx4eu3d6yh3" data-item-class="Label Stroke" data-item-index="none" data-renderer-id="0" transform="translate(219, 279)"><g id="tx_downbutt_hvx4eu3d6yh3-fill" stroke="none" fill="#A3A3A3"><g><text style="font: 20px Roboto, sans-serif; white-space: pre;" font-weight="20px" font-size="Roboto," font-family="sans-serif"><tspan x="12.83" y="34" dominant-baseline="ideographic">Down Button</tspan></text></g></g></g><g id="g-root-chec_1464knq3di58m-fill" data-item-order="1000000000" data-item-id="chec_1464knq3di58m" data-item-class="Icon Stroke" data-item-index="none" data-renderer-id="0" transform="translate(411, 15)"></g><g id="g-root-cu_dccrrq3dckcj-fill" data-item-order="1000000000" data-item-id="cu_dccrrq3dckcj" data-item-class="Curve Stroke ColorStrokeBlack" data-item-index="none" data-renderer-id="0" transform="translate(171, 30)"></g><g id="g-root-cu_dccrrq3dckcm-fill" data-item-order="1000000000" data-item-id="cu_dccrrq3dckcm" data-item-class="Curve Stroke ColorStrokeBlack" data-item-index="none" data-renderer-id="0" transform="translate(351, 30)"></g><g id="g-root-tx_progress_1lws42e3di619-fill" data-item-order="1000000000" data-item-id="tx_progress_1lws42e3di619" data-item-class="Label Stroke" data-item-index="none" data-renderer-id="0" transform="translate(447, 18)"><g id="tx_progress_1lws42e3di619-fill" stroke="none" fill="#886AFF"><g><text style="font: 20px Roboto, sans-serif; white-space: pre;" font-weight="20px" font-size="Roboto," font-family="sans-serif"><tspan x="13.82" y="34" dominant-baseline="ideographic">Progress Tracking</tspan></text></g></g></g><g id="g-root-task_dhc1hy3di4ul-fill" data-item-order="1000000000" data-item-id="task_dhc1hy3di4ul" data-item-class="Icon Stroke" data-item-index="none" data-renderer-id="0" transform="translate(261, 39)"></g><g id="g-root-tx_done_1cy166u3d6xoq-fill" data-item-order="1000000000" data-item-id="tx_done_1cy166u3d6xoq" data-item-class="Label Stroke" data-item-index="none" data-renderer-id="0" transform="translate(63, 69)"><g id="tx_done_1cy166u3d6xoq-fill" stroke="none" fill="#A3A3A3"><g><text style="font: 20px Roboto, sans-serif; white-space: pre;" font-weight="20px" font-size="Roboto," font-family="sans-serif"><tspan x="16.92" y="34" dominant-baseline="ideographic">Done</tspan></text></g></g></g><g id="g-root-cu_8wj9na3dcl50-fill" data-item-order="1000000000" data-item-id="cu_8wj9na3dcl50" data-item-class="Curve Stroke ColorStrokeBlack" data-item-index="none" data-renderer-id="0" transform="translate(129, 57)"></g><g id="g-root-cu_1umtac63dcjd3-fill" data-item-order="1000000000" data-item-id="cu_1umtac63dcjd3" data-item-class="Curve Stroke ColorStrokeBlack" data-item-index="none" data-renderer-id="0" transform="translate(129, 57)"></g><g id="g-root-cu_1q6zs7q3dck5d-fill" data-item-order="1000000000" data-item-id="cu_1q6zs7q3dck5d" data-item-class="Curve Stroke ColorStrokeBlack" data-item-index="none" data-renderer-id="0" transform="translate(423, 57)"></g><g id="g-root-cu_1q6zs7q3dck5g-fill" data-item-order="1000000000" data-item-id="cu_1q6zs7q3dck5g" data-item-class="Curve Stroke ColorStrokeBlack" data-item-index="none" data-renderer-id="0" transform="translate(423, 57)"></g><g id="g-root-tx_trackpro_zn74wm3d6w3w-fill" data-item-order="1000000000" data-item-id="tx_trackpro_zn74wm3d6w3w" data-item-class="Label Stroke" data-item-index="none" data-renderer-id="0" transform="translate(447, 69)"><g id="tx_trackpro_zn74wm3d6w3w-fill" stroke="none" fill="#A3A3A3"><g><text style="font: 20px Roboto, sans-serif; white-space: pre;" font-weight="20px" font-size="Roboto," font-family="sans-serif"><tspan x="15.18" y="34" dominant-baseline="ideographic">Track Progress</tspan></text></g></g></g><g id="g-root-tx_notdone_18i7o2e3d6ygz-fill" data-item-order="1000000000" data-item-id="tx_notdone_18i7o2e3d6ygz" data-item-class="Label Stroke" data-item-index="none" data-renderer-id="0" transform="translate(27, 105)"><g id="tx_notdone_18i7o2e3d6ygz-fill" stroke="none" fill="#A3A3A3"><g><text style="font: 20px Roboto, sans-serif; white-space: pre;" font-weight="20px" font-size="Roboto," font-family="sans-serif"><tspan x="16.35" y="34" dominant-baseline="ideographic">Not Done</tspan></text></g></g></g><g id="g-root-tx_tasklist_qs62s63di6fg-fill" data-item-order="1000000000" data-item-id="tx_tasklist_qs62s63di6fg" data-item-class="Label Stroke" data-item-index="none" data-renderer-id="0" transform="translate(243, 93)"><g id="tx_tasklist_qs62s63di6fg-fill" stroke="none" fill="#A3A3A3"><g><text style="font: 20px Roboto, sans-serif; white-space: pre;" font-weight="20px" font-size="Roboto," font-family="sans-serif"><tspan x="14.69" y="34" dominant-baseline="ideographic">TaskList</tspan></text></g></g></g><g id="g-root-tx_pendingt_v7dms63d6ww5-fill" data-item-order="1000000000" data-item-id="tx_pendingt_v7dms63d6ww5" data-item-class="Label Stroke" data-item-index="none" data-renderer-id="0" transform="translate(447, 105)"><g id="tx_pendingt_v7dms63d6ww5-fill" stroke="none" fill="#A3A3A3"><g><text style="font: 20px Roboto, sans-serif; white-space: pre;" font-weight="20px" font-size="Roboto," font-family="sans-serif"><tspan x="17.23" y="34" dominant-baseline="ideographic">Pending Tasks</tspan></text></g></g></g><g id="g-root-cu_8wj9na3dcl4x-fill" data-item-order="1000000000" data-item-id="cu_8wj9na3dcl4x" data-item-class="Curve Stroke ColorStrokeBlack" data-item-index="none" data-renderer-id="0" transform="translate(285, 141)"></g><g id="g-root-tx_tasktype_13ynbfa3dckcg-fill" data-item-order="1000000000" data-item-id="tx_tasktype_13ynbfa3dckcg" data-item-class="Label Stroke" data-item-index="none" data-renderer-id="0" transform="translate(15, 18)"><g id="tx_tasktype_13ynbfa3dckcg-fill" stroke="none" fill="#886AFF"><g><text style="font: 20px Roboto, sans-serif; white-space: pre;" font-weight="20px" font-size="Roboto," font-family="sans-serif"><tspan x="14.23" y="34" dominant-baseline="ideographic">Task Types</tspan></text></g></g></g><g id="g-root-5_1q9hok63d6w3s-fill" data-item-order="1000000000" data-item-id="5_1q9hok63d6w3s" data-item-class="Icon Stroke" data-item-index="none" data-renderer-id="0" transform="translate(183, 189)"></g><g id="g-root-tx_taskprio_4j7nva3d6xvr-fill" data-item-order="1000000000" data-item-id="tx_taskprio_4j7nva3d6xvr" data-item-class="Label Stroke" data-item-index="none" data-renderer-id="0" transform="translate(219, 192)"><g id="tx_taskprio_4j7nva3d6xvr-fill" stroke="none" fill="#886AFF"><g><text style="font: 20px Roboto, sans-serif; white-space: pre;" font-weight="20px" font-size="Roboto," font-family="sans-serif"><tspan x="13.81" y="34" dominant-baseline="ideographic">Task Prioritization</tspan></text></g></g></g><g id="g-root-cu_1hbcryu3dcky6-fill" data-item-order="1000000000" data-item-id="cu_1hbcryu3dcky6" data-item-class="Curve Stroke ColorStrokeBlack" data-item-index="none" data-renderer-id="0" transform="translate(195, 231)"></g><g id="g-root-cu_1cw5qxi3dcikp-fill" data-item-order="1000000000" data-item-id="cu_1cw5qxi3dcikp" data-item-class="Curve Stroke ColorStrokeBlack" data-item-index="none" data-renderer-id="0" transform="translate(195, 231)"></g><g id="g-root-tx_upbutton_mbqmja3d6xou-fill" data-item-order="1000000000" data-item-id="tx_upbutton_mbqmja3d6xou" data-item-class="Label Stroke" data-item-index="none" data-renderer-id="0" transform="translate(219, 243)"><g id="tx_upbutton_mbqmja3d6xou-fill" stroke="none" fill="#A3A3A3"><g><text style="font: 20px Roboto, sans-serif; white-space: pre;" font-weight="20px" font-size="Roboto," font-family="sans-serif"><tspan x="14.03" y="34" dominant-baseline="ideographic">Up Button</tspan></text></g></g></g><g id="g-root-ro_5vj4m3di6fi-fill" data-item-order="1000000000" data-item-id="ro_5vj4m3di6fi" data-item-class="Shape Stroke Fill" data-item-index="none" data-renderer-id="0" transform="translate(219, 15)"></g><g id="g-root-2_qnta523dcirl-fill" data-item-order="1000000000" data-item-id="2_qnta523dcirl" data-item-class="Icon Stroke" data-item-index="none" data-renderer-id="0" transform="translate(129, 15)"></g><g id="g-root-ro_1lto6fq3d6ww1-stroke" data-item-order="999987688" data-item-id="ro_1lto6fq3d6ww1" data-item-class="Shape Stroke Fill" data-item-index="none" data-renderer-id="0" transform="translate(171, 177)"><g id="ro_1lto6fq3d6ww1-stroke" fill="none" stroke-linecap="round" stroke-linejoin="round" stroke-miterlimit="4" stroke="#886AFF" stroke-width="2"><g><path d="M 22 10L 226 10C 226 10 238 10 238 22L 238 52C 238 52 238 64 226 64L 22 64C 22 64 10 64 10 52L 10 22C 10 22 10 10 22 10"></path></g></g></g><g id="g-root-ro_vahkeu3di61b-stroke" data-item-order="999987688" data-item-id="ro_vahkeu3di61b" data-item-class="Shape Stroke Fill" data-item-index="none" data-renderer-id="0" transform="translate(399, 3)"><g id="ro_vahkeu3di61b-stroke" fill="none" stroke-linecap="round" stroke-linejoin="round" stroke-miterlimit="4" stroke="#886AFF" stroke-width="2"><g><path d="M 22 10L 226 10C 226 10 238 10 238 22L 238 52C 238 52 238 64 226 64L 22 64C 22 64 10 64 10 52L 10 22C 10 22 10 10 22 10"></path></g></g></g><g id="g-root-ro_hs69w63dcjka-stroke" data-item-order="999990928" data-item-id="ro_hs69w63dcjka" data-item-class="Shape Stroke Fill" data-item-index="none" data-renderer-id="0" transform="translate(3, 3)"><g id="ro_hs69w63dcjka-stroke" fill="none" stroke-linecap="round" stroke-linejoin="round" stroke-miterlimit="4" stroke="#886AFF" stroke-width="2"><g><path d="M 22 10L 166 10C 166 10 178 10 178 22L 178 52C 178 52 178 64 166 64L 22 64C 22 64 10 64 10 52L 10 22C 10 22 10 10 22 10"></path></g></g></g><g id="g-root-tx_downbutt_hvx4eu3d6yh3-stroke" data-item-order="1000000000" data-item-id="tx_downbutt_hvx4eu3d6yh3" data-item-class="Label Stroke" data-item-index="none" data-renderer-id="0" transform="translate(219, 279)"></g><g id="g-root-chec_1464knq3di58m-stroke" data-item-order="1000000000" data-item-id="chec_1464knq3di58m" data-item-class="Icon Stroke" data-item-index="none" data-renderer-id="0" transform="translate(411, 15)"><g id="chec_1464knq3di58m-stroke" fill="none" stroke-linecap="round" stroke-linejoin="round" stroke-miterlimit="4" stroke="#886AFF" stroke-width="2"><g><path d="M 30.357141 13.214286L 33.571426 13.214286C 34.754894 13.214286 35.714287 14.173676 35.714287 15.357142L 35.714287 36.785713C 35.714287 37.969181 34.754894 38.92857 33.571426 38.92857L 16.428572 38.92857C 15.245104 38.92857 14.285714 37.969181 14.285714 36.785713L 14.285714 15.357142C 14.285714 14.173676 15.245104 13.214286 16.428572 13.214286L 19.642857 13.214286M 21.785713 11.071428L 28.214285 11.071428C 28.214285 11.071428 30.357141 11.071428 30.357141 13.214286L 30.357141 14.285714C 30.357141 14.285714 30.357141 16.428572 28.214285 16.428572L 21.785713 16.428572C 21.785713 16.428572 19.642857 16.428572 19.642857 14.285714L 19.642857 13.214286C 19.642857 13.214286 19.642857 11.071428 21.785713 11.071428M 19.642857 28.214285L 23.928572 31.42857L 29.285713 22.857143"></path></g></g></g><g id="g-root-cu_dccrrq3dckcj-stroke" data-item-order="1000000000" data-item-id="cu_dccrrq3dckcj" data-item-class="Curve Stroke ColorStrokeBlack" data-item-index="none" data-renderer-id="0" transform="translate(171, 30)"><g id="cu_dccrrq3dckcj-stroke" fill="none" stroke-linecap="round" stroke-linejoin="round" stroke-miterlimit="4" stroke="#666666" stroke-width="2" stroke-dasharray="5.0, 7.0"><g><path d="M 58 37L 55 37L 54.9 37C 50.939934 36.982885 46.647411 35.702052 42.500002 33.3C 40.005522 31.898041 36.944719 28.369114 33.999999 23.499999C 31.05528 18.630885 27.994476 15.101958 25.499999 13.7C 21.352591 11.297948 17.060069 10.017115 13.1 10L 13 10L 10 10"></path></g></g></g><g id="g-root-cu_dccrrq3dckcm-stroke" data-item-order="1000000000" data-item-id="cu_dccrrq3dckcm" data-item-class="Curve Stroke ColorStrokeBlack" data-item-index="none" data-renderer-id="0" transform="translate(351, 30)"><g id="cu_dccrrq3dckcm-stroke" fill="none" stroke-linecap="round" stroke-linejoin="round" stroke-miterlimit="4" stroke="#666666" stroke-width="2" stroke-dasharray="5.0, 7.0"><g><path d="M 10 37L 13 37L 13.1 37C 17.060069 36.982885 21.352592 35.702052 25.500001 33.3C 27.994475 31.898042 31.055279 28.369115 33.999998 23.5C 36.944718 18.630885 40.005521 15.101959 42.499998 13.700001C 46.647412 11.297949 50.939934 10.017115 54.900003 10L 55 10L 58 10"></path></g></g></g><g id="g-root-tx_progress_1lws42e3di619-stroke" data-item-order="1000000000" data-item-id="tx_progress_1lws42e3di619" data-item-class="Label Stroke" data-item-index="none" data-renderer-id="0" transform="translate(447, 18)"></g><g id="g-root-task_dhc1hy3di4ul-stroke" data-item-order="1000000000" data-item-id="task_dhc1hy3di4ul" data-item-class="Icon Stroke" data-item-index="none" data-renderer-id="0" transform="translate(261, 39)"><g id="task_dhc1hy3di4ul-stroke" fill="none" stroke-linecap="round" stroke-linejoin="round" stroke-miterlimit="4" stroke="#A3A3A3" stroke-width="2"><g><path d="M 46 15L 50 15C 51.104568 15 52 15.895431 52 17L 52 55C 52 56.104568 51.104568 57 50 57L 18 57C 16.895432 57 16 56.104568 16 55L 16 17C 16 15.895431 16.895432 15 18 15L 22 15M 38 15C 38 12.790861 36.209137 11 34 11C 31.790861 11 30 12.790861 30 15L 26 15L 26 21L 42 21L 42 15ZM 26 19L 21 19C 20.447716 19 20 19.447716 20 20L 20 52C 20 52.552284 20.447716 53 21 53L 40 53L 40 46C 40 45.447716 40.447716 45 41 45L 48 45L 48 20C 48 19.447716 47.552284 19 47 19L 42 19M 48 45L 40 53M 26 32L 27.58 30.42C 27.98218 30.008879 28.541882 29.790789 29.116192 29.821419C 29.6905 29.852049 30.223829 30.128433 30.58 30.58C 30.955534 30.958626 31.466724 31.171597 32 31.171597C 32.533276 31.171597 33.044464 30.958626 33.419998 30.58C 33.798851 30.091841 34.38208 29.806213 35 29.806213C 35.61792 29.806213 36.201149 30.091841 36.580002 30.58C 36.955536 30.958626 37.466724 31.171597 38 31.171597C 38.533276 31.171597 39.044464 30.958626 39.419998 30.58L 41 29M 26 40L 27.58 38.419998C 27.98218 38.008881 28.541882 37.790787 29.116192 37.821419C 29.6905 37.852051 30.223829 38.128433 30.58 38.580002C 30.955534 38.958626 31.466724 39.171597 32 39.171597C 32.533276 39.171597 33.044464 38.958626 33.419998 38.580002C 33.798851 38.091843 34.38208 37.806213 35 37.806213C 35.61792 37.806213 36.201149 38.091843 36.580002 38.580002C 36.955536 38.958626 37.466724 39.171597 38 39.171597C 38.533276 39.171597 39.044464 38.958626 39.419998 38.580002L 41 37"></path></g></g></g><g id="g-root-tx_done_1cy166u3d6xoq-stroke" data-item-order="1000000000" data-item-id="tx_done_1cy166u3d6xoq" data-item-class="Label Stroke" data-item-index="none" data-renderer-id="0" transform="translate(63, 69)"></g><g id="g-root-cu_8wj9na3dcl50-stroke" data-item-order="1000000000" data-item-id="cu_8wj9na3dcl50" data-item-class="Curve Stroke ColorStrokeBlack" data-item-index="none" data-renderer-id="0" transform="translate(129, 57)"><g id="cu_8wj9na3dcl50-stroke" fill="none" stroke-linecap="round" stroke-linejoin="round" stroke-miterlimit="4" stroke="#666666" stroke-width="2" stroke-dasharray="5.0, 7.0"><g><path d="M 28 10L 28 22L 28 34L 19 34L 10 34"></path></g></g></g><g id="g-root-cu_1umtac63dcjd3-stroke" data-item-order="1000000000" data-item-id="cu_1umtac63dcjd3" data-item-class="Curve Stroke ColorStrokeBlack" data-item-index="none" data-renderer-id="0" transform="translate(129, 57)"><g id="cu_1umtac63dcjd3-stroke" fill="none" stroke-linecap="round" stroke-linejoin="round" stroke-miterlimit="4" stroke="#666666" stroke-width="2" stroke-dasharray="5.0, 7.0"><g><path d="M 28 10L 28 17.5L 28 58C 27.999999 64.627415 22.627416 69.999998 16 69.999998L 15.9 70L 10 70"></path></g></g></g><g id="g-root-cu_1q6zs7q3dck5d-stroke" data-item-order="1000000000" data-item-id="cu_1q6zs7q3dck5d" data-item-class="Curve Stroke ColorStrokeBlack" data-item-index="none" data-renderer-id="0" transform="translate(423, 57)"><g id="cu_1q6zs7q3dck5d-stroke" fill="none" stroke-linecap="round" stroke-linejoin="round" stroke-miterlimit="4" stroke="#666666" stroke-width="2" stroke-dasharray="5.0, 7.0"><g><path d="M 10 10L 10 22L 10 34L 19 34L 28 34"></path></g></g></g><g id="g-root-cu_1q6zs7q3dck5g-stroke" data-item-order="1000000000" data-item-id="cu_1q6zs7q3dck5g" data-item-class="Curve Stroke ColorStrokeBlack" data-item-index="none" data-renderer-id="0" transform="translate(423, 57)"><g id="cu_1q6zs7q3dck5g-stroke" fill="none" stroke-linecap="round" stroke-linejoin="round" stroke-miterlimit="4" stroke="#666666" stroke-width="2" stroke-dasharray="5.0, 7.0"><g><path d="M 10 10L 10 17.5L 10 58C 10.000002 64.627417 15.372585 70 22.000002 69.999999L 22.1 70L 28 70"></path></g></g></g><g id="g-root-tx_trackpro_zn74wm3d6w3w-stroke" data-item-order="1000000000" data-item-id="tx_trackpro_zn74wm3d6w3w" data-item-class="Label Stroke" data-item-index="none" data-renderer-id="0" transform="translate(447, 69)"></g><g id="g-root-tx_notdone_18i7o2e3d6ygz-stroke" data-item-order="1000000000" data-item-id="tx_notdone_18i7o2e3d6ygz" data-item-class="Label Stroke" data-item-index="none" data-renderer-id="0" transform="translate(27, 105)"></g><g id="g-root-tx_tasklist_qs62s63di6fg-stroke" data-item-order="1000000000" data-item-id="tx_tasklist_qs62s63di6fg" data-item-class="Label Stroke" data-item-index="none" data-renderer-id="0" transform="translate(243, 93)"></g><g id="g-root-tx_pendingt_v7dms63d6ww5-stroke" data-item-order="1000000000" data-item-id="tx_pendingt_v7dms63d6ww5" data-item-class="Label Stroke" data-item-index="none" data-renderer-id="0" transform="translate(447, 105)"></g><g id="g-root-cu_8wj9na3dcl4x-stroke" data-item-order="1000000000" data-item-id="cu_8wj9na3dcl4x" data-item-class="Curve Stroke ColorStrokeBlack" data-item-index="none" data-renderer-id="0" transform="translate(285, 141)"><g id="cu_8wj9na3dcl4x-stroke" fill="none" stroke-linecap="round" stroke-linejoin="round" stroke-miterlimit="4" stroke="#666666" stroke-width="2" stroke-dasharray="5.0, 7.0"><g><path d="M 10 10L 10 28L 10 46"></path></g></g></g><g id="g-root-tx_tasktype_13ynbfa3dckcg-stroke" data-item-order="1000000000" data-item-id="tx_tasktype_13ynbfa3dckcg" data-item-class="Label Stroke" data-item-index="none" data-renderer-id="0" transform="translate(15, 18)"></g><g id="g-root-5_1q9hok63d6w3s-stroke" data-item-order="1000000000" data-item-id="5_1q9hok63d6w3s" data-item-class="Icon Stroke" data-item-index="none" data-renderer-id="0" transform="translate(183, 189)"><g id="5_1q9hok63d6w3s-stroke" fill="none" stroke-linecap="round" stroke-linejoin="round" stroke-miterlimit="4" stroke="#886AFF" stroke-width="2"><g><path d="M 26.5625 15.9375L 11.5625 15.9375C 11.1875 15.9375 10.9375 15.6875 10.9375 15.3125L 10.9375 12.1875C 10.9375 11.8125 11.1875 11.5625 11.5625 11.5625L 26.5625 11.5625C 26.9375 11.5625 27.1875 11.8125 27.1875 12.1875L 27.1875 15.3125C 27.1875 15.6875 26.9375 15.9375 26.5625 15.9375ZM 38.4375 30.9375L 17.8125 30.9375C 17.4375 30.9375 17.1875 30.6875 17.1875 30.3125L 17.1875 27.1875C 17.1875 26.8125 17.4375 26.5625 17.8125 26.5625L 38.4375 26.5625C 38.8125 26.5625 39.0625 26.8125 39.0625 27.1875L 39.0625 30.3125C 39.0625 30.6875 38.8125 30.9375 38.4375 30.9375ZM 38.4375 38.4375L 29.6875 38.4375C 29.3125 38.4375 29.0625 38.1875 29.0625 37.8125L 29.0625 34.6875C 29.0625 34.3125 29.3125 34.0625 29.6875 34.0625L 38.4375 34.0625C 38.8125 34.0625 39.0625 34.3125 39.0625 34.6875L 39.0625 37.8125C 39.0625 38.1875 38.8125 38.4375 38.4375 38.4375ZM 26.516251 24.2075L 23.94875 21.641251C 23.841595 21.539316 23.780937 21.397894 23.780937 21.25C 23.780937 21.102106 23.841595 20.960684 23.94875 20.858749L 26.514999 18.2925C 26.616934 18.185345 26.758356 18.124687 26.90625 18.124687C 27.054144 18.124687 27.195566 18.185345 27.297501 18.2925L 29.86375 20.858749C 29.970905 20.960684 30.031565 21.102106 30.031565 21.25C 30.031565 21.397894 29.970905 21.539316 29.86375 21.641251L 27.297501 24.2075C 27.184999 24.43125 26.73875 24.43125 26.516251 24.2075Z"></path></g></g></g><g id="g-root-tx_taskprio_4j7nva3d6xvr-stroke" data-item-order="1000000000" data-item-id="tx_taskprio_4j7nva3d6xvr" data-item-class="Label Stroke" data-item-index="none" data-renderer-id="0" transform="translate(219, 192)"></g><g id="g-root-cu_1hbcryu3dcky6-stroke" data-item-order="1000000000" data-item-id="cu_1hbcryu3dcky6" data-item-class="Curve Stroke ColorStrokeBlack" data-item-index="none" data-renderer-id="0" transform="translate(195, 231)"><g id="cu_1hbcryu3dcky6-stroke" fill="none" stroke-linecap="round" stroke-linejoin="round" stroke-miterlimit="4" stroke="#666666" stroke-width="2" stroke-dasharray="5.0, 7.0"><g><path d="M 10 10L 10 22L 10 34L 19 34L 28 34"></path></g></g></g><g id="g-root-cu_1cw5qxi3dcikp-stroke" data-item-order="1000000000" data-item-id="cu_1cw5qxi3dcikp" data-item-class="Curve Stroke ColorStrokeBlack" data-item-index="none" data-renderer-id="0" transform="translate(195, 231)"><g id="cu_1cw5qxi3dcikp-stroke" fill="none" stroke-linecap="round" stroke-linejoin="round" stroke-miterlimit="4" stroke="#666666" stroke-width="2" stroke-dasharray="5.0, 7.0"><g><path d="M 10 10L 10 17.5L 10 58C 10.000002 64.627417 15.372585 70 22.000002 69.999999L 22.1 70L 28 70"></path></g></g></g><g id="g-root-tx_upbutton_mbqmja3d6xou-stroke" data-item-order="1000000000" data-item-id="tx_upbutton_mbqmja3d6xou" data-item-class="Label Stroke" data-item-index="none" data-renderer-id="0" transform="translate(219, 243)"></g><g id="g-root-ro_5vj4m3di6fi-stroke" data-item-order="1000000000" data-item-id="ro_5vj4m3di6fi" data-item-class="Shape Stroke Fill" data-item-index="none" data-renderer-id="0" transform="translate(219, 15)"><g id="ro_5vj4m3di6fi-stroke" fill="none" stroke-linecap="round" stroke-linejoin="round" stroke-miterlimit="4" stroke="#FFFFFF" stroke-width="2"><g><path d="M 34 10L 118 10C 118 10 142 10 142 34L 142 112C 142 112 142 136 118 136L 34 136C 34 136 10 136 10 112L 10 34C 10 34 10 10 34 10"></path></g></g></g><g id="g-root-2_qnta523dcirl-stroke" data-item-order="1000000000" data-item-id="2_qnta523dcirl" data-item-class="Icon Stroke" data-item-index="none" data-renderer-id="0" transform="translate(129, 15)"><g id="2_qnta523dcirl-stroke" fill="none" stroke-linecap="round" stroke-linejoin="round" stroke-miterlimit="4" stroke="#886AFF" stroke-width="2"><g><path d="M 28.125 17.5L 11.875 17.5C 11.5 17.5 11.25 17.25 11.25 16.875L 11.25 13.75C 11.25 13.375 11.5 13.125 11.875 13.125L 28.125 13.125C 28.5 13.125 28.75 13.375 28.75 13.75L 28.75 16.875C 28.75 17.125 28.5 17.5 28.125 17.5ZM 33.125 26.5625L 16.875 26.5625C 16.5 26.5625 16.25 26.3125 16.25 25.9375L 16.25 22.8125C 16.25 22.4375 16.5 22.1875 16.875 22.1875L 33.125 22.1875C 33.5 22.1875 33.75 22.4375 33.75 22.8125L 33.75 25.9375C 33.75 26.1875 33.5 26.5625 33.125 26.5625ZM 38.125 31.25L 21.875 31.25C 21.5 31.25 21.25 31.5 21.25 31.875L 21.25 35C 21.25 35.375 21.5 35.625 21.875 35.625L 38.125 35.625C 38.5 35.625 38.75 35.375 38.75 35L 38.75 31.875C 38.75 31.625 38.5 31.25 38.125 31.25ZM 25 10.9375L 25 39.0625"></path></g></g></g></g></g></svg>