<?xml version="1.0" encoding="utf-8" standalone="yes"?>
<!DOCTYPE svg PUBLIC "-//W3C//DTD SVG 1.1//EN" "http://www.w3.org/Graphics/SVG/1.1/DTD/svg11.dtd">
<svg width="733" height="506" viewBox="0 0 733 506" style="fill:none;stroke:none;fill-rule:evenodd;clip-rule:evenodd;stroke-linecap:round;stroke-linejoin:round;stroke-miterlimit:1.5;" version="1.1" xmlns="http://www.w3.org/2000/svg" xmlns:xlink="http://www.w3.org/1999/xlink"><style id="fontImports">@import url("https://fonts.googleapis.com/css2?family=Roboto:wght@400;700&amp;display=block");</style><g id="items" style="isolation: isolate"><g id="blend" style="mix-blend-mode:normal"><g id="g-root-5.cu_sy_1ltnke58xcw07-fill" data-item-order="999735044" data-item-id="5.cu_sy_1ltnke58xcw07" data-item-class="Part Indexed Fill Stroke" data-item-index="5" data-renderer-id="0" transform="translate(230, 3)"><g id="5.cu_sy_1ltnke58xcw07-fill" stroke="none" fill="#392c6c"><g><path d="M 490 250C 490 382.548 382.548 490 250 490C 117.452 490 10 382.548 10 250C 10 117.452 117.452 10 250 10C 382.548 10 490 117.452 490 250ZM 250 442C 356.039 442 442 356.039 442 250C 442 143.961 356.039 58 250 58C 143.961 58 58 143.961 58 250C 58 356.039 143.961 442 250 442Z"></path></g></g></g><g id="g-root-5.line_sy_1hegjct8xctmo-fill" data-item-order="999735047" data-item-id="5.line_sy_1hegjct8xctmo" data-item-class="Curve Stroke Part LeaderLine Indexed" data-item-index="5" data-renderer-id="0" transform="translate(158, 74.998046875)"></g><g id="g-root-4.cu_sy_1q9h2il8xcv7x-fill" data-item-order="999735049" data-item-id="4.cu_sy_1q9h2il8xcv7x" data-item-class="Part Indexed Fill Stroke" data-item-index="4" data-renderer-id="0" transform="translate(278, 51)"></g><g id="g-root-4.line_sy_1ltnke58xcw06-fill" data-item-order="999735051" data-item-id="4.line_sy_1ltnke58xcw06" data-item-class="Curve Stroke Part LeaderLine Indexed" data-item-index="4" data-renderer-id="0" transform="translate(158, 158.9998779296875)"></g><g id="g-root-3.cu_sy_4jtiwt8xctu3-fill" data-item-order="999735052" data-item-id="3.cu_sy_4jtiwt8xctu3" data-item-class="Part Indexed Fill Stroke" data-item-index="3" data-renderer-id="0" transform="translate(326, 99)"><g id="3.cu_sy_4jtiwt8xctu3-fill" stroke="none" fill="#392c6c"><g><path d="M 298 154C 298 233.529 233.529 298 154 298C 74.471 298 10 233.529 10 154C 10 74.471 74.471 10 154 10C 233.529 10 298 74.471 298 154ZM 154 250C 207.019 250 250 207.019 250 154C 250 100.9807 207.019 58 154 58C 100.9807 58 58 100.9807 58 154C 58 207.019 100.9807 250 154 250Z"></path></g></g></g><g id="g-root-3.line_sy_400sd8xcumc-fill" data-item-order="999735055" data-item-id="3.line_sy_400sd8xcumc" data-item-class="Curve Stroke Part LeaderLine Indexed" data-item-index="3" data-renderer-id="0" transform="translate(158, 242.9989013671875)"></g><g id="g-root-2.cu_sy_qqakfx8xcum9-fill" data-item-order="999735056" data-item-id="2.cu_sy_qqakfx8xcum9" data-item-class="Part Indexed Fill Stroke" data-item-index="2" data-renderer-id="0" transform="translate(374, 147)"></g><g id="g-root-2.line_sy_hunk718xcvey-fill" data-item-order="999735059" data-item-id="2.line_sy_hunk718xcvey" data-item-class="Curve Stroke Part LeaderLine Indexed" data-item-index="2" data-renderer-id="0" transform="translate(158, 267.94287109375)"></g><g id="g-root-1.cu_sy_v642kd8xcttz-fill" data-item-order="999735060" data-item-id="1.cu_sy_v642kd8xcttz" data-item-class="Part Indexed Indexed_1 Fill Stroke" data-item-index="1" data-renderer-id="0" transform="translate(422, 195)"><g id="1.cu_sy_v642kd8xcttz-fill" stroke="none" fill="#392c6c"><g><path d="M 106 58C 106 84.5097 84.5097 106 58 106C 31.4903 106 10 84.5097 10 58C 10 31.4903 31.4903 10 58 10C 84.5097 10 106 31.4903 106 58Z"></path></g></g></g><g id="g-root-1.line_sy_qqakfx8xcum8-fill" data-item-order="999735063" data-item-id="1.line_sy_qqakfx8xcum8" data-item-class="Curve Stroke Part LeaderLine Indexed Indexed_1" data-item-index="1" data-renderer-id="0" transform="translate(158, 265.772216796875)"></g><g id="g-root-tx_nodemodu_zlb3lp8xcw7i-fill" data-item-order="1000000000" data-item-id="tx_nodemodu_zlb3lp8xcw7i" data-item-class="Label Stroke Indexed" data-item-index="5" data-renderer-id="0" transform="translate(26, 63)"><g id="tx_nodemodu_zlb3lp8xcw7i-fill" stroke="none" fill="#FFFFFF"><g><text style="font: 20px Roboto, sans-serif; white-space: pre;" font-weight="20px" font-size="Roboto," font-family="sans-serif"><tspan x="20.46" y="34" dominant-baseline="ideographic">Node</tspan></text></g></g></g><g id="g-root-node_1hdu5fh8wxekr-fill" data-item-order="1000000000" data-item-id="node_1hdu5fh8wxekr" data-item-class="Icon Stroke Indexed" data-item-index="5" data-renderer-id="0" transform="translate(98, 51)"></g><g id="g-root-tx_firebase_18gy3ul8xcvet-fill" data-item-order="1000000000" data-item-id="tx_firebase_18gy3ul8xcvet" data-item-class="Label Stroke Indexed" data-item-index="4" data-renderer-id="0" transform="translate(2, 146.9998779296875)"><g id="tx_firebase_18gy3ul8xcvet-fill" stroke="none" fill="#FFFFFF"><g><text style="font: 20px Roboto, sans-serif; white-space: pre;" font-weight="20px" font-size="Roboto," font-family="sans-serif"><tspan x="15.91" y="34" dominant-baseline="ideographic">Firebase</tspan></text></g></g></g><g id="g-root-fire_1ursk598x318i-fill" data-item-order="1000000000" data-item-id="fire_1ursk598x318i" data-item-class="Icon Stroke Indexed" data-item-index="4" data-renderer-id="0" transform="translate(98, 135)"></g><g id="g-root-tx_tailwind_1cwrlz18xcumk-fill" data-item-order="1000000000" data-item-id="tx_tailwind_1cwrlz18xcumk" data-item-class="Label Stroke Indexed" data-item-index="3" data-renderer-id="0" transform="translate(2, 230.9998779296875)"><g id="tx_tailwind_1cwrlz18xcumk-fill" stroke="none" fill="#FFFFFF"><g><text style="font: 20px Roboto, sans-serif; white-space: pre;" font-weight="20px" font-size="Roboto," font-family="sans-serif"><tspan x="18.39" y="34" dominant-baseline="ideographic">Tailwind</tspan></text></g></g></g><g id="g-root-1_1q6z9bx8x4g0b-fill" data-item-order="1000000000" data-item-id="1_1q6z9bx8x4g0b" data-item-class="Icon Stroke Indexed" data-item-index="3" data-renderer-id="0" transform="translate(98, 218.9998779296875)"></g><g id="g-root-tx_react_1lsem7x8xcttv-fill" data-item-order="1000000000" data-item-id="tx_react_1lsem7x8xcttv" data-item-class="Label Stroke Indexed" data-item-index="2" data-renderer-id="0" transform="translate(26, 314.9998779296875)"><g id="tx_react_1lsem7x8xcttv-fill" stroke="none" fill="#FFFFFF"><g><text style="font: 20px Roboto, sans-serif; white-space: pre;" font-weight="20px" font-size="Roboto," font-family="sans-serif"><tspan x="17.21" y="34" dominant-baseline="ideographic">React</tspan></text></g></g></g><g id="g-root-nati_1ly12bh8wxds3-fill" data-item-order="1000000000" data-item-id="nati_1ly12bh8wxds3" data-item-class="Icon Stroke Indexed" data-item-index="2" data-renderer-id="0" transform="translate(98, 302.9998779296875)"></g><g id="g-root-tx_tasky_1q7ln998xcw7e-fill" data-item-order="1000000000" data-item-id="tx_tasky_1q7ln998xcw7e" data-item-class="Label Stroke Indexed Indexed_1" data-item-index="1" data-renderer-id="0" transform="translate(26, 398.9998779296875)"><g id="tx_tasky_1q7ln998xcw7e-fill" stroke="none" fill="#FFFFFF"><g><text style="font: 20px Roboto, sans-serif; white-space: pre;" font-weight="20px" font-size="Roboto," font-family="sans-serif"><tspan x="16.38" y="34" dominant-baseline="ideographic">Tasky</tspan></text></g></g></g><g id="g-root-1_1cy0nb18wxfd0-fill" data-item-order="1000000000" data-item-id="1_1cy0nb18wxfd0" data-item-class="Icon Stroke Indexed Indexed_1" data-item-index="1" data-renderer-id="0" transform="translate(98, 386.9998779296875)"></g><g id="g-root-5.cu_sy_1ltnke58xcw07-stroke" data-item-order="999735044" data-item-id="5.cu_sy_1ltnke58xcw07" data-item-class="Part Indexed Fill Stroke" data-item-index="5" data-renderer-id="0" transform="translate(230, 3)"><g id="5.cu_sy_1ltnke58xcw07-stroke" fill="none" stroke-linecap="round" stroke-linejoin="round" stroke-miterlimit="4" stroke="#886AFF" stroke-width="2"><g><path d="M 490 250C 490 382.5483 382.5483 490 250 490C 117.4517 490 10 382.5483 10 250C 10 117.4517 117.4517 10 250 10C 382.5483 10 490 117.4517 490 250ZM 250 442C 356.0387 442 442 356.0387 442 250C 442 143.9613 356.0387 58 250 58C 143.9613 58 58 143.9613 58 250C 58 356.0387 143.9613 442 250 442Z"></path></g></g></g><g id="g-root-5.line_sy_1hegjct8xctmo-stroke" data-item-order="999735047" data-item-id="5.line_sy_1hegjct8xctmo" data-item-class="Curve Stroke Part LeaderLine Indexed" data-item-index="5" data-renderer-id="0" transform="translate(158, 74.998046875)"><g id="5.line_sy_1hegjct8xctmo-stroke" fill="none" stroke-linecap="round" stroke-linejoin="round" stroke-miterlimit="4" stroke="#FFFFFF" stroke-width="2"><g><path d="M 10 10.001953L 108.99 63.301953"></path><path d="M 100.6 66.201953L 109.4 63.501953L 106.8 54.701953" stroke-dasharray="none"></path></g></g></g><g id="g-root-4.cu_sy_1q9h2il8xcv7x-stroke" data-item-order="999735049" data-item-id="4.cu_sy_1q9h2il8xcv7x" data-item-class="Part Indexed Fill Stroke" data-item-index="4" data-renderer-id="0" transform="translate(278, 51)"><g id="4.cu_sy_1q9h2il8xcv7x-stroke" fill="none" stroke-linecap="round" stroke-linejoin="round" stroke-miterlimit="4" stroke="#886AFF" stroke-width="2"><g><path d="M 394 202C 394 308.0387 308.0387 394 202 394C 95.9613 394 10 308.0387 10 202C 10 95.9613 95.9613 10 202 10C 308.0387 10 394 95.9613 394 202ZM 202 346C 281.529 346 346 281.529 346 202C 346 122.471 281.529 58 202 58C 122.471 58 58 122.471 58 202C 58 281.529 122.471 346 202 346Z"></path></g></g></g><g id="g-root-4.line_sy_1ltnke58xcw06-stroke" data-item-order="999735051" data-item-id="4.line_sy_1ltnke58xcw06" data-item-class="Curve Stroke Part LeaderLine Indexed" data-item-index="4" data-renderer-id="0" transform="translate(158, 158.9998779296875)"><g id="4.line_sy_1ltnke58xcw06-stroke" fill="none" stroke-linecap="round" stroke-linejoin="round" stroke-miterlimit="4" stroke="#FFFFFF" stroke-width="2"><g><path d="M 10 10L 134.57 43.54"></path><path d="M 127.1 48.3L 135.1 43.7L 130.5 35.7" stroke-dasharray="none"></path></g></g></g><g id="g-root-3.cu_sy_4jtiwt8xctu3-stroke" data-item-order="999735052" data-item-id="3.cu_sy_4jtiwt8xctu3" data-item-class="Part Indexed Fill Stroke" data-item-index="3" data-renderer-id="0" transform="translate(326, 99)"><g id="3.cu_sy_4jtiwt8xctu3-stroke" fill="none" stroke-linecap="round" stroke-linejoin="round" stroke-miterlimit="4" stroke="#886AFF" stroke-width="2"><g><path d="M 298 154C 298 233.529 233.529 298 154 298C 74.471 298 10 233.529 10 154C 10 74.471 74.471 10 154 10C 233.529 10 298 74.471 298 154ZM 154 250C 207.0193 250 250 207.0193 250 154C 250 100.9807 207.0193 58 154 58C 100.9807 58 58 100.9807 58 154C 58 207.0193 100.9807 250 154 250Z"></path></g></g></g><g id="g-root-3.line_sy_400sd8xcumc-stroke" data-item-order="999735055" data-item-id="3.line_sy_400sd8xcumc" data-item-class="Curve Stroke Part LeaderLine Indexed" data-item-index="3" data-renderer-id="0" transform="translate(158, 242.9989013671875)"><g id="3.line_sy_400sd8xcumc-stroke" fill="none" stroke-linecap="round" stroke-linejoin="round" stroke-miterlimit="4" stroke="#FFFFFF" stroke-width="2"><g><path d="M 10 10.000977L 176 10.000977"></path><path d="M 170 16.500977L 176.5 10.000977L 170 3.500977" stroke-dasharray="none"></path></g></g></g><g id="g-root-2.cu_sy_qqakfx8xcum9-stroke" data-item-order="999735056" data-item-id="2.cu_sy_qqakfx8xcum9" data-item-class="Part Indexed Fill Stroke" data-item-index="2" data-renderer-id="0" transform="translate(374, 147)"><g id="2.cu_sy_qqakfx8xcum9-stroke" fill="none" stroke-linecap="round" stroke-linejoin="round" stroke-miterlimit="4" stroke="#886AFF" stroke-width="2"><g><path d="M 202 106C 202 159.0193 159.0193 202 106 202C 52.9807 202 10 159.0193 10 106C 10 52.9807 52.9807 10 106 10C 159.0193 10 202 52.9807 202 106ZM 106 154C 132.5097 154 154 132.5097 154 106C 154 79.4903 132.5097 58 106 58C 79.4903 58 58 79.4903 58 106C 58 132.5097 79.4903 154 106 154Z"></path></g></g></g><g id="g-root-2.line_sy_hunk718xcvey-stroke" data-item-order="999735059" data-item-id="2.line_sy_hunk718xcvey" data-item-class="Curve Stroke Part LeaderLine Indexed" data-item-index="2" data-renderer-id="0" transform="translate(158, 267.94287109375)"><g id="2.line_sy_hunk718xcvey-stroke" fill="none" stroke-linecap="round" stroke-linejoin="round" stroke-miterlimit="4" stroke="#FFFFFF" stroke-width="2"><g><path d="M 10 69.05709L 227.42 10.51709"></path><path d="M 223.3 18.31709L 227.9 10.41709L 219.9 5.81709" stroke-dasharray="none"></path></g></g></g><g id="g-root-1.cu_sy_v642kd8xcttz-stroke" data-item-order="999735060" data-item-id="1.cu_sy_v642kd8xcttz" data-item-class="Part Indexed Indexed_1 Fill Stroke" data-item-index="1" data-renderer-id="0" transform="translate(422, 195)"><g id="1.cu_sy_v642kd8xcttz-stroke" fill="none" stroke-linecap="round" stroke-linejoin="round" stroke-miterlimit="4" stroke="#886AFF" stroke-width="2"><g><path d="M 106 58C 106 84.5097 84.5097 106 58 106C 31.4903 106 10 84.5097 10 58C 10 31.4903 31.4903 10 58 10C 84.5097 10 106 31.4903 106 58Z"></path></g></g></g><g id="g-root-1.line_sy_qqakfx8xcum8-stroke" data-item-order="999735063" data-item-id="1.line_sy_qqakfx8xcum8" data-item-class="Curve Stroke Part LeaderLine Indexed Indexed_1" data-item-index="1" data-renderer-id="0" transform="translate(158, 265.772216796875)"><g id="1.line_sy_qqakfx8xcum8-stroke" fill="none" stroke-linecap="round" stroke-linejoin="round" stroke-miterlimit="4" stroke="#FFFFFF" stroke-width="2"><g><path d="M 10 155.227754L 277.95 10.947754"></path><path d="M 275.7 19.547754L 278.4 10.747754L 269.6 8.047754" stroke-dasharray="none"></path></g></g></g><g id="g-root-tx_nodemodu_zlb3lp8xcw7i-stroke" data-item-order="1000000000" data-item-id="tx_nodemodu_zlb3lp8xcw7i" data-item-class="Label Stroke Indexed" data-item-index="5" data-renderer-id="0" transform="translate(26, 63)"></g><g id="g-root-node_1hdu5fh8wxekr-stroke" data-item-order="1000000000" data-item-id="node_1hdu5fh8wxekr" data-item-class="Icon Stroke Indexed" data-item-index="5" data-renderer-id="0" transform="translate(98, 51)"><g id="node_1hdu5fh8wxekr-stroke" fill="none" stroke-linecap="round" stroke-linejoin="round" stroke-miterlimit="4" stroke="#FFFFFF" stroke-width="2"><g><path d="M 26.9 53.080002L 32.900002 56.720001C 33.518803 57.077267 34.281197 57.077267 34.900002 56.720001L 53.16 45.759998C 53.781269 45.401318 54.162849 44.73737 54.16 44.02L 54.16 24C 54.162849 23.282631 53.781269 22.618683 53.16 22.26L 35.040001 11.28C 34.421196 10.922734 33.658802 10.922734 33.040001 11.28L 14.7 22.24C 14.078732 22.598682 13.697152 23.26263 13.7 23.98L 13.7 44C 13.697152 44.717369 14.078732 45.381317 14.7 45.740002L 20.18 49.02C 21.550299 49.840054 23.255424 49.861053 24.645504 49.074997C 26.035582 48.28894 26.896448 46.816933 26.9 45.220001L 26.9 25.880001M 33 38C 32.996193 39.95676 34.45718 41.606812 36.400002 41.839996C 38.12677 42.053387 39.873238 42.053387 41.600002 41.840004C 43.54282 41.606812 45.003803 39.95676 45 38C 44.992313 36.255989 43.722317 34.774323 42 34.5L 39 34L 36 33.5C 34.277679 33.225674 33.007683 31.744011 33 30C 32.996193 28.04324 34.45718 26.393185 36.400002 26.16C 38.12677 25.946617 39.873238 25.946617 41.600002 26.160002C 43.54282 26.393185 45.003803 28.04324 45 30"></path></g></g></g><g id="g-root-tx_firebase_18gy3ul8xcvet-stroke" data-item-order="1000000000" data-item-id="tx_firebase_18gy3ul8xcvet" data-item-class="Label Stroke Indexed" data-item-index="4" data-renderer-id="0" transform="translate(2, 146.9998779296875)"></g><g id="g-root-fire_1ursk598x318i-stroke" data-item-order="1000000000" data-item-id="fire_1ursk598x318i" data-item-class="Icon Stroke Indexed" data-item-index="4" data-renderer-id="0" transform="translate(98, 135)"><g id="fire_1ursk598x318i-stroke" fill="none" stroke-linecap="round" stroke-linejoin="round" stroke-miterlimit="4" stroke="#FFFFFF" stroke-width="2"><g><path d="M 31.57 56.178001C 33.004303 57.274963 34.995697 57.274963 36.43 56.178001L 51 45L 43.487999 21.695999C 43.38253 21.367802 43.115456 21.117065 42.781261 21.032501C 42.447063 20.947933 42.092876 21.041464 41.844002 21.279999L 17 45ZM 17 45L 33.062 16.506001C 33.24506 16.182522 33.59243 15.987263 33.963928 15.999016C 34.335426 16.010769 34.669754 16.227596 34.832001 16.562L 38.577999 24.4ZM 17 45L 22.528 11.832C 22.599615 11.416073 22.924648 11.089886 23.340319 11.016796C 23.755989 10.943706 24.172798 11.139451 24.382 11.506001L 29.922001 22.08Z"></path></g></g></g><g id="g-root-tx_tailwind_1cwrlz18xcumk-stroke" data-item-order="1000000000" data-item-id="tx_tailwind_1cwrlz18xcumk" data-item-class="Label Stroke Indexed" data-item-index="3" data-renderer-id="0" transform="translate(2, 230.9998779296875)"></g><g id="g-root-1_1q6z9bx8x4g0b-stroke" data-item-order="1000000000" data-item-id="1_1q6z9bx8x4g0b" data-item-class="Icon Stroke Indexed" data-item-index="3" data-renderer-id="0" transform="translate(98, 218.9998779296875)"><g id="1_1q6z9bx8x4g0b-stroke" fill="none" stroke-linecap="round" stroke-linejoin="round" stroke-miterlimit="4" stroke="#FFFFFF" stroke-width="2"><g><path d="M 49 35L 49 22.956001C 49.003315 16.353855 43.652145 10.999999 37.049999 11L 13 11C 11.895431 11 11 11.895431 11 13L 11 55C 11 56.104568 11.895431 57 13 57L 21 57M 39 11.168L 39 19C 39 20.104568 39.895432 21 41 21L 48.84 21M 33 57C 28.581722 57 25 53.418278 25 49C 25 44.581722 28.581722 41 33 41M 57 41L 52.708 41C 50.988789 41.000622 49.49548 42.182915 49.100517 43.856144C 48.705555 45.529377 49.512539 47.25465 51.050003 48.024002L 54.950001 49.973999C 56.489811 50.742203 57.298763 52.46883 56.903545 54.143627C 56.508324 55.818424 55.012798 57.00124 53.292 57L 49 57M 45 41L 40.708 41C 38.988789 41.000622 37.495476 42.182915 37.100517 43.856144C 36.705551 45.529377 37.512539 47.25465 39.050003 48.024002L 42.950001 49.973999C 44.489811 50.742203 45.298763 52.46883 44.903545 54.143627C 44.508324 55.818424 43.012798 57.00124 41.292 57L 37 57"></path></g></g></g><g id="g-root-tx_react_1lsem7x8xcttv-stroke" data-item-order="1000000000" data-item-id="tx_react_1lsem7x8xcttv" data-item-class="Label Stroke Indexed" data-item-index="2" data-renderer-id="0" transform="translate(26, 314.9998779296875)"></g><g id="g-root-nati_1ly12bh8wxds3-stroke" data-item-order="1000000000" data-item-id="nati_1ly12bh8wxds3" data-item-class="Icon Stroke Indexed" data-item-index="2" data-renderer-id="0" transform="translate(98, 302.9998779296875)"><g id="nati_1ly12bh8wxds3-stroke" fill="none" stroke-linecap="round" stroke-linejoin="round" stroke-miterlimit="4" stroke="#FFFFFF" stroke-width="2"><g><path d="M 11 34C 11 38.970562 21.297451 43 34 43C 46.702549 43 57 38.970562 57 34C 57 29.029438 46.702549 25 34 25C 21.297451 25 11 29.029438 11 34M 22.500608 53.917976C 26.805243 56.403255 35.443565 49.500122 41.794838 38.49939C 48.146111 27.498663 49.805241 16.566088 45.50061 14.080809C 41.195976 11.595526 32.557655 18.498661 26.206381 29.499392C 19.855106 40.500122 18.195976 51.432693 22.50061 53.917976M 26.206381 38.50061C 32.557655 49.501339 41.195976 56.404472 45.50061 53.919193C 49.805241 51.43391 48.146111 40.501335 41.794838 29.500608C 35.443565 18.499878 26.805243 11.596744 22.50061 14.082026C 18.195976 16.567307 19.855106 27.49988 26.206381 38.50061M 31 34C 31 35.656853 32.343147 37 34 37C 35.656853 37 37 35.656853 37 34C 37 32.343147 35.656853 31 34 31C 32.343147 31 31 32.343147 31 34"></path></g></g></g><g id="g-root-tx_tasky_1q7ln998xcw7e-stroke" data-item-order="1000000000" data-item-id="tx_tasky_1q7ln998xcw7e" data-item-class="Label Stroke Indexed Indexed_1" data-item-index="1" data-renderer-id="0" transform="translate(26, 398.9998779296875)"></g><g id="g-root-1_1cy0nb18wxfd0-stroke" data-item-order="1000000000" data-item-id="1_1cy0nb18wxfd0" data-item-class="Icon Stroke Indexed Indexed_1" data-item-index="1" data-renderer-id="0" transform="translate(98, 386.9998779296875)"><g id="1_1cy0nb18wxfd0-stroke" fill="none" stroke-linecap="round" stroke-linejoin="round" stroke-miterlimit="4" stroke="#FFFFFF" stroke-width="2"><g><path d="M 47 21L 50 21C 51.104568 21 52 21.895432 52 23L 52 45.049999C 52 51.649803 46.649803 57 40.049999 57L 18 57C 16.895432 57 16 56.104568 16 55L 16 23C 16 21.895432 16.895432 21 18 21L 36 21M 34 29L 46.877998 16.122M 46 14C 46 15.656855 47.343147 17 49 17C 50.656857 17 52 15.656855 52 14C 52 12.343145 50.656857 11 49 11C 47.343147 11 46 12.343145 46 14ZM 42 56.84L 42 49C 42 47.895432 42.895432 47 44 47L 51.84 47M 22 35L 44 35M 22 41L 44 41M 22 47L 33 47"></path></g></g></g></g></g></svg>